<svg width="18" height="18" viewBox="0 0 18 18" fill="none" xmlns="http://www.w3.org/2000/svg">
<mask id="path-1-outside-1_47_796" maskUnits="userSpaceOnUse" x="0" y="-0.00582886" width="18" height="18" fill="black">
<rect fill="white" y="-0.00582886" width="18" height="18"/>
<path fill-rule="evenodd" clip-rule="evenodd" d="M16.2001 11.4209L16.2001 11.4209L15.6371 10.5104C15.1454 9.7087 14.8345 8.81499 14.7248 7.8882L14.4909 5.84535C14.1803 3.13365 11.8179 1.08215 9.00584 1.08215C6.63038 1.08215 4.57581 2.54604 3.80787 4.63519C4.57583 2.54609 6.63037 1.08223 9.00579 1.08223C11.8179 1.08223 14.1802 3.13374 14.4908 5.84543L14.7191 7.83916L14.7248 7.88829C14.8344 8.81508 15.1453 9.70879 15.637 10.5104L15.6632 10.5528L16.1873 11.4004L16.2 11.4209L16.2 11.4209L16.2001 11.421C16.4271 11.7881 16.6152 12.0922 16.7374 12.344C16.8608 12.5982 16.9559 12.8732 16.9085 13.1647C16.8713 13.3935 16.773 13.6071 16.6254 13.7854C16.773 13.6071 16.8714 13.3934 16.9086 13.1646C16.956 12.8731 16.8609 12.5982 16.7375 12.3439C16.6152 12.0921 16.4272 11.788 16.2001 11.4209ZM12.0787 14.2786H12.0786L12.0752 14.2943C11.9805 14.6945 11.823 15.0727 11.6102 15.4116C11.823 15.0727 11.9805 14.6944 12.0753 14.2942L12.0787 14.2786ZM1.12696 12.7307C1.16042 12.5972 1.21393 12.4682 1.27417 12.344C1.39644 12.0922 1.58454 11.788 1.81162 11.4208L1.82424 11.4004L2.34838 10.5528L2.37455 10.5104C2.55512 10.2161 2.7113 9.90925 2.84209 9.59296C2.71131 9.90922 2.55513 10.216 2.37458 10.5104L1.81164 11.4207C1.58457 11.7879 1.39646 12.0921 1.2742 12.3439C1.21394 12.4681 1.16042 12.5972 1.12696 12.7307ZM3.28942 7.86557L3.29247 7.83916L3.4132 6.78498L3.28942 7.86557ZM15.741 10.5075L15.715 10.4654C15.2299 9.6744 14.9231 8.7926 14.8149 7.87817L14.8093 7.82928L14.581 5.83563C14.2653 3.07938 11.8641 0.994171 9.00584 0.994171C6.14755 0.994171 3.74635 3.07938 3.4307 5.83563L3.20238 7.82936L3.19673 7.87829C3.08857 8.79268 2.7818 9.67443 2.29666 10.4654L2.27061 10.5076L1.73149 11.3794L1.73148 11.3794C1.50637 11.7434 1.31637 12.0506 1.19216 12.3065C1.06656 12.5652 0.96178 12.8602 1.01352 13.1783C1.06817 13.5144 1.24646 13.8199 1.51539 14.0383C1.76993 14.245 2.0845 14.3096 2.37782 14.3382C2.66788 14.3665 3.03717 14.3665 3.47471 14.3665H5.86088C6.04449 15.0969 6.43415 15.7548 6.98698 16.2349C7.55476 16.7281 8.26393 17.0058 9.00584 17.0058C9.74775 17.0058 10.4569 16.7281 11.0247 16.2349C11.5775 15.7548 11.9672 15.0969 12.1508 14.3665H14.537C14.9745 14.3665 15.3438 14.3665 15.6339 14.3382C15.9272 14.3096 16.2417 14.245 16.4963 14.0383C16.7652 13.8199 16.9435 13.5144 16.9982 13.1783C17.0499 12.8602 16.9451 12.5652 16.8195 12.3065C16.6953 12.0506 16.5054 11.7435 16.2803 11.3796L16.2803 11.3795L16.2778 11.3755L15.741 10.5075ZM13.4995 5.95222L13.7279 7.94594L13.7339 7.99853C13.8596 9.06125 14.2163 10.0862 14.7801 11.0055L14.808 11.0507L15.3321 11.8982C15.5761 12.2927 15.7371 12.5543 15.8351 12.7563C15.8842 12.8575 15.9066 12.9226 15.9164 12.9628C15.9213 12.9828 15.9229 12.9959 15.9234 13.0038L15.9236 13.0075L15.9235 13.0117L15.9234 13.0138C15.9097 13.0978 15.8647 13.1745 15.7975 13.2291L15.7962 13.23L15.7931 13.2318L15.7891 13.2339C15.7819 13.2376 15.7694 13.243 15.7493 13.2492C15.7087 13.2617 15.6396 13.2766 15.5249 13.2878C15.296 13.3102 14.982 13.3108 14.5078 13.3108H3.50389C3.02973 13.3108 2.71571 13.3102 2.48675 13.2878C2.37205 13.2766 2.30298 13.2617 2.26238 13.2492C2.24225 13.243 2.22979 13.2376 2.2226 13.2339C2.21904 13.2321 2.21677 13.2308 2.21549 13.23L2.21379 13.2288C2.14656 13.1742 2.10192 13.0973 2.08826 13.0133L2.08814 13.0117C2.08807 13.0102 2.08803 13.0077 2.08828 13.0038C2.08877 12.9959 2.09041 12.9828 2.09529 12.9628C2.10512 12.9226 2.12744 12.8575 2.17655 12.7563C2.2746 12.5543 2.4356 12.2927 2.67955 11.8982L3.2317 11.0053C3.79554 10.086 4.15209 9.06101 4.27778 7.99829L4.51215 5.95222C4.76656 3.73061 6.70199 2.04988 9.00584 2.04988C11.3097 2.04988 13.2451 3.73061 13.4995 5.95222ZM1.99875 13.0275C2.01583 13.1325 2.07155 13.228 2.15559 13.2962C2.17499 13.312 2.24045 13.3522 2.47767 13.3754C2.71227 13.3983 3.03176 13.3988 3.50389 13.3988H14.5078C14.9799 13.3988 15.2994 13.3983 15.534 13.3754C15.7712 13.3522 15.8367 13.312 15.8561 13.2962C15.8738 13.2818 15.8903 13.2662 15.9054 13.2496C15.8902 13.2663 15.8738 13.2819 15.856 13.2963C15.8366 13.3121 15.7712 13.3523 15.5339 13.3754C15.2993 13.3983 14.9798 13.3989 14.5077 13.3989H3.50386C3.03173 13.3989 2.71224 13.3983 2.47764 13.3754C2.24042 13.3523 2.17496 13.3121 2.15556 13.2963C2.07152 13.2281 2.01581 13.1326 1.99873 13.0276C1.99701 13.017 1.99569 12.9967 2.00319 12.9598C1.99571 12.9966 1.99703 13.0169 1.99875 13.0275ZM3.95289 9.15081C4.06241 8.771 4.14108 8.38238 4.18767 7.9885L4.19052 7.96361L4.18764 7.98858C4.14105 8.38244 4.0624 8.77103 3.95289 9.15081ZM4.31061 6.91515L4.42203 5.9425C4.4684 5.53753 4.56954 5.15018 4.7178 4.78708C4.56952 5.1502 4.46837 5.53758 4.42199 5.94259L4.31061 6.91515ZM6.86919 14.2786H6.86912C7.02065 14.7758 7.29563 15.2043 7.65221 15.514C8.05002 15.8595 8.5262 16.0382 9.00579 16.0382C9.48538 16.0382 9.96156 15.8595 10.3594 15.514C10.4745 15.414 10.5811 15.3016 10.6778 15.1785C10.5811 15.3016 10.4745 15.4139 10.3594 15.5139C9.96161 15.8594 9.48543 16.0381 9.00584 16.0381C8.52625 16.0381 8.05007 15.8594 7.65226 15.5139C7.31688 15.2226 7.0537 14.8262 6.89751 14.3665C6.88764 14.3375 6.8782 14.3082 6.86919 14.2786ZM7.71273 15.4484C7.39678 15.1739 7.14579 14.801 6.99314 14.3665H11.0185C10.8659 14.801 10.6149 15.1739 10.2989 15.4484C9.9166 15.7805 9.4616 15.9501 9.00584 15.9501C8.55008 15.9501 8.09508 15.7805 7.71273 15.4484Z"/>
</mask>
<path fill-rule="evenodd" clip-rule="evenodd" d="M16.2001 11.4209L16.2001 11.4209L15.6371 10.5104C15.1454 9.7087 14.8345 8.81499 14.7248 7.8882L14.4909 5.84535C14.1803 3.13365 11.8179 1.08215 9.00584 1.08215C6.63038 1.08215 4.57581 2.54604 3.80787 4.63519C4.57583 2.54609 6.63037 1.08223 9.00579 1.08223C11.8179 1.08223 14.1802 3.13374 14.4908 5.84543L14.7191 7.83916L14.7248 7.88829C14.8344 8.81508 15.1453 9.70879 15.637 10.5104L15.6632 10.5528L16.1873 11.4004L16.2 11.4209L16.2 11.4209L16.2001 11.421C16.4271 11.7881 16.6152 12.0922 16.7374 12.344C16.8608 12.5982 16.9559 12.8732 16.9085 13.1647C16.8713 13.3935 16.773 13.6071 16.6254 13.7854C16.773 13.6071 16.8714 13.3934 16.9086 13.1646C16.956 12.8731 16.8609 12.5982 16.7375 12.3439C16.6152 12.0921 16.4272 11.788 16.2001 11.4209ZM12.0787 14.2786H12.0786L12.0752 14.2943C11.9805 14.6945 11.823 15.0727 11.6102 15.4116C11.823 15.0727 11.9805 14.6944 12.0753 14.2942L12.0787 14.2786ZM1.12696 12.7307C1.16042 12.5972 1.21393 12.4682 1.27417 12.344C1.39644 12.0922 1.58454 11.788 1.81162 11.4208L1.82424 11.4004L2.34838 10.5528L2.37455 10.5104C2.55512 10.2161 2.7113 9.90925 2.84209 9.59296C2.71131 9.90922 2.55513 10.216 2.37458 10.5104L1.81164 11.4207C1.58457 11.7879 1.39646 12.0921 1.2742 12.3439C1.21394 12.4681 1.16042 12.5972 1.12696 12.7307ZM3.28942 7.86557L3.29247 7.83916L3.4132 6.78498L3.28942 7.86557ZM15.741 10.5075L15.715 10.4654C15.2299 9.6744 14.9231 8.7926 14.8149 7.87817L14.8093 7.82928L14.581 5.83563C14.2653 3.07938 11.8641 0.994171 9.00584 0.994171C6.14755 0.994171 3.74635 3.07938 3.4307 5.83563L3.20238 7.82936L3.19673 7.87829C3.08857 8.79268 2.7818 9.67443 2.29666 10.4654L2.27061 10.5076L1.73149 11.3794L1.73148 11.3794C1.50637 11.7434 1.31637 12.0506 1.19216 12.3065C1.06656 12.5652 0.96178 12.8602 1.01352 13.1783C1.06817 13.5144 1.24646 13.8199 1.51539 14.0383C1.76993 14.245 2.0845 14.3096 2.37782 14.3382C2.66788 14.3665 3.03717 14.3665 3.47471 14.3665H5.86088C6.04449 15.0969 6.43415 15.7548 6.98698 16.2349C7.55476 16.7281 8.26393 17.0058 9.00584 17.0058C9.74775 17.0058 10.4569 16.7281 11.0247 16.2349C11.5775 15.7548 11.9672 15.0969 12.1508 14.3665H14.537C14.9745 14.3665 15.3438 14.3665 15.6339 14.3382C15.9272 14.3096 16.2417 14.245 16.4963 14.0383C16.7652 13.8199 16.9435 13.5144 16.9982 13.1783C17.0499 12.8602 16.9451 12.5652 16.8195 12.3065C16.6953 12.0506 16.5054 11.7435 16.2803 11.3796L16.2803 11.3795L16.2778 11.3755L15.741 10.5075ZM13.4995 5.95222L13.7279 7.94594L13.7339 7.99853C13.8596 9.06125 14.2163 10.0862 14.7801 11.0055L14.808 11.0507L15.3321 11.8982C15.5761 12.2927 15.7371 12.5543 15.8351 12.7563C15.8842 12.8575 15.9066 12.9226 15.9164 12.9628C15.9213 12.9828 15.9229 12.9959 15.9234 13.0038L15.9236 13.0075L15.9235 13.0117L15.9234 13.0138C15.9097 13.0978 15.8647 13.1745 15.7975 13.2291L15.7962 13.23L15.7931 13.2318L15.7891 13.2339C15.7819 13.2376 15.7694 13.243 15.7493 13.2492C15.7087 13.2617 15.6396 13.2766 15.5249 13.2878C15.296 13.3102 14.982 13.3108 14.5078 13.3108H3.50389C3.02973 13.3108 2.71571 13.3102 2.48675 13.2878C2.37205 13.2766 2.30298 13.2617 2.26238 13.2492C2.24225 13.243 2.22979 13.2376 2.2226 13.2339C2.21904 13.2321 2.21677 13.2308 2.21549 13.23L2.21379 13.2288C2.14656 13.1742 2.10192 13.0973 2.08826 13.0133L2.08814 13.0117C2.08807 13.0102 2.08803 13.0077 2.08828 13.0038C2.08877 12.9959 2.09041 12.9828 2.09529 12.9628C2.10512 12.9226 2.12744 12.8575 2.17655 12.7563C2.2746 12.5543 2.4356 12.2927 2.67955 11.8982L3.2317 11.0053C3.79554 10.086 4.15209 9.06101 4.27778 7.99829L4.51215 5.95222C4.76656 3.73061 6.70199 2.04988 9.00584 2.04988C11.3097 2.04988 13.2451 3.73061 13.4995 5.95222ZM1.99875 13.0275C2.01583 13.1325 2.07155 13.228 2.15559 13.2962C2.17499 13.312 2.24045 13.3522 2.47767 13.3754C2.71227 13.3983 3.03176 13.3988 3.50389 13.3988H14.5078C14.9799 13.3988 15.2994 13.3983 15.534 13.3754C15.7712 13.3522 15.8367 13.312 15.8561 13.2962C15.8738 13.2818 15.8903 13.2662 15.9054 13.2496C15.8902 13.2663 15.8738 13.2819 15.856 13.2963C15.8366 13.3121 15.7712 13.3523 15.5339 13.3754C15.2993 13.3983 14.9798 13.3989 14.5077 13.3989H3.50386C3.03173 13.3989 2.71224 13.3983 2.47764 13.3754C2.24042 13.3523 2.17496 13.3121 2.15556 13.2963C2.07152 13.2281 2.01581 13.1326 1.99873 13.0276C1.99701 13.017 1.99569 12.9967 2.00319 12.9598C1.99571 12.9966 1.99703 13.0169 1.99875 13.0275ZM3.95289 9.15081C4.06241 8.771 4.14108 8.38238 4.18767 7.9885L4.19052 7.96361L4.18764 7.98858C4.14105 8.38244 4.0624 8.77103 3.95289 9.15081ZM4.31061 6.91515L4.42203 5.9425C4.4684 5.53753 4.56954 5.15018 4.7178 4.78708C4.56952 5.1502 4.46837 5.53758 4.42199 5.94259L4.31061 6.91515ZM6.86919 14.2786H6.86912C7.02065 14.7758 7.29563 15.2043 7.65221 15.514C8.05002 15.8595 8.5262 16.0382 9.00579 16.0382C9.48538 16.0382 9.96156 15.8595 10.3594 15.514C10.4745 15.414 10.5811 15.3016 10.6778 15.1785C10.5811 15.3016 10.4745 15.4139 10.3594 15.5139C9.96161 15.8594 9.48543 16.0381 9.00584 16.0381C8.52625 16.0381 8.05007 15.8594 7.65226 15.5139C7.31688 15.2226 7.0537 14.8262 6.89751 14.3665C6.88764 14.3375 6.8782 14.3082 6.86919 14.2786ZM7.71273 15.4484C7.39678 15.1739 7.14579 14.801 6.99314 14.3665H11.0185C10.8659 14.801 10.6149 15.1739 10.2989 15.4484C9.9166 15.7805 9.4616 15.9501 9.00584 15.9501C8.55008 15.9501 8.09508 15.7805 7.71273 15.4484Z" fill="#596E7C"/>
<path d="M16.2001 11.4209L16.3729 11.32L16.3702 11.3157L16.2001 11.4209ZM16.2001 11.4209L16.0273 11.5217L16.03 11.5261L16.2001 11.4209ZM15.6371 10.5104L15.4666 10.6149L15.467 10.6155L15.6371 10.5104ZM14.7248 7.8882L14.5261 7.91096L14.5262 7.91169L14.7248 7.8882ZM14.4909 5.84535L14.2922 5.8681L14.2922 5.86811L14.4909 5.84535ZM3.80787 4.63519L3.62016 4.56618L3.99559 4.70419L3.80787 4.63519ZM14.4908 5.84543L14.6895 5.82268L14.6895 5.82268L14.4908 5.84543ZM14.7191 7.83916L14.5204 7.86192L14.5204 7.86209L14.7191 7.83916ZM14.7248 7.88829L14.5261 7.91122L14.5262 7.91178L14.7248 7.88829ZM15.637 10.5104L15.4665 10.615L15.4668 10.6155L15.637 10.5104ZM15.6632 10.5528L15.493 10.6579L15.4931 10.658L15.6632 10.5528ZM16.1873 11.4004L16.0172 11.5056L16.0172 11.5056L16.1873 11.4004ZM16.2 11.4209L16.3715 11.3179L16.3701 11.3157L16.2 11.4209ZM16.2 11.4209L16.0285 11.5238L16.03 11.5262L16.2 11.4209ZM16.2001 11.421L16.3702 11.3158L16.3701 11.3157L16.2001 11.421ZM16.7374 12.344L16.9173 12.2567L16.9173 12.2567L16.7374 12.344ZM16.9085 13.1647L16.7111 13.1326L16.7111 13.1326L16.9085 13.1647ZM16.6254 13.7854L16.4714 13.6579L16.7795 13.913L16.6254 13.7854ZM16.9086 13.1646L16.7112 13.1325L16.7112 13.1325L16.9086 13.1646ZM16.7375 12.3439L16.5576 12.4313L16.5576 12.4313L16.7375 12.3439ZM12.0786 14.2786V14.0786H11.9174L11.8832 14.2361L12.0786 14.2786ZM12.0787 14.2786L12.2741 14.3211L12.3268 14.0786H12.0787V14.2786ZM12.0752 14.2943L12.2699 14.3404L12.2706 14.3368L12.0752 14.2943ZM11.6102 15.4116L11.4409 15.3052L11.7796 15.5179L11.6102 15.4116ZM12.0753 14.2942L12.2699 14.3403L12.2707 14.3367L12.0753 14.2942ZM1.27417 12.344L1.4541 12.4314L1.4541 12.4314L1.27417 12.344ZM1.12696 12.7307L0.932955 12.6821L1.32095 12.7794L1.12696 12.7307ZM1.81162 11.4208L1.98172 11.526L1.98172 11.526L1.81162 11.4208ZM1.82424 11.4004L1.99435 11.5056L1.99435 11.5056L1.82424 11.4004ZM2.34838 10.5528L2.51848 10.658L2.51857 10.6579L2.34838 10.5528ZM2.37455 10.5104L2.54474 10.6155L2.54503 10.615L2.37455 10.5104ZM2.84209 9.59296L3.02692 9.66938L2.65727 9.51653L2.84209 9.59296ZM2.37458 10.5104L2.54468 10.6155L2.54506 10.6149L2.37458 10.5104ZM1.81164 11.4207L1.98174 11.5259L1.98175 11.5259L1.81164 11.4207ZM1.2742 12.3439L1.45412 12.4313L1.45412 12.4313L1.2742 12.3439ZM3.29247 7.83916L3.49115 7.86209L3.49117 7.86192L3.29247 7.83916ZM3.28942 7.86557L3.09072 7.84281L3.4881 7.8885L3.28942 7.86557ZM3.4132 6.78498L3.6119 6.80774L3.21449 6.76222L3.4132 6.78498ZM15.715 10.4654L15.5445 10.5699L15.5448 10.5704L15.715 10.4654ZM15.741 10.5075L15.5708 10.6125L15.5709 10.6127L15.741 10.5075ZM14.8149 7.87817L14.6163 7.9011L14.6163 7.90166L14.8149 7.87817ZM14.8093 7.82928L14.6106 7.85204L14.6106 7.85222L14.8093 7.82928ZM14.581 5.83563L14.3823 5.85839L14.3823 5.85839L14.581 5.83563ZM3.4307 5.83563L3.6294 5.85839L3.6294 5.85839L3.4307 5.83563ZM3.20238 7.82936L3.40106 7.85229L3.40108 7.85212L3.20238 7.82936ZM3.19673 7.87829L3.39535 7.90178L3.39541 7.90122L3.19673 7.87829ZM2.29666 10.4654L2.46685 10.5704L2.46714 10.5699L2.29666 10.4654ZM2.27061 10.5076L2.44071 10.6128L2.4408 10.6126L2.27061 10.5076ZM1.73149 11.3794L1.56132 11.2741L1.55851 11.279L1.73149 11.3794ZM1.73148 11.3794L1.90164 11.4846L1.90445 11.4798L1.73148 11.3794ZM1.19216 12.3065L1.01224 12.2191L1.01224 12.2191L1.19216 12.3065ZM1.01352 13.1783L1.21092 13.1462L1.21092 13.1462L1.01352 13.1783ZM1.51539 14.0383L1.64147 13.8831L1.64147 13.8831L1.51539 14.0383ZM2.37782 14.3382L2.35839 14.5373L2.35839 14.5373L2.37782 14.3382ZM3.47471 14.3665L3.47471 14.1665L3.47471 14.1665L3.47471 14.3665ZM5.86088 14.3665L6.05485 14.3178L6.01683 14.1665H5.86088V14.3665ZM6.98698 16.2349L7.11813 16.0839L7.11813 16.0839L6.98698 16.2349ZM11.0247 16.2349L11.1558 16.3859L11.1558 16.3859L11.0247 16.2349ZM12.1508 14.3665V14.1665H11.9949L11.9568 14.3178L12.1508 14.3665ZM14.537 14.3665L14.537 14.1665H14.537V14.3665ZM15.6339 14.3382L15.6533 14.5373L15.6533 14.5373L15.6339 14.3382ZM16.4963 14.0383L16.3702 13.8831L16.3702 13.8831L16.4963 14.0383ZM16.9982 13.1783L17.1956 13.2104L17.1956 13.2104L16.9982 13.1783ZM16.8195 12.3065L16.6396 12.3938L16.6396 12.3938L16.8195 12.3065ZM16.2803 11.3796L16.11 11.4844L16.1102 11.4847L16.2803 11.3796ZM16.2803 11.3795L16.4506 11.2747L16.4504 11.2744L16.2803 11.3795ZM16.2778 11.3755L16.448 11.2704L16.4479 11.2703L16.2778 11.3755ZM13.7279 7.94594L13.5292 7.9687L13.5292 7.96889L13.7279 7.94594ZM13.4995 5.95222L13.6982 5.92946L13.4995 5.95222ZM13.7339 7.99853L13.5352 8.02147L13.5353 8.02202L13.7339 7.99853ZM14.7801 11.0055L14.6096 11.11L14.6099 11.1105L14.7801 11.0055ZM14.808 11.0507L14.6378 11.1557L14.6379 11.1559L14.808 11.0507ZM15.3321 11.8982L15.5022 11.793L15.5022 11.793L15.3321 11.8982ZM15.8351 12.7563L15.6552 12.8436L15.6552 12.8436L15.8351 12.7563ZM15.9164 12.9628L16.1107 12.9153L16.1107 12.9153L15.9164 12.9628ZM15.9234 13.0038L16.1232 12.9949L16.123 12.9913L15.9234 13.0038ZM15.9236 13.0075L16.1238 13.009L16.1234 12.9986L15.9236 13.0075ZM15.9235 13.0117L16.1228 13.0287L16.1235 13.021L16.1235 13.0133L15.9235 13.0117ZM15.9234 13.0138L16.1208 13.0459L16.122 13.0383L16.1226 13.0307L15.9234 13.0138ZM15.7975 13.2291L15.9099 13.3945L15.917 13.3897L15.9236 13.3843L15.7975 13.2291ZM15.7962 13.23L15.8991 13.4018L15.9086 13.3954L15.7962 13.23ZM15.7931 13.2318L15.8871 13.4086L15.8958 13.4034L15.7931 13.2318ZM15.7891 13.2339L15.8792 13.4125L15.883 13.4105L15.7891 13.2339ZM15.7493 13.2492L15.8082 13.4403L15.8082 13.4403L15.7493 13.2492ZM15.5249 13.2878L15.5055 13.0888L15.5055 13.0888L15.5249 13.2878ZM2.48675 13.2878L2.50618 13.0888L2.50617 13.0888L2.48675 13.2878ZM2.26238 13.2492L2.32125 13.058L2.32125 13.058L2.26238 13.2492ZM2.2226 13.2339L2.13242 13.4125L2.13246 13.4125L2.2226 13.2339ZM2.21549 13.23L2.10099 13.3941L2.10699 13.398L2.21549 13.23ZM2.21379 13.2288L2.0877 13.384L2.09337 13.3886L2.09936 13.3928L2.21379 13.2288ZM2.08826 13.0133L1.88879 13.0278L1.88943 13.0367L1.89085 13.0454L2.08826 13.0133ZM2.08814 13.0117L1.88831 13.0213L1.88867 13.0263L2.08814 13.0117ZM2.08828 13.0038L1.88867 12.9913L1.88866 12.9913L2.08828 13.0038ZM2.09529 12.9628L2.28956 13.0104L2.28956 13.0104L2.09529 12.9628ZM2.17655 12.7563L2.35648 12.8436L2.35648 12.8436L2.17655 12.7563ZM2.67955 11.8982L2.84966 12.0034L2.84966 12.0034L2.67955 11.8982ZM3.2317 11.0053L3.40181 11.1104L3.40218 11.1098L3.2317 11.0053ZM4.27778 7.99829L4.4764 8.02178L4.47648 8.02105L4.27778 7.99829ZM4.51215 5.95222L4.71085 5.97498L4.71085 5.97497L4.51215 5.95222ZM2.15559 13.2962L2.28167 13.141L2.28167 13.141L2.15559 13.2962ZM1.99875 13.0275L1.80134 13.0596L1.80135 13.0596L1.99875 13.0275ZM2.47767 13.3754L2.45824 13.5744L2.45824 13.5744L2.47767 13.3754ZM15.534 13.3754L15.5534 13.5744L15.5534 13.5744L15.534 13.3754ZM15.8561 13.2962L15.9822 13.4515L15.9822 13.4515L15.8561 13.2962ZM15.9054 13.2496L16.0535 13.384L15.7573 13.1152L15.9054 13.2496ZM15.856 13.2963L15.9821 13.4516L15.9821 13.4516L15.856 13.2963ZM15.5339 13.3754L15.5145 13.1764L15.5145 13.1764L15.5339 13.3754ZM2.47764 13.3754L2.49707 13.1764L2.49707 13.1764L2.47764 13.3754ZM2.15556 13.2963L2.28165 13.1411L2.28164 13.1411L2.15556 13.2963ZM1.99873 13.0276L2.19613 12.9955L2.19613 12.9955L1.99873 13.0276ZM2.00319 12.9598L2.19919 12.9996L1.8072 12.9199L2.00319 12.9598ZM3.95289 9.15081L3.76072 9.0954L4.14505 9.20623L3.95289 9.15081ZM4.18767 7.9885L4.38629 8.01199L4.38637 8.01126L4.18767 7.9885ZM4.19052 7.96361L4.38922 7.98637L3.99184 7.94067L4.19052 7.96361ZM4.18764 7.98858L4.38625 8.01207L4.38632 8.01152L4.18764 7.98858ZM4.31061 6.91515L4.11191 6.8924L4.50931 6.93791L4.31061 6.91515ZM4.42203 5.9425L4.62073 5.96526L4.62073 5.96526L4.42203 5.9425ZM4.7178 4.78708L4.90296 4.86268L4.53264 4.71147L4.7178 4.78708ZM4.42199 5.94259L4.22329 5.91983L4.22329 5.91983L4.42199 5.94259ZM6.86919 14.2786L7.0605 14.2203L7.01731 14.0786H6.86919V14.2786ZM6.86912 14.2786V14.0786H6.59907L6.67781 14.337L6.86912 14.2786ZM7.65221 15.514L7.78336 15.363L7.78336 15.363L7.65221 15.514ZM10.3594 15.514L10.2282 15.363L10.2282 15.363L10.3594 15.514ZM10.6778 15.1785L10.8351 15.3021L10.5206 15.0549L10.6778 15.1785ZM10.3594 15.5139L10.2283 15.3629L10.2283 15.3629L10.3594 15.5139ZM7.65226 15.5139L7.78341 15.3629L7.7834 15.3629L7.65226 15.5139ZM6.89751 14.3665L6.70814 14.4309L6.70814 14.4309L6.89751 14.3665ZM6.99314 14.3665V14.1665H6.71089L6.80445 14.4328L6.99314 14.3665ZM7.71273 15.4484L7.84388 15.2974L7.84388 15.2974L7.71273 15.4484ZM11.0185 14.3665L11.2072 14.4328L11.3008 14.1665H11.0185V14.3665ZM10.2989 15.4484L10.1678 15.2974L10.1678 15.2974L10.2989 15.4484ZM16.0274 11.5216L16.0274 11.5217L16.3729 11.3201L16.3729 11.3201L16.0274 11.5216ZM15.467 10.6155L16.03 11.526L16.3702 11.3157L15.8072 10.4052L15.467 10.6155ZM14.5262 7.91169C14.6393 8.86745 14.9599 9.7888 15.4666 10.6149L15.8076 10.4058C15.3309 9.62861 15.0297 8.76253 14.9235 7.86471L14.5262 7.91169ZM14.2922 5.86811L14.5261 7.91096L14.9236 7.86544L14.6896 5.82259L14.2922 5.86811ZM9.00584 1.28215C11.7211 1.28215 13.9937 3.26209 14.2922 5.8681L14.6896 5.82259C14.3669 3.00521 11.9148 0.882147 9.00584 0.882147V1.28215ZM3.99559 4.70419C4.73414 2.69499 6.71289 1.28215 9.00584 1.28215V0.882147C6.54787 0.882147 4.41748 2.39709 3.62016 4.56618L3.99559 4.70419ZM9.00579 0.882233C6.54786 0.882233 4.4175 2.39714 3.62016 4.56618L3.99559 4.70419C4.73416 2.69504 6.71288 1.28223 9.00579 1.28223V0.882233ZM14.6895 5.82268C14.3668 3.0053 11.9147 0.882233 9.00579 0.882233V1.28223C11.721 1.28223 13.9936 3.26217 14.2921 5.86819L14.6895 5.82268ZM14.9178 7.81641L14.6895 5.82268L14.2921 5.86819L14.5204 7.86192L14.9178 7.81641ZM14.9235 7.86535L14.9178 7.81623L14.5204 7.86209L14.5261 7.91122L14.9235 7.86535ZM15.8075 10.4059C15.3308 9.62869 15.0296 8.76262 14.9234 7.86479L14.5262 7.91178C14.6392 8.86754 14.9598 9.78888 15.4665 10.615L15.8075 10.4059ZM15.8334 10.4478L15.8072 10.4054L15.4668 10.6155L15.493 10.6579L15.8334 10.4478ZM16.3574 11.2952L15.8333 10.4477L15.4931 10.658L16.0172 11.5056L16.3574 11.2952ZM16.3701 11.3157L16.3574 11.2952L16.0172 11.5056L16.0299 11.5261L16.3701 11.3157ZM16.3715 11.318L16.3715 11.318L16.0285 11.5238L16.0285 11.5238L16.3715 11.318ZM16.3701 11.3157L16.3701 11.3157L16.03 11.5262L16.03 11.5263L16.3701 11.3157ZM16.9173 12.2567C16.7896 11.9936 16.5951 11.6795 16.3702 11.3158L16.03 11.5262C16.2591 11.8967 16.4407 12.1908 16.5575 12.4314L16.9173 12.2567ZM17.1059 13.1968C17.1635 12.8428 17.0457 12.5212 16.9173 12.2567L16.5575 12.4314C16.6759 12.6753 16.7483 12.9037 16.7111 13.1326L17.1059 13.1968ZM16.7795 13.9129C16.9493 13.7078 17.0629 13.4613 17.1059 13.1968L16.7111 13.1326C16.6797 13.3256 16.5967 13.5065 16.4714 13.6579L16.7795 13.9129ZM16.7112 13.1325C16.6798 13.3256 16.5967 13.5065 16.4714 13.6579L16.7795 13.913C16.9493 13.7078 17.063 13.4613 17.106 13.1967L16.7112 13.1325ZM16.5576 12.4313C16.676 12.6752 16.7484 12.9036 16.7112 13.1325L17.106 13.1967C17.1636 12.8427 17.0458 12.5211 16.9174 12.2566L16.5576 12.4313ZM16.03 11.5261C16.2591 11.8966 16.4408 12.1908 16.5576 12.4313L16.9174 12.2566C16.7897 11.9935 16.5952 11.6794 16.3702 11.3157L16.03 11.5261ZM12.0786 14.4786H12.0787V14.0786H12.0786V14.4786ZM12.2706 14.3368L12.274 14.3211L11.8832 14.2361L11.8798 14.2518L12.2706 14.3368ZM11.7796 15.5179C12.0043 15.16 12.1702 14.7613 12.2698 14.3404L11.8806 14.2482C11.7908 14.6276 11.6416 14.9855 11.4409 15.3052L11.7796 15.5179ZM11.8806 14.2481C11.7908 14.6276 11.6416 14.9854 11.4409 15.3052L11.7796 15.5179C12.0043 15.16 12.1702 14.7613 12.2699 14.3403L11.8806 14.2481ZM11.8832 14.2361L11.8798 14.2517L12.2707 14.3367L12.2741 14.3211L11.8832 14.2361ZM1.09425 12.2567C1.0309 12.3872 0.971075 12.53 0.932958 12.6821L1.32095 12.7794C1.34977 12.6644 1.39696 12.5491 1.4541 12.4314L1.09425 12.2567ZM1.64152 11.3156C1.41654 11.6794 1.222 11.9935 1.09425 12.2567L1.4541 12.4314C1.57088 12.1908 1.75254 11.8966 1.98172 11.526L1.64152 11.3156ZM1.65414 11.2952L1.64152 11.3156L1.98172 11.526L1.99435 11.5056L1.65414 11.2952ZM2.17827 10.4477L1.65414 11.2952L1.99435 11.5056L2.51848 10.658L2.17827 10.4477ZM2.20436 10.4054L2.17818 10.4478L2.51857 10.6579L2.54474 10.6155L2.20436 10.4054ZM2.65727 9.51653C2.53051 9.82307 2.37913 10.1205 2.20407 10.4059L2.54503 10.615C2.73111 10.3116 2.89209 9.99543 3.02692 9.66938L2.65727 9.51653ZM2.54506 10.6149C2.73112 10.3116 2.89209 9.99541 3.02691 9.66939L2.65727 9.51653C2.53052 9.82304 2.37914 10.1204 2.20409 10.4058L2.54506 10.6149ZM1.98175 11.5259L2.54468 10.6155L2.20447 10.4052L1.64154 11.3156L1.98175 11.5259ZM1.45412 12.4313C1.5709 12.1907 1.75257 11.8965 1.98174 11.5259L1.64154 11.3155C1.41656 11.6793 1.22202 11.9934 1.09427 12.2566L1.45412 12.4313ZM1.32096 12.7793C1.34977 12.6644 1.39697 12.549 1.45412 12.4313L1.09427 12.2566C1.03091 12.3872 0.971071 12.53 0.932955 12.6821L1.32096 12.7793ZM3.09379 7.81623L3.09074 7.84263L3.4881 7.8885L3.49115 7.86209L3.09379 7.81623ZM3.21449 6.76223L3.09377 7.81641L3.49117 7.86192L3.6119 6.80774L3.21449 6.76223ZM3.48812 7.88833L3.6119 6.80774L3.21449 6.76222L3.09072 7.84281L3.48812 7.88833ZM15.5448 10.5704L15.5708 10.6125L15.9112 10.4025L15.8852 10.3603L15.5448 10.5704ZM14.6163 7.90166C14.7279 8.84507 15.0444 9.75449 15.5445 10.5699L15.8855 10.3608C15.4154 9.5943 15.1183 8.74014 15.0135 7.85468L14.6163 7.90166ZM14.6106 7.85222L14.6163 7.9011L15.0136 7.85524L15.008 7.80635L14.6106 7.85222ZM14.3823 5.85839L14.6106 7.85204L15.008 7.80653L14.7797 5.81288L14.3823 5.85839ZM9.00584 1.19417C11.7673 1.19417 14.0787 3.20782 14.3823 5.85839L14.7797 5.81288C14.4519 2.95095 11.961 0.794171 9.00584 0.794171V1.19417ZM3.6294 5.85839C3.93295 3.20782 6.24441 1.19417 9.00584 1.19417V0.794171C6.05069 0.794171 3.55975 2.95094 3.232 5.81288L3.6294 5.85839ZM3.40108 7.85212L3.6294 5.85839L3.232 5.81288L3.00368 7.80661L3.40108 7.85212ZM3.39541 7.90122L3.40106 7.85229L3.0037 7.80643L2.99805 7.85536L3.39541 7.90122ZM2.46714 10.5699C2.96729 9.75453 3.28376 8.84515 3.39535 7.90178L2.99812 7.85479C2.89338 8.74022 2.5963 9.59433 2.12617 10.3608L2.46714 10.5699ZM2.4408 10.6126L2.46685 10.5704L2.12646 10.3603L2.10042 10.4025L2.4408 10.6126ZM1.90159 11.4845L2.44071 10.6128L2.10051 10.4024L1.56139 11.2742L1.90159 11.4845ZM1.90445 11.4798L1.90447 11.4797L1.55851 11.279L1.5585 11.279L1.90445 11.4798ZM1.37209 12.3938C1.49082 12.1492 1.67441 11.8519 1.90157 11.4846L1.56138 11.2742C1.33832 11.6349 1.14192 11.952 1.01224 12.2191L1.37209 12.3938ZM1.21092 13.1462C1.16935 12.8906 1.25147 12.6423 1.37209 12.3938L1.01224 12.2191C0.881646 12.4882 0.754205 12.8297 0.81611 13.2104L1.21092 13.1462ZM1.64147 13.8831C1.40988 13.695 1.25756 13.433 1.21092 13.1462L0.816109 13.2104C0.878789 13.5958 1.08304 13.9448 1.3893 14.1936L1.64147 13.8831ZM2.39726 14.1392C2.1146 14.1116 1.84911 14.0517 1.64147 13.8831L1.3893 14.1936C1.69076 14.4384 2.05441 14.5076 2.35839 14.5373L2.39726 14.1392ZM3.47471 14.1665C3.03346 14.1665 2.6754 14.1663 2.39725 14.1392L2.35839 14.5373C2.66036 14.5668 3.04088 14.5665 3.47472 14.5665L3.47471 14.1665ZM5.86088 14.1665H3.47471V14.5665H5.86088V14.1665ZM7.11813 16.0839C6.59839 15.6325 6.2292 15.0114 6.05485 14.3178L5.66692 14.4153C5.85978 15.1825 6.2699 15.877 6.85583 16.3859L7.11813 16.0839ZM9.00584 16.8058C8.31476 16.8058 7.65157 16.5473 7.11813 16.0839L6.85583 16.3859C7.45796 16.9089 8.2131 17.2058 9.00584 17.2058V16.8058ZM10.8935 16.0839C10.3601 16.5473 9.69692 16.8058 9.00584 16.8058V17.2058C9.79858 17.2058 10.5537 16.9089 11.1558 16.3859L10.8935 16.0839ZM11.9568 14.3178C11.7825 15.0114 11.4133 15.6325 10.8935 16.0839L11.1558 16.3859C11.7418 15.877 12.1519 15.1825 12.3448 14.4153L11.9568 14.3178ZM14.537 14.1665H12.1508V14.5665H14.537V14.1665ZM15.6144 14.1392C15.3363 14.1663 14.9782 14.1665 14.537 14.1665L14.537 14.5665C14.9708 14.5665 15.3513 14.5668 15.6533 14.5373L15.6144 14.1392ZM16.3702 13.8831C16.1626 14.0517 15.8971 14.1116 15.6144 14.1392L15.6533 14.5373C15.9573 14.5076 16.3209 14.4384 16.6224 14.1936L16.3702 13.8831ZM16.8008 13.1462C16.7541 13.433 16.6018 13.695 16.3702 13.8831L16.6224 14.1936C16.9286 13.9448 17.1329 13.5958 17.1956 13.2104L16.8008 13.1462ZM16.6396 12.3938C16.7602 12.6423 16.8423 12.8906 16.8008 13.1462L17.1956 13.2104C17.2575 12.8297 17.13 12.4882 16.9994 12.2191L16.6396 12.3938ZM16.1102 11.4847C16.3373 11.852 16.5209 12.1492 16.6396 12.3938L16.9994 12.2191C16.8698 11.952 16.6734 11.635 16.4504 11.2744L16.1102 11.4847ZM16.1099 11.4843L16.11 11.4844L16.4506 11.2747L16.4506 11.2747L16.1099 11.4843ZM16.1077 11.4806L16.1101 11.4846L16.4504 11.2744L16.448 11.2704L16.1077 11.4806ZM15.5709 10.6127L16.1077 11.4807L16.4479 11.2703L15.9111 10.4023L15.5709 10.6127ZM13.9266 7.92319L13.6982 5.92946L13.3008 5.97497L13.5292 7.9687L13.9266 7.92319ZM13.9326 7.97558L13.9265 7.923L13.5292 7.96889L13.5352 8.02147L13.9326 7.97558ZM14.9506 10.9009C14.4018 10.0061 14.0548 9.00878 13.9325 7.97503L13.5353 8.02202C13.6644 9.11372 14.0308 10.1663 14.6096 11.11L14.9506 10.9009ZM14.9782 10.9456L14.9503 10.9004L14.6099 11.1105L14.6378 11.1557L14.9782 10.9456ZM15.5022 11.793L14.9781 10.9455L14.6379 11.1559L15.162 12.0034L15.5022 11.793ZM16.015 12.6689C15.9115 12.4555 15.7438 12.1836 15.5022 11.793L15.162 12.0034C15.4084 12.4018 15.5627 12.653 15.6552 12.8436L16.015 12.6689ZM16.1107 12.9153C16.0964 12.857 16.068 12.7781 16.015 12.6689L15.6552 12.8436C15.7005 12.9369 15.7167 12.9882 15.7221 13.0104L16.1107 12.9153ZM16.123 12.9913C16.1217 12.9697 16.1178 12.9447 16.1107 12.9153L15.7221 13.0104C15.7247 13.0209 15.7242 13.0221 15.7238 13.0162L16.123 12.9913ZM16.1234 12.9986L16.1232 12.9949L15.7236 13.0127L15.7238 13.0164L16.1234 12.9986ZM16.1235 13.0133L16.1236 13.009L15.7236 13.0059L15.7235 13.0102L16.1235 13.0133ZM16.1226 13.0307L16.1228 13.0287L15.7243 12.9948L15.7241 12.9968L16.1226 13.0307ZM15.9236 13.3843C16.0279 13.2996 16.099 13.1795 16.1208 13.0459L15.726 12.9817C15.7204 13.016 15.7016 13.0493 15.6714 13.0738L15.9236 13.3843ZM15.9086 13.3954L15.9099 13.3945L15.6851 13.0637L15.6838 13.0645L15.9086 13.3954ZM15.8958 13.4034L15.8989 13.4016L15.6935 13.0583L15.6903 13.0602L15.8958 13.4034ZM15.883 13.4105L15.887 13.4084L15.6991 13.0553L15.6951 13.0574L15.883 13.4105ZM15.8082 13.4403C15.8371 13.4314 15.8603 13.422 15.8792 13.4125L15.699 13.0554C15.7035 13.0531 15.7017 13.0545 15.6904 13.058L15.8082 13.4403ZM15.5444 13.4869C15.6674 13.4749 15.7507 13.458 15.8082 13.4403L15.6904 13.058C15.6667 13.0653 15.6118 13.0784 15.5055 13.0888L15.5444 13.4869ZM14.5078 13.5108C14.9776 13.5108 15.3033 13.5104 15.5444 13.4869L15.5055 13.0888C15.2886 13.1099 14.9863 13.1108 14.5078 13.1108V13.5108ZM3.50389 13.5108H14.5078V13.1108H3.50389V13.5108ZM2.46731 13.4869C2.70835 13.5104 3.03411 13.5108 3.50389 13.5108V13.1108C3.02535 13.1108 2.72308 13.1099 2.50618 13.0888L2.46731 13.4869ZM2.20351 13.4403C2.26101 13.458 2.34425 13.4749 2.46732 13.4869L2.50617 13.0888C2.39985 13.0784 2.34495 13.0653 2.32125 13.058L2.20351 13.4403ZM2.13246 13.4125C2.15136 13.422 2.17456 13.4314 2.20351 13.4403L2.32125 13.058C2.30994 13.0545 2.30821 13.0531 2.31274 13.0554L2.13246 13.4125ZM2.10699 13.398C2.11452 13.4028 2.12294 13.4077 2.13242 13.4125L2.31278 13.0554C2.31513 13.0566 2.31901 13.0587 2.32399 13.0619L2.10699 13.398ZM2.09936 13.3928L2.10106 13.394L2.32992 13.0659L2.32821 13.0647L2.09936 13.3928ZM1.89085 13.0454C1.91249 13.1784 1.98289 13.2989 2.0877 13.384L2.33987 13.0735C2.31022 13.0494 2.29136 13.0162 2.28566 12.9812L1.89085 13.0454ZM1.88867 13.0263L1.88879 13.0278L2.28773 12.9987L2.28762 12.9972L1.88867 13.0263ZM1.88866 12.9913C1.88799 13.0021 1.88793 13.0121 1.88838 13.0213L2.28791 13.0021C2.28821 13.0084 2.28808 13.0132 2.28789 13.0162L1.88866 12.9913ZM1.90102 12.9153C1.89383 12.9447 1.89002 12.9697 1.88867 12.9913L2.28789 13.0162C2.28752 13.0221 2.28699 13.0209 2.28956 13.0104L1.90102 12.9153ZM1.99663 12.6689C1.94367 12.7781 1.91528 12.857 1.90102 12.9153L2.28956 13.0104C2.29497 12.9882 2.31122 12.9369 2.35648 12.8436L1.99663 12.6689ZM2.50945 11.793C2.26792 12.1836 2.10023 12.4555 1.99663 12.6689L2.35648 12.8436C2.44898 12.653 2.60328 12.4018 2.84966 12.0034L2.50945 11.793ZM3.06159 10.9001L2.50945 11.793L2.84966 12.0034L3.40181 11.1104L3.06159 10.9001ZM4.07916 7.9748C3.9569 9.00856 3.61003 10.0059 3.06122 10.9007L3.40218 11.1098C3.98104 10.1661 4.34728 9.11347 4.4764 8.02178L4.07916 7.9748ZM4.31345 5.92946L4.07908 7.97553L4.47648 8.02105L4.71085 5.97498L4.31345 5.92946ZM9.00584 1.84988C6.60513 1.84988 4.57996 3.60218 4.31344 5.92946L4.71085 5.97497C4.95316 3.85905 6.79885 2.24988 9.00584 2.24988V1.84988ZM13.6982 5.92946C13.4317 3.60218 11.4066 1.84988 9.00584 1.84988V2.24988C11.2128 2.24988 13.0585 3.85905 13.3008 5.97497L13.6982 5.92946ZM2.28167 13.141C2.23497 13.103 2.20522 13.0511 2.19616 12.9954L1.80135 13.0596C1.82645 13.2139 1.90812 13.3529 2.0295 13.4515L2.28167 13.141ZM2.4971 13.1763C2.26999 13.1541 2.25393 13.1184 2.28167 13.141L2.0295 13.4515C2.09605 13.5055 2.21091 13.5503 2.45824 13.5744L2.4971 13.1763ZM3.50389 13.1988C3.02741 13.1988 2.71964 13.198 2.4971 13.1763L2.45824 13.5744C2.70489 13.5985 3.03612 13.5988 3.50389 13.5988V13.1988ZM14.5078 13.1988H3.50389V13.5988H14.5078V13.1988ZM15.5146 13.1763C15.292 13.198 14.9843 13.1988 14.5078 13.1988V13.5988C14.9756 13.5988 15.3068 13.5985 15.5534 13.5744L15.5146 13.1763ZM15.73 13.141C15.7578 13.1184 15.7417 13.1541 15.5146 13.1763L15.5534 13.5744C15.8008 13.5503 15.9156 13.5055 15.9822 13.4515L15.73 13.141ZM15.7573 13.1152C15.749 13.1243 15.7399 13.133 15.73 13.141L15.9822 13.4515C16.0077 13.4307 16.0316 13.4081 16.0535 13.384L15.7573 13.1152ZM15.7572 13.1152C15.7489 13.1244 15.7398 13.133 15.7299 13.1411L15.9821 13.4516C16.0077 13.4308 16.0316 13.4082 16.0535 13.384L15.7572 13.1152ZM15.7299 13.1411C15.7577 13.1185 15.7416 13.1542 15.5145 13.1764L15.5534 13.5745C15.8007 13.5504 15.9156 13.5056 15.9821 13.4516L15.7299 13.1411ZM15.5145 13.1764C15.292 13.1981 14.9842 13.1989 14.5077 13.1989V13.5989C14.9755 13.5989 15.3067 13.5986 15.5534 13.5745L15.5145 13.1764ZM14.5077 13.1989H3.50386V13.5989H14.5077V13.1989ZM3.50386 13.1989C3.02738 13.1989 2.71961 13.1981 2.49707 13.1764L2.45821 13.5745C2.70487 13.5986 3.03609 13.5989 3.50386 13.5989V13.1989ZM2.49707 13.1764C2.26996 13.1542 2.2539 13.1185 2.28165 13.1411L2.02948 13.4516C2.09602 13.5056 2.21088 13.5504 2.45821 13.5745L2.49707 13.1764ZM2.28164 13.1411C2.23494 13.1031 2.20519 13.0512 2.19613 12.9955L1.80132 13.0597C1.82642 13.214 1.9081 13.353 2.02948 13.4516L2.28164 13.1411ZM2.19613 12.9955C2.19739 13.0032 2.19745 13.0086 2.19737 13.0107C2.19732 13.0122 2.1973 13.0089 2.19918 12.9996L1.8072 12.9199C1.79578 12.9761 1.79505 13.0211 1.80132 13.0597L2.19613 12.9955ZM2.19616 12.9954C2.19741 13.0031 2.19747 13.0085 2.19739 13.0105C2.19734 13.0121 2.19731 13.0088 2.19919 12.9996L1.80719 12.92C1.79579 12.9761 1.79509 13.0211 1.80134 13.0596L2.19616 12.9954ZM4.14505 9.20623C4.25758 8.81601 4.33842 8.41672 4.38628 8.01199L3.98905 7.965C3.94375 8.34804 3.86724 8.72598 3.76072 9.0954L4.14505 9.20623ZM4.38637 8.01126L4.38922 7.98637L3.99182 7.94085L3.98897 7.96574L4.38637 8.01126ZM4.38632 8.01152L4.3892 7.98655L3.99184 7.94067L3.98896 7.96564L4.38632 8.01152ZM4.14506 9.20623C4.25757 8.81603 4.33839 8.41677 4.38625 8.01207L3.98902 7.96509C3.94372 8.3481 3.86723 8.72602 3.76072 9.0954L4.14506 9.20623ZM4.50931 6.93791L4.62073 5.96526L4.22332 5.91974L4.11191 6.89239L4.50931 6.93791ZM4.62073 5.96526C4.665 5.57869 4.76151 5.20911 4.90296 4.86268L4.53264 4.71148C4.37757 5.09125 4.27181 5.49636 4.22332 5.91974L4.62073 5.96526ZM4.62069 5.96534C4.66497 5.57875 4.76149 5.20914 4.90295 4.86269L4.53264 4.71147C4.37755 5.09127 4.27178 5.49642 4.22329 5.91983L4.62069 5.96534ZM4.50932 6.93791L4.62069 5.96534L4.22329 5.91983L4.11191 6.8924L4.50932 6.93791ZM6.86919 14.0786H6.86912V14.4786H6.86919V14.0786ZM6.67781 14.337C6.83952 14.8675 7.13419 15.329 7.52106 15.665L7.78336 15.363C7.45706 15.0796 7.20178 14.684 7.06043 14.2203L6.67781 14.337ZM7.52106 15.665C7.95327 16.0404 8.47544 16.2382 9.00579 16.2382V15.8382C8.57696 15.8382 8.14677 15.6787 7.78336 15.363L7.52106 15.665ZM9.00579 16.2382C9.53613 16.2382 10.0583 16.0404 10.4905 15.665L10.2282 15.363C9.86481 15.6787 9.43462 15.8382 9.00579 15.8382V16.2382ZM10.4905 15.665C10.6155 15.5564 10.7308 15.4348 10.8351 15.3021L10.5206 15.0549C10.4314 15.1684 10.3335 15.2716 10.2282 15.363L10.4905 15.665ZM10.4906 15.6649C10.6155 15.5564 10.7308 15.4348 10.8351 15.3021L10.5206 15.0549C10.4315 15.1684 10.3335 15.2715 10.2283 15.3629L10.4906 15.6649ZM9.00584 16.2381C9.53619 16.2381 10.0584 16.0403 10.4906 15.6649L10.2283 15.3629C9.86486 15.6786 9.43467 15.8381 9.00584 15.8381V16.2381ZM7.5211 15.6649C7.95331 16.0403 8.47549 16.2381 9.00584 16.2381V15.8381C8.57701 15.8381 8.14682 15.6786 7.78341 15.3629L7.5211 15.6649ZM6.70814 14.4309C6.87494 14.9218 7.15723 15.3489 7.52111 15.6649L7.7834 15.3629C7.47654 15.0964 7.23245 14.7307 7.08688 14.3022L6.70814 14.4309ZM6.67788 14.337C6.6875 14.3685 6.69759 14.3998 6.70814 14.4309L7.08688 14.3022C7.07769 14.2751 7.06889 14.2478 7.0605 14.2203L6.67788 14.337ZM6.80445 14.4328C6.96782 14.8978 7.2377 15.3007 7.58158 15.5994L7.84388 15.2974C7.55585 15.0472 7.32375 14.7042 7.18183 14.3002L6.80445 14.4328ZM11.0185 14.1665H6.99314V14.5665H11.0185V14.1665ZM10.4301 15.5994C10.774 15.3007 11.0439 14.8978 11.2072 14.4328L10.8298 14.3002C10.6879 14.7042 10.4558 15.0472 10.1678 15.2974L10.4301 15.5994ZM9.00584 16.1501C9.51235 16.1501 10.0133 15.9613 10.4301 15.5994L10.1678 15.2974C9.81986 15.5996 9.41085 15.7501 9.00584 15.7501V16.1501ZM7.58158 15.5994C7.99833 15.9613 8.49933 16.1501 9.00584 16.1501V15.7501C8.60083 15.7501 8.19182 15.5996 7.84388 15.2974L7.58158 15.5994Z" fill="#596E7C" mask="url(#path-1-outside-1_47_796)"/>
</svg>
