<svg width="8" height="8" viewBox="0 0 8 8" fill="none" xmlns="http://www.w3.org/2000/svg">
<path fill-rule="evenodd" clip-rule="evenodd" d="M7.49331 -4.42967e-08L2.11899 -5.14134e-07C1.83915 -5.38598e-07 1.6123 0.226854 1.6123 0.506694C1.6123 0.786534 1.83915 1.01339 2.11899 1.01339L6.27004 1.01339L0.148408 7.13502C-0.0494687 7.3329 -0.0494687 7.65372 0.148408 7.85159C0.346284 8.04947 0.667106 8.04947 0.864983 7.85159L6.98661 1.72996L6.98661 5.88101C6.98661 6.16085 7.21346 6.3877 7.4933 6.3877C7.77314 6.3877 8 6.16085 8 5.88101L8 0.506695C8 0.226855 7.77315 -1.98323e-08 7.49331 -4.42967e-08Z" fill="#55B685"/>
</svg>
