<svg width="18" height="18" viewBox="0 0 18 18" fill="none" xmlns="http://www.w3.org/2000/svg">
<mask id="path-1-outside-1_47_61" maskUnits="userSpaceOnUse" x="0" y="-0.0058136" width="18" height="18" fill="black">
<rect fill="white" y="-0.0058136" width="18" height="18"/>
<path fill-rule="evenodd" clip-rule="evenodd" d="M8.97275 5.56823C10.136 5.56823 11.0821 4.5425 11.0821 3.28121C11.0821 2.01992 10.136 0.994186 8.97275 0.994186C7.80947 0.994186 6.86345 2.01992 6.86345 3.28121C6.86345 4.5425 7.80989 5.56823 8.97275 5.56823ZM8.97275 1.45899C9.89797 1.45899 10.6509 2.27533 10.6509 3.2785C10.6509 4.28167 9.89797 5.09801 8.97275 5.09801C8.04754 5.09801 7.29463 4.28167 7.29463 3.2785C7.29463 2.27533 8.04754 1.45899 8.97275 1.45899ZM5.60277 4.04927C5.60277 5.04251 4.85693 5.85118 3.94088 5.85118C3.02482 5.85118 2.27898 5.04251 2.27898 4.04927C2.27898 3.05603 3.02482 2.24736 3.94088 2.24736C4.85693 2.24736 5.60277 3.05603 5.60277 4.04927ZM5.17158 4.05198C5.17158 3.31641 4.61928 2.71758 3.94088 2.71758C3.26247 2.71758 2.71017 3.31686 2.71267 4.05198C2.71267 4.78754 3.26247 5.38637 3.94088 5.38637C4.61928 5.38637 5.17158 4.78754 5.17158 4.05198ZM15.7323 4.04927C15.7323 5.04251 14.9864 5.85118 14.0704 5.85118C13.1543 5.85118 12.4085 5.04251 12.4085 4.04927C12.4085 3.05603 13.1543 2.24736 14.0704 2.24736C14.9864 2.24736 15.7323 3.05603 15.7323 4.04927ZM15.3011 4.05198C15.3011 3.31641 14.7488 2.71758 14.0704 2.71758C13.392 2.71758 12.8422 3.31641 12.8422 4.05198C12.8422 4.78754 13.392 5.38637 14.0704 5.38637C14.7488 5.38637 15.3011 4.78754 15.3011 4.05198ZM12.9912 7.31938H15.1496V7.31983C16.1776 7.31983 17.0117 8.22688 17.0117 9.3388V12.7932C17.0117 13.9074 16.1776 14.8122 15.1496 14.8122H12.9912C12.9142 14.8122 12.8372 14.8073 12.7627 14.7946V14.9869C12.7627 16.101 11.9286 17.0058 10.9006 17.0058H7.04782C6.02272 17.0058 5.18574 16.1015 5.18574 14.9869V14.7946C5.16422 14.7965 5.14307 14.7995 5.12202 14.8026C5.08812 14.8074 5.0545 14.8122 5.02009 14.8122H2.86208C1.83448 14.8122 1 13.9079 1 12.7932V9.3388C1 8.22462 1.83448 7.31983 2.86208 7.31983H5.02009C5.3955 7.31983 5.73804 7.44844 6.02938 7.65828C6.32072 7.4507 6.66991 7.32705 7.04532 7.32705H10.8981C11.2897 7.32705 11.651 7.45837 11.9494 7.68085C12.2478 7.45837 12.602 7.31938 12.9912 7.31938ZM2.86208 14.347H5.02009V14.3465C5.07295 14.3465 5.12323 14.3397 5.17371 14.3329L5.18324 14.3316V9.34828C5.18324 8.81533 5.37885 8.33518 5.68892 7.97372C5.49081 7.85503 5.26232 7.78689 5.02009 7.78689H2.86208C2.07213 7.78689 1.43118 8.48184 1.43118 9.33835V12.7955C1.43118 13.652 2.07422 14.347 2.86208 14.347ZM10.9006 16.5406C11.6905 16.5406 12.3315 15.8456 12.3315 14.9891H12.3294V9.34873C12.3294 8.49222 11.6864 7.79727 10.8985 7.79727H7.04574C6.25579 7.79727 5.61484 8.49222 5.61484 9.34873V14.9891C5.61484 15.8456 6.25579 16.5406 7.04574 16.5406H10.9006ZM15.1496 14.347C15.9395 14.347 16.5805 13.652 16.5805 12.7955H16.5809H16.583V9.34106C16.583 8.48455 15.942 7.7896 15.1521 7.7896H12.9937C12.7323 7.7896 12.4901 7.87038 12.2803 8.0044C12.5762 8.36045 12.7627 8.83067 12.7627 9.34873V14.3244C12.8372 14.3393 12.9121 14.347 12.9912 14.347H15.1496Z"/>
</mask>
<path fill-rule="evenodd" clip-rule="evenodd" d="M8.97275 5.56823C10.136 5.56823 11.0821 4.5425 11.0821 3.28121C11.0821 2.01992 10.136 0.994186 8.97275 0.994186C7.80947 0.994186 6.86345 2.01992 6.86345 3.28121C6.86345 4.5425 7.80989 5.56823 8.97275 5.56823ZM8.97275 1.45899C9.89797 1.45899 10.6509 2.27533 10.6509 3.2785C10.6509 4.28167 9.89797 5.09801 8.97275 5.09801C8.04754 5.09801 7.29463 4.28167 7.29463 3.2785C7.29463 2.27533 8.04754 1.45899 8.97275 1.45899ZM5.60277 4.04927C5.60277 5.04251 4.85693 5.85118 3.94088 5.85118C3.02482 5.85118 2.27898 5.04251 2.27898 4.04927C2.27898 3.05603 3.02482 2.24736 3.94088 2.24736C4.85693 2.24736 5.60277 3.05603 5.60277 4.04927ZM5.17158 4.05198C5.17158 3.31641 4.61928 2.71758 3.94088 2.71758C3.26247 2.71758 2.71017 3.31686 2.71267 4.05198C2.71267 4.78754 3.26247 5.38637 3.94088 5.38637C4.61928 5.38637 5.17158 4.78754 5.17158 4.05198ZM15.7323 4.04927C15.7323 5.04251 14.9864 5.85118 14.0704 5.85118C13.1543 5.85118 12.4085 5.04251 12.4085 4.04927C12.4085 3.05603 13.1543 2.24736 14.0704 2.24736C14.9864 2.24736 15.7323 3.05603 15.7323 4.04927ZM15.3011 4.05198C15.3011 3.31641 14.7488 2.71758 14.0704 2.71758C13.392 2.71758 12.8422 3.31641 12.8422 4.05198C12.8422 4.78754 13.392 5.38637 14.0704 5.38637C14.7488 5.38637 15.3011 4.78754 15.3011 4.05198ZM12.9912 7.31938H15.1496V7.31983C16.1776 7.31983 17.0117 8.22688 17.0117 9.3388V12.7932C17.0117 13.9074 16.1776 14.8122 15.1496 14.8122H12.9912C12.9142 14.8122 12.8372 14.8073 12.7627 14.7946V14.9869C12.7627 16.101 11.9286 17.0058 10.9006 17.0058H7.04782C6.02272 17.0058 5.18574 16.1015 5.18574 14.9869V14.7946C5.16422 14.7965 5.14307 14.7995 5.12202 14.8026C5.08812 14.8074 5.0545 14.8122 5.02009 14.8122H2.86208C1.83448 14.8122 1 13.9079 1 12.7932V9.3388C1 8.22462 1.83448 7.31983 2.86208 7.31983H5.02009C5.3955 7.31983 5.73804 7.44844 6.02938 7.65828C6.32072 7.4507 6.66991 7.32705 7.04532 7.32705H10.8981C11.2897 7.32705 11.651 7.45837 11.9494 7.68085C12.2478 7.45837 12.602 7.31938 12.9912 7.31938ZM2.86208 14.347H5.02009V14.3465C5.07295 14.3465 5.12323 14.3397 5.17371 14.3329L5.18324 14.3316V9.34828C5.18324 8.81533 5.37885 8.33518 5.68892 7.97372C5.49081 7.85503 5.26232 7.78689 5.02009 7.78689H2.86208C2.07213 7.78689 1.43118 8.48184 1.43118 9.33835V12.7955C1.43118 13.652 2.07422 14.347 2.86208 14.347ZM10.9006 16.5406C11.6905 16.5406 12.3315 15.8456 12.3315 14.9891H12.3294V9.34873C12.3294 8.49222 11.6864 7.79727 10.8985 7.79727H7.04574C6.25579 7.79727 5.61484 8.49222 5.61484 9.34873V14.9891C5.61484 15.8456 6.25579 16.5406 7.04574 16.5406H10.9006ZM15.1496 14.347C15.9395 14.347 16.5805 13.652 16.5805 12.7955H16.5809H16.583V9.34106C16.583 8.48455 15.942 7.7896 15.1521 7.7896H12.9937C12.7323 7.7896 12.4901 7.87038 12.2803 8.0044C12.5762 8.36045 12.7627 8.83067 12.7627 9.34873V14.3244C12.8372 14.3393 12.9121 14.347 12.9912 14.347H15.1496Z" fill="#596E7C"/>
<path d="M2.71267 4.05198L3.11267 4.05198L3.11266 4.05062L2.71267 4.05198ZM15.1496 7.31938H15.5496V6.91938H15.1496V7.31938ZM15.1496 7.31983H14.7496V7.71983H15.1496V7.31983ZM12.7627 14.7946L12.8296 14.4003L12.3627 14.3211V14.7946H12.7627ZM5.18574 14.7946H5.58574V14.3577L5.15052 14.3962L5.18574 14.7946ZM5.12202 14.8026L5.17867 15.1985L5.17867 15.1985L5.12202 14.8026ZM6.02938 7.65828L5.7956 7.98286L6.02812 8.15033L6.26149 7.98405L6.02938 7.65828ZM11.9494 7.68085L11.7103 8.00153L11.9494 8.17977L12.1885 8.00153L11.9494 7.68085ZM5.02009 14.347V14.747H5.42009V14.347H5.02009ZM5.02009 14.3465V13.9465H4.62009V14.3465H5.02009ZM5.17371 14.3329L5.12023 13.9365L5.12018 13.9365L5.17371 14.3329ZM5.18324 14.3316L5.23672 14.728L5.58324 14.6813V14.3316H5.18324ZM5.68892 7.97372L5.99253 8.23415L6.30125 7.87426L5.89449 7.63058L5.68892 7.97372ZM12.3315 14.9891H12.7315V14.5891H12.3315V14.9891ZM12.3294 14.9891H11.9294V15.3891H12.3294V14.9891ZM16.5805 12.7955V12.3955H16.1805V12.7955H16.5805ZM16.583 12.7955V13.1955H16.983V12.7955H16.583ZM12.2803 8.0044L12.0649 7.66733L11.6829 7.91142L11.9727 8.26008L12.2803 8.0044ZM12.7627 14.3244H12.3627V14.6524L12.6843 14.7166L12.7627 14.3244ZM10.6821 3.28121C10.6821 4.35266 9.88527 5.16823 8.97275 5.16823V5.96823C10.3868 5.96823 11.4821 4.73233 11.4821 3.28121H10.6821ZM8.97275 1.39419C9.88527 1.39419 10.6821 2.20975 10.6821 3.28121H11.4821C11.4821 1.83008 10.3868 0.594186 8.97275 0.594186V1.39419ZM7.26345 3.28121C7.26345 2.20975 8.06023 1.39419 8.97275 1.39419V0.594186C7.55871 0.594186 6.46345 1.83008 6.46345 3.28121H7.26345ZM8.97275 5.16823C8.0606 5.16823 7.26345 4.35261 7.26345 3.28121H6.46345C6.46345 4.73239 7.55917 5.96823 8.97275 5.96823V5.16823ZM11.0509 3.2785C11.0509 2.0855 10.1487 1.05899 8.97275 1.05899V1.85899C9.64721 1.85899 10.2509 2.46517 10.2509 3.2785H11.0509ZM8.97275 5.49801C10.1487 5.49801 11.0509 4.4715 11.0509 3.2785H10.2509C10.2509 4.09183 9.64721 4.69801 8.97275 4.69801V5.49801ZM6.89463 3.2785C6.89463 4.4715 7.79678 5.49801 8.97275 5.49801V4.69801C8.2983 4.69801 7.69463 4.09183 7.69463 3.2785H6.89463ZM8.97275 1.05899C7.79678 1.05899 6.89463 2.0855 6.89463 3.2785H7.69463C7.69463 2.46517 8.2983 1.85899 8.97275 1.85899V1.05899ZM3.94088 6.25118C5.1077 6.25118 6.00277 5.23234 6.00277 4.04927H5.20277C5.20277 4.85267 4.60617 5.45118 3.94088 5.45118V6.25118ZM1.87898 4.04927C1.87898 5.23234 2.77405 6.25118 3.94088 6.25118V5.45118C3.27558 5.45118 2.67898 4.85267 2.67898 4.04927H1.87898ZM3.94088 1.84736C2.77405 1.84736 1.87898 2.8662 1.87898 4.04927H2.67898C2.67898 3.24587 3.27558 2.64736 3.94088 2.64736V1.84736ZM6.00277 4.04927C6.00277 2.8662 5.1077 1.84736 3.94088 1.84736V2.64736C4.60617 2.64736 5.20277 3.24587 5.20277 4.04927H6.00277ZM3.94088 3.11758C4.36852 3.11758 4.77158 3.50625 4.77158 4.05198H5.57158C5.57158 3.12658 4.87005 2.31758 3.94088 2.31758V3.11758ZM3.11266 4.05062C3.11081 3.50651 3.51317 3.11758 3.94088 3.11758V2.31758C3.01176 2.31758 2.30952 3.12722 2.31267 4.05334L3.11266 4.05062ZM3.94088 4.98637C3.51424 4.98637 3.11267 4.5988 3.11267 4.05198H2.31267C2.31267 4.97628 3.01069 5.78637 3.94088 5.78637V4.98637ZM4.77158 4.05198C4.77158 4.59771 4.36852 4.98637 3.94088 4.98637V5.78637C4.87005 5.78637 5.57158 4.97738 5.57158 4.05198H4.77158ZM14.0704 6.25118C15.2372 6.25118 16.1323 5.23234 16.1323 4.04927H15.3323C15.3323 4.85267 14.7357 5.45118 14.0704 5.45118V6.25118ZM12.0085 4.04927C12.0085 5.23234 12.9036 6.25118 14.0704 6.25118V5.45118C13.4051 5.45118 12.8085 4.85267 12.8085 4.04927H12.0085ZM14.0704 1.84736C12.9036 1.84736 12.0085 2.8662 12.0085 4.04927H12.8085C12.8085 3.24587 13.4051 2.64736 14.0704 2.64736V1.84736ZM16.1323 4.04927C16.1323 2.8662 15.2372 1.84736 14.0704 1.84736V2.64736C14.7357 2.64736 15.3323 3.24587 15.3323 4.04927H16.1323ZM14.0704 3.11758C14.498 3.11758 14.9011 3.50625 14.9011 4.05198H15.7011C15.7011 3.12658 14.9996 2.31758 14.0704 2.31758V3.11758ZM13.2422 4.05198C13.2422 3.50515 13.6438 3.11758 14.0704 3.11758V2.31758C13.1402 2.31758 12.4422 3.12767 12.4422 4.05198H13.2422ZM14.0704 4.98637C13.6438 4.98637 13.2422 4.5988 13.2422 4.05198H12.4422C12.4422 4.97628 13.1402 5.78637 14.0704 5.78637V4.98637ZM14.9011 4.05198C14.9011 4.59771 14.498 4.98637 14.0704 4.98637V5.78637C14.9996 5.78637 15.7011 4.97738 15.7011 4.05198H14.9011ZM15.1496 6.91938H12.9912V7.71938H15.1496V6.91938ZM15.5496 7.31983V7.31938H14.7496V7.31983H15.5496ZM17.4117 9.3388C17.4117 8.03741 16.4287 6.91983 15.1496 6.91983V7.71983C15.9265 7.71983 16.6117 8.41635 16.6117 9.3388H17.4117ZM17.4117 12.7932V9.3388H16.6117V12.7932H17.4117ZM15.1496 15.2122C16.4284 15.2122 17.4117 14.0972 17.4117 12.7932H16.6117C16.6117 13.7177 15.9268 14.4122 15.1496 14.4122V15.2122ZM12.9912 15.2122H15.1496V14.4122H12.9912V15.2122ZM12.6958 15.189C12.7975 15.2062 12.8976 15.2122 12.9912 15.2122V14.4122C12.9308 14.4122 12.8769 14.4083 12.8296 14.4003L12.6958 15.189ZM13.1627 14.9869V14.7946H12.3627V14.9869H13.1627ZM10.9006 17.4058C12.1794 17.4058 13.1627 16.2908 13.1627 14.9869H12.3627C12.3627 15.9113 11.6778 16.6058 10.9006 16.6058V17.4058ZM7.04782 17.4058H10.9006V16.6058H7.04782V17.4058ZM4.78574 14.9869C4.78574 16.2917 5.77234 17.4058 7.04782 17.4058V16.6058C6.27309 16.6058 5.58574 15.9112 5.58574 14.9869H4.78574ZM4.78574 14.7946V14.9869H5.58574V14.7946H4.78574ZM5.17867 15.1985C5.20139 15.1953 5.21194 15.1939 5.22095 15.1931L5.15052 14.3962C5.1165 14.3992 5.08474 14.4038 5.06537 14.4066L5.17867 15.1985ZM5.02009 15.2122C5.08765 15.2122 5.14932 15.2027 5.17867 15.1985L5.06537 14.4066C5.04723 14.4092 5.03743 14.4105 5.02879 14.4115C5.02103 14.4123 5.0189 14.4122 5.02009 14.4122V15.2122ZM2.86208 15.2122H5.02009V14.4122H2.86208V15.2122ZM0.6 12.7932C0.6 14.0978 1.58378 15.2122 2.86208 15.2122V14.4122C2.08519 14.4122 1.4 13.718 1.4 12.7932H0.6ZM0.6 9.3388V12.7932H1.4V9.3388H0.6ZM2.86208 6.91983C1.58372 6.91983 0.6 8.03479 0.6 9.3388H1.4C1.4 8.41446 2.08525 7.71983 2.86208 7.71983V6.91983ZM5.02009 6.91983H2.86208V7.71983H5.02009V6.91983ZM6.26315 7.33371C5.91338 7.08178 5.49057 6.91983 5.02009 6.91983V7.71983C5.30043 7.71983 5.56269 7.81511 5.7956 7.98286L6.26315 7.33371ZM7.04532 6.92705C6.58005 6.92705 6.15075 7.08065 5.79726 7.33251L6.26149 7.98405C6.49069 7.82074 6.75977 7.72705 7.04532 7.72705V6.92705ZM10.8981 6.92705H7.04532V7.72705H10.8981V6.92705ZM12.1885 7.36016C11.8258 7.08977 11.3817 6.92705 10.8981 6.92705V7.72705C11.1978 7.72705 11.4762 7.82698 11.7103 8.00153L12.1885 7.36016ZM12.9912 6.91938C12.5029 6.91938 12.0667 7.09451 11.7103 7.36016L12.1885 8.00153C12.429 7.82223 12.7011 7.71938 12.9912 7.71938V6.91938ZM5.02009 13.947H2.86208V14.747H5.02009V13.947ZM4.62009 14.3465V14.347H5.42009V14.3465H4.62009ZM5.12018 13.9365C5.066 13.9438 5.04185 13.9465 5.02009 13.9465V14.7465C5.10405 14.7465 5.18046 14.7356 5.22724 14.7293L5.12018 13.9365ZM5.12976 13.9352L5.12023 13.9365L5.22719 14.7293L5.23672 14.728L5.12976 13.9352ZM4.78324 9.34828V14.3316H5.58324V9.34828H4.78324ZM5.38532 7.71328C5.01566 8.14421 4.78324 8.71585 4.78324 9.34828H5.58324C5.58324 8.91481 5.74204 8.52615 5.99253 8.23415L5.38532 7.71328ZM5.02009 8.18689C5.1861 8.18689 5.34401 8.23337 5.48336 8.31686L5.89449 7.63058C5.63762 7.4767 5.33853 7.38689 5.02009 7.38689V8.18689ZM2.86208 8.18689H5.02009V7.38689H2.86208V8.18689ZM1.83118 9.33835C1.83118 8.67168 2.3229 8.18689 2.86208 8.18689V7.38689C1.82137 7.38689 1.03118 8.29201 1.03118 9.33835H1.83118ZM1.83118 12.7955V9.33835H1.03118V12.7955H1.83118ZM2.86208 13.947C2.32462 13.947 1.83118 13.4618 1.83118 12.7955H1.03118C1.03118 13.8422 1.82381 14.747 2.86208 14.747V13.947ZM11.9315 14.9891C11.9315 15.6558 11.4398 16.1406 10.9006 16.1406V16.9406C11.9413 16.9406 12.7315 16.0355 12.7315 14.9891H11.9315ZM12.3294 15.3891H12.3315V14.5891H12.3294V15.3891ZM11.9294 9.34873V14.9891H12.7294V9.34873H11.9294ZM10.8985 8.19727C11.436 8.19727 11.9294 8.68245 11.9294 9.34873H12.7294C12.7294 8.302 11.9368 7.39727 10.8985 7.39727V8.19727ZM7.04574 8.19727H10.8985V7.39727H7.04574V8.19727ZM6.01484 9.34873C6.01484 8.68206 6.50655 8.19727 7.04574 8.19727V7.39727C6.00503 7.39727 5.21484 8.30239 5.21484 9.34873H6.01484ZM6.01484 14.9891V9.34873H5.21484V14.9891H6.01484ZM7.04574 16.1406C6.50655 16.1406 6.01484 15.6558 6.01484 14.9891H5.21484C5.21484 16.0355 6.00503 16.9406 7.04574 16.9406V16.1406ZM10.9006 16.1406H7.04574V16.9406H10.9006V16.1406ZM16.1805 12.7955C16.1805 13.4622 15.6888 13.947 15.1496 13.947V14.747C16.1903 14.747 16.9805 13.8418 16.9805 12.7955H16.1805ZM16.5809 12.3955H16.5805V13.1955H16.5809V12.3955ZM16.583 12.3955H16.5809V13.1955H16.583V12.3955ZM16.183 9.34106V12.7955H16.983V9.34106H16.183ZM15.1521 8.1896C15.6913 8.1896 16.183 8.67439 16.183 9.34106H16.983C16.983 8.29472 16.1928 7.3896 15.1521 7.3896V8.1896ZM12.9937 8.1896H15.1521V7.3896H12.9937V8.1896ZM12.4957 8.34148C12.6487 8.24372 12.8171 8.1896 12.9937 8.1896V7.3896C12.6475 7.3896 12.3315 7.49704 12.0649 7.66733L12.4957 8.34148ZM13.1627 9.34873C13.1627 8.73367 12.9412 8.17378 12.5879 7.74873L11.9727 8.26008C12.2113 8.54713 12.3627 8.92768 12.3627 9.34873H13.1627ZM13.1627 14.3244V9.34873H12.3627V14.3244H13.1627ZM12.9912 13.947C12.9388 13.947 12.8901 13.942 12.8411 13.9322L12.6843 14.7166C12.7842 14.7366 12.8854 14.747 12.9912 14.747V13.947ZM15.1496 13.947H12.9912V14.747H15.1496V13.947Z" fill="#596E7C" mask="url(#path-1-outside-1_47_61)"/>
</svg>
