<svg width="14" height="14" viewBox="0 0 14 14" fill="none" xmlns="http://www.w3.org/2000/svg">
<path fill-rule="evenodd" clip-rule="evenodd" d="M1.39997 6.35502C0.58435 6.67535 0 7.53963 0 8.55556C0 9.57149 0.58435 10.4358 1.39997 10.7561L1.39997 13.2222C1.39997 13.6518 1.71337 14 2.09997 14C2.48657 14 2.79997 13.6518 2.79997 13.2222L2.79997 10.7561C3.61562 10.4358 4.2 9.57152 4.2 8.55556C4.2 7.53961 3.61562 6.67531 2.79997 6.355L2.79997 0.777789C2.79997 0.348236 2.48656 1.52588e-05 2.09997 1.52588e-05C1.71337 1.52588e-05 1.39997 0.348236 1.39997 0.777789L1.39997 6.35502ZM11.9 14C11.5134 14 11.2 13.6518 11.2 13.2222L11.2 11.6667C11.2 11.6227 11.2033 11.5795 11.2096 11.5375C10.3889 11.2202 9.8 10.3531 9.8 9.33323C9.8 8.31333 10.3889 7.44626 11.2096 7.12896C11.2033 7.08701 11.2 7.04392 11.2 6.99998L11.2 0.777789C11.2 0.348236 11.5134 1.52588e-05 11.9 1.52588e-05C12.2866 1.52588e-05 12.6 0.348236 12.6 0.777789L12.6 6.99998C12.6 7.04391 12.5967 7.08699 12.5904 7.12894C13.411 7.44622 14 8.3133 14 9.33323C14 10.3532 13.411 11.2203 12.5904 11.5375C12.5967 11.5795 12.6 11.6227 12.6 11.6667L12.6 13.2222C12.6 13.6518 12.2866 14 11.9 14ZM4.89996 4.66669C4.89996 3.65073 5.48435 2.78642 6.30001 2.46612V0.777789C6.30001 0.348236 6.61341 1.52588e-05 7.00001 1.52588e-05C7.38661 1.52588e-05 7.70001 0.348237 7.70001 0.777789V2.46616C8.51562 2.78649 9.09996 3.65077 9.09996 4.66669C9.09996 5.6866 8.51103 6.55366 7.69041 6.87096C7.69672 6.91294 7.70001 6.95605 7.70001 7.00002L7.70001 13.2222C7.70001 13.6518 7.38661 14 7.00001 14C6.61341 14 6.30001 13.6518 6.30001 13.2222L6.30001 7.00002C6.30001 6.95606 6.30329 6.91296 6.30959 6.871C5.48893 6.55372 4.89996 5.68663 4.89996 4.66669ZM1.4 8.55556C1.4 8.12601 1.7134 7.77779 2.1 7.77779C2.4866 7.77779 2.8 8.12601 2.8 8.55556C2.8 8.98512 2.4866 9.33334 2.1 9.33334C1.7134 9.33334 1.4 8.98512 1.4 8.55556ZM6.99996 3.88892C6.61336 3.88892 6.29996 4.23714 6.29996 4.66669C6.29996 5.09625 6.61336 5.44447 6.99996 5.44447C7.38656 5.44447 7.69996 5.09625 7.69996 4.66669C7.69996 4.23714 7.38656 3.88892 6.99996 3.88892ZM11.2 9.33323C11.2 8.90368 11.5134 8.55546 11.9 8.55546C12.2866 8.55546 12.6 8.90368 12.6 9.33323C12.6 9.76279 12.2866 10.111 11.9 10.111C11.5134 10.111 11.2 9.76279 11.2 9.33323Z" fill="#596E7C"/>
</svg>
