<svg width="12" height="12" viewBox="0 0 12 12" fill="none" xmlns="http://www.w3.org/2000/svg">
<path fill-rule="evenodd" clip-rule="evenodd" d="M12 4.5883H11.2941V1.20508L8.36722 4.13198C8.22939 4.26981 8.00592 4.26981 7.86809 4.13198C7.73025 3.99415 7.73025 3.77068 7.86809 3.63285L10.795 0.705943H7.41177V6.10352e-05H12V4.5883ZM0 12H4.58824V11.2941H1.20502L4.13192 8.36717C4.26975 8.22934 4.26975 8.00587 4.13192 7.86804C3.99409 7.7302 3.77062 7.7302 3.63279 7.86804L0.705882 10.7949V7.41172H0V12ZM7.41177 12H12V7.41172H11.2941V10.7949L8.36722 7.86804C8.22939 7.7302 8.00592 7.7302 7.86809 7.86804C7.73025 8.00587 7.73025 8.22934 7.86809 8.36717L10.795 11.2941H7.41177V12ZM0.705882 4.5883V1.20508L3.63279 4.13198C3.77062 4.26981 3.99409 4.26981 4.13192 4.13198C4.26975 3.99415 4.26975 3.77068 4.13192 3.63285L1.20502 0.705943H4.58824V6.10352e-05H0V4.5883H0.705882Z" fill="#596E7C"/>
</svg>
