<svg width="11" height="10" viewBox="0 0 11 10" fill="none" xmlns="http://www.w3.org/2000/svg">
<path fill-rule="evenodd" clip-rule="evenodd" d="M10.8 5C10.8 7.76142 8.56141 10 5.79999 10C3.03856 10 0.799988 7.76142 0.799988 5C0.799988 2.23858 3.03856 0 5.79999 0C8.56141 0 10.8 2.23858 10.8 5ZM6.35554 2.77778C6.35554 3.0846 6.10681 3.33333 5.79999 3.33333C5.49316 3.33333 5.24443 3.0846 5.24443 2.77778C5.24443 2.47095 5.49316 2.22222 5.79999 2.22222C6.10681 2.22222 6.35554 2.47095 6.35554 2.77778ZM6.35554 7.77778V4.44444H5.24443V7.77778H6.35554Z" fill="#8E9AA2"/>
</svg>
