<svg width="18" height="18" viewBox="0 0 18 18" fill="none" xmlns="http://www.w3.org/2000/svg">
<path d="M6.98554 1.67947L6.89016 1.5637C6.46376 1.91502 6.15182 2.38942 6.03126 2.93266H1.96246C1.3415 2.93266 0.851876 3.48367 0.851876 4.1269V9.97128C0.849375 9.99815 0.849375 10.0251 0.851876 10.0519V15.9616C0.851876 16.6048 1.3415 17.1558 1.96246 17.1558H16.0511C16.6721 17.1558 17.1617 16.6048 17.1617 15.9616V10.0116V10.0115V10.0115V10.0114V10.0114V10.0113V10.0112V10.0112V10.0111V10.011V10.011V10.0109V10.0108V10.0108V10.0107V10.0107V10.0106V10.0105V10.0105V10.0104V10.0103V10.0103V10.0102V10.0101V10.0101V10.01V10.01V10.0099V10.0098V10.0098V10.0097V10.0096V10.0096V10.0095V10.0094V10.0094V10.0093V10.0093V10.0092V10.0091V10.0091V10.009V10.0089V10.0089V10.0088V10.0087V10.0087V10.0086V10.0086V10.0085V10.0084V10.0084V10.0083V10.0082V10.0082V10.0081V10.008V10.008V10.0079V10.0079V10.0078V10.0077V10.0077V10.0076V10.0075V10.0075V10.0074V10.0073V10.0073V10.0072V10.0072V10.0071V10.007V10.007V10.0069V10.0068V10.0068V10.0067V10.0066V10.0066V10.0065V10.0064V10.0064V10.0063V10.0063V10.0062V10.0061V10.0061V10.006V10.0059V10.0059V10.0058V10.0057V10.0057V10.0056V10.0056V10.0055V10.0054V10.0054V10.0053V10.0052V10.0052V10.0051V10.005V10.005V10.0049V10.0049V10.0048V10.0047V10.0047V10.0046V10.0045V10.0045V10.0044V10.0043V10.0043V10.0042V10.0042V10.0041V10.004V10.004V10.0039V10.0038V10.0038V10.0037V10.0036V10.0036V10.0035V10.0035V10.0034V10.0033V10.0033V10.0032V10.0031V10.0031V10.003V10.0029V10.0029V10.0028V10.0028V10.0027V10.0026V10.0026V10.0025V10.0024V10.0024V10.0023V10.0022V10.0022V10.0021V10.0021V10.002V10.0019V10.0019V10.0018V10.0017V10.0017V10.0016V10.0015V10.0015V10.0014V10.0014V10.0013V10.0012V10.0012V10.0011V10.001V10.001V10.0009V10.0008V10.0008V10.0007V10.0006V10.0006V10.0005V10.0005V10.0004V10.0003V10.0003V10.0002V10.0001V10.0001V10V9.99995V9.99988V9.99982V9.99976V9.99969V9.99963V9.99957V9.9995V9.99944V9.99937V9.99931V9.99925V9.99918V9.99912V9.99906V9.99899V9.99893V9.99887V9.9988V9.99874V9.99867V9.99861V9.99855V9.99848V9.99842V9.99835V9.99829V9.99823V9.99816V9.9981V9.99804V9.99797V9.99791V9.99784V9.99778V9.99772V9.99765V9.99759V9.99753V9.99746V9.9974V9.99734V9.99727V9.99721V9.99714V9.99708V9.99702V9.99695V9.99689V9.99683V9.99676V9.9967V9.99663V9.99657V9.99651V9.99644V9.99638V9.99632V9.99625V9.99619V9.99612V9.99606V9.996V9.99593V9.99587V9.99581V9.99574V9.99568V9.99561V9.99555V9.99549V9.99542V9.99536V9.9953V9.99523V9.99517V9.9951V9.99504V9.99498V9.99491V9.99485V9.99479V9.99472V9.99466V9.99459V9.99453V9.99447V9.9944V9.99434V9.99428V9.99421V9.99415V9.99408V9.99402V9.99396V9.99389V9.99383V9.99377V9.9937V9.99364V9.99358V9.99351V9.99345V9.99338V9.99332V9.99326V9.99319V9.99313V9.99306V9.993V9.99294V9.99287V9.99281V9.99275V9.99268V9.99262V9.99255V9.99249V9.99243V9.99236V9.9923V9.99224V9.99217V9.99211V9.99205V9.99198V9.99192V9.99185V9.99179V9.99173V9.99166V9.9916V9.99154V9.99147V9.99141V9.99134V9.99128V9.99122V9.99115V9.99109V9.99102V9.99096V9.9909V9.99083V9.99077V9.99071V9.99064V9.99058V9.99052V9.99045V9.99039V9.99032V9.99026V9.9902V9.99013V9.99007V9.99001V9.98994V9.98988V9.98981V9.98975V9.98969V9.98962V9.98956V9.9895V9.98943V9.98937V9.9893V9.98924V9.98918V9.98911V9.98905V9.98899V9.98892V9.98886V9.98879V9.98873V9.98867V9.9886V9.98854V9.98848V9.98841V9.98835V9.98829V9.98822V9.98816V9.98809V9.98803V9.98797V9.9879V9.98784V9.98777V9.98771V9.98765V9.98758V9.98752V9.98746V9.98739V9.98733V9.98726V9.9872V9.98714V9.98707V9.98701V9.98695V9.98688V9.98682V9.98676V9.98669V9.98663V9.98656V9.9865V9.98644V9.98637V9.98631V9.98625V9.98618V9.98612V9.98605V9.98599V9.98593V9.98586V9.9858V9.98573V9.98567V9.98561V9.98554V9.98548V9.98542V9.98535V9.98529V9.98523V9.98516V9.9851V9.98503V9.98497V9.98491V9.98484V9.98478V9.98472V9.98465V9.98459V9.98452V9.98446V9.9844V9.98433V9.98427V9.98421V9.98414V9.98408V9.98401V9.98395V9.98389V9.98382V9.98376V9.9837V9.98363V9.98357V9.9835V9.98344V9.98338V9.98331V9.98325V9.98319V9.98312V9.98306V9.983V9.98293V9.98287V9.9828V9.98274V9.98268V9.98261V9.98255V9.98248V9.98242V9.98236V9.98229V9.98223V9.98217V9.9821V9.98204V9.98197V9.98191V9.98185V9.98178V9.98172V9.98166V9.98159V9.98153V9.98147V9.9814V9.98134V9.98127V9.98121V9.98115V9.98108V9.98102V9.98096V9.98089V9.98083V9.98076V9.9807V9.98064V9.98057V9.98051V9.98044V9.98038V9.98032V9.98025V9.98019V9.98013V9.98006V9.98V9.97994V9.97987V9.97981V9.97974V9.97968V9.97962V9.97955V9.97949V9.97943V9.97936V9.9793V9.97923V9.97917V9.97911V9.97904V9.97898V4.1269C17.1617 3.48367 16.6721 2.93266 16.0511 2.93266H11.9823C11.8617 2.38942 11.5498 1.91502 11.1234 1.5637L11.028 1.67947L11.1236 1.56384C10.5729 1.10877 9.83041 0.844186 9.00678 0.844186C8.18315 0.844186 7.44065 1.10877 6.88999 1.56384L6.98554 1.67947ZM6.98554 1.67947C6.55152 2.03706 6.24634 2.52655 6.15503 3.08266L6.98554 1.67947ZM10.5423 2.34994C10.177 2.04863 9.64104 1.84034 9.00678 1.84034C8.37252 1.84034 7.83654 2.04863 7.47124 2.34992L10.5423 2.34994ZM10.5423 2.34994C10.7544 2.52536 10.9075 2.72103 10.999 2.93266M10.5423 2.34994L10.999 2.93266M10.999 2.93266H7.01457M10.999 2.93266H7.01457M7.01457 2.93266C7.10609 2.72103 7.25912 2.52536 7.47122 2.34994L7.01457 2.93266ZM16.0511 3.92882C16.1381 3.92882 16.2213 4.00055 16.2213 4.1269V9.97337C16.22 9.99184 16.22 10.0096 16.2213 10.0281V10.0442C16.2213 10.1706 16.1381 10.2423 16.0511 10.2423H10.7488C10.6798 9.66574 10.2192 9.19809 9.64717 9.19809H8.36639C7.79432 9.19809 7.33372 9.66574 7.26473 10.2423H1.96246C1.87707 10.2423 1.79529 10.1732 1.79235 10.0511C1.79477 10.0245 1.79474 9.99785 1.79227 9.97128V4.1269C1.79227 4.00055 1.87549 3.92882 1.96246 3.92882H16.0511ZM9.64717 10.1942C9.73414 10.1942 9.81737 10.266 9.81737 10.3923V10.6751V10.6752V10.6753V10.6753V10.6754V10.6755V10.6755V10.6756V10.6756V10.6757V10.6758V10.6758V10.6759V10.676V10.676V10.6761V10.6762V10.6762V10.6763V10.6763V10.6764V10.6765V10.6765V10.6766V10.6767V10.6767V10.6768V10.6769V10.6769V10.677V10.677V10.6771V10.6772V10.6772V10.6773V10.6774V10.6774V10.6775V10.6776V10.6776V10.6777V10.6778V10.6778V10.6779V10.6779V10.678V10.6781V10.6781V10.6782V10.6783V10.6783V10.6784V10.6785V10.6785V10.6786V10.6786V10.6787V10.6788V10.6788V10.6789V10.679V10.679V10.6791V10.6792V10.6792V10.6793V10.6793V10.6794V10.6795V10.6795V10.6796V10.6797V10.6797V10.6798V10.6799V10.6799V10.68V10.68V10.6801V10.6802V10.6802V10.6803V10.6804V10.6804V10.6805V10.6806V10.6806V10.6807V10.6807V10.6808V10.6809V10.6809V10.681V10.6811V10.6811V10.6812V10.6813V10.6813V10.6814V10.6814V10.6815V10.6816V10.6816V10.6817V10.6818V10.6818V10.6819V10.682V10.682V10.6821V10.6821V10.6822V10.6823V10.6823V10.6824V10.6825V10.6825V10.6826V10.6827V10.6827V10.6828V10.6828V10.6829V10.683V10.683V10.6831V10.6832V10.6832V10.6833V10.6834V10.6834V10.6835V10.6836V10.6836V10.6837V10.6837V10.6838V10.6839V10.6839V10.684V10.6841V10.6841V10.6842V10.6843V10.6843V10.6844V10.6844V10.6845V10.6846V10.6846V10.6847V10.6848V10.6848V10.6849V10.685V10.685V10.6851V10.6851V10.6852V10.6853V10.6853V10.6854V10.6855V10.6855V10.6856V10.6857V10.6857V10.6858V10.6858V10.6859V10.686V10.686V10.6861V10.6862V10.6862V10.6863V10.6864V10.6864V10.6865V10.6865V10.6866V10.6867V10.6867V10.6868V10.6869V10.6869V10.687V10.6871V10.6871V10.6872V10.6872V10.6873V10.6874V10.6874V10.6875V10.6876V10.6876V10.6877V10.6878V10.6878V10.6879V10.6879V10.688V10.6881V10.6881V10.6882V10.6883V10.6883V10.6884V10.6885V10.6885V10.6886V10.6886V10.6887V10.6888V10.6888V10.6889V10.689V10.689V10.6891V10.6892V10.6892V10.6893V10.6894V10.6894V10.6895V10.6895V10.6896V10.6897V10.6897V10.6898V10.6899V10.6899V10.69V10.6901V10.6901V10.6902V10.6902V10.6903V10.6904V10.6904V10.6905V10.6906V10.6906V10.6907V10.6908V10.6908V10.6909V10.6909V10.691V10.6911V10.6911V10.6912V10.6913V10.6913V10.6914V10.6915V10.6915V10.6916V10.6916V10.6917V10.6918V10.6918V10.6919V10.692V10.692V10.6921V10.6922V10.6922V10.6923V10.6923V10.6924V10.6925V10.6925V10.6926V10.6927V10.6927V10.6928V10.6929V10.6929V10.693V10.693V10.6931V10.6932V10.6932V10.6933V10.6934V10.6934V10.6935V10.6936V10.6936V10.6937V10.6937V10.6938V10.6939V10.6939V10.694V10.6941V10.6941V10.6942V10.6943V10.6943V10.6944V10.6944V10.6945V10.6946V10.6946V10.6947V10.6948V10.6948V10.6949V10.695V10.695V10.6951V10.6952V10.6952V10.6953V10.6953V10.6954V10.6955V10.6955V10.6956V10.6957V10.6957V10.6958V10.6959V10.6959V10.696V10.696V10.6961V10.6962V10.6962V10.6963V10.6964V10.6964V10.6965V10.6966V10.6966V10.6967V10.6967V10.6968V10.6969V10.6969V10.697V10.6971V10.6971V10.6972V10.6973V10.6973V10.6974V10.6974V10.6975V10.6976V10.6976V10.6977V10.6978V10.6978V10.6979V10.698V10.698V10.6981V10.6981V10.6982V10.6983V10.6983V10.6984V10.6985V10.6985V10.6986V10.6987V10.6987V10.6988V10.6988V10.6989V10.699V10.699V10.6991V10.6992V10.6992V10.6993V10.6994V10.6994V10.6995V10.6995V10.6996V10.6997V10.6997V10.6998V10.6999V10.6999V10.7V10.7001V10.7001V10.7002V10.7002V10.7003V10.7004V10.7004V10.7005V10.7006V10.7006V10.7007V10.7008V10.7008V10.7009V10.701V10.701V10.7011V10.7011V10.7012V10.7013V10.7013V10.7014V10.7015V10.7015V10.7016V10.7017V10.7017V10.7018V10.7018V10.7019V10.702V10.702V10.7021V10.7022V10.7022V10.7023V10.7024V10.7024V10.7025V10.7025V10.7026V10.7027V10.7027V10.7028V10.7029V10.7029V10.703V10.7031V10.7031V10.7032V10.7032V10.7033V10.7034V10.7034V10.7035V10.7036V10.7036V10.7037V10.7038V10.7038V10.7039V10.7039V10.704V10.7041V10.7041V10.7042V10.7043V10.7043V10.7044V10.7045V10.7045V10.7046V10.7046V10.7047V10.7048V10.7048V10.7049V10.705V10.705V10.7051V10.7052V10.7052V10.7053V10.7053V10.7054V10.7055V10.7055V10.7056V10.7057V10.7057V10.7058V10.7059V10.7059V10.706V10.706V10.7061V10.7062V10.7062V10.7063V10.7064V10.7064V10.7065V10.7066V10.7066V10.7067V10.7067V10.7068V10.7069V10.7069V10.707V10.7071V10.7071V10.7072V10.7073V10.7073V10.7074V10.7075V10.7075V10.7076V10.7076V10.7077V10.7078V10.7337C9.81486 10.7638 9.81486 10.7931 9.81737 10.8232V11.0885C9.81737 11.2148 9.73414 11.2866 9.64717 11.2866H8.36639C8.27941 11.2866 8.19619 11.2148 8.19619 11.0885V10.8185C8.20495 10.7635 8.20495 10.7065 8.19619 10.6514V10.3923C8.19619 10.266 8.27941 10.1942 8.36639 10.1942H9.64717ZM10.7488 11.2385H16.0511C16.1099 11.2385 16.1666 11.2326 16.2213 11.2224V15.9616C16.2213 16.0879 16.1381 16.1597 16.0511 16.1597H1.96246C1.87549 16.1597 1.79227 16.0879 1.79227 15.9616V11.2224C1.84694 11.2326 1.90369 11.2385 1.96246 11.2385H7.26473C7.33372 11.8151 7.79432 12.2827 8.36639 12.2827H9.64717C10.2192 12.2827 10.6798 11.8151 10.7488 11.2385Z" fill="#596E7C" stroke="#596E7C" stroke-width="0.3"/>
</svg>
