<svg width="2" height="10" viewBox="0 0 2 10" fill="none" xmlns="http://www.w3.org/2000/svg">
<path fill-rule="evenodd" clip-rule="evenodd" d="M1.00001 2.67996C0.522841 2.67996 0.136015 2.29314 0.136015 1.81596C0.136015 1.33879 0.522841 0.951965 1.00001 0.951965C1.47719 0.951965 1.86401 1.33879 1.86401 1.81596C1.86401 2.29314 1.47719 2.67996 1.00001 2.67996ZM1.00001 5.86399C0.522841 5.86399 0.136015 5.47716 0.136015 4.99999C0.136015 4.52281 0.522841 4.13599 1.00001 4.13599C1.47719 4.13599 1.86401 4.52281 1.86401 4.99999C1.86401 5.47716 1.47719 5.86399 1.00001 5.86399ZM0.136015 8.18401C0.136015 8.66118 0.522841 9.04801 1.00001 9.04801C1.47719 9.04801 1.86401 8.66118 1.86401 8.18401C1.86401 7.70683 1.47719 7.32001 1.00001 7.32001C0.522841 7.32001 0.136015 7.70683 0.136015 8.18401Z" fill="#33363F"/>
</svg>
