<svg width="18" height="18" viewBox="0 0 18 18" fill="none" xmlns="http://www.w3.org/2000/svg">
<mask id="path-1-outside-1_47_789" maskUnits="userSpaceOnUse" x="0" y="-0.00582886" width="18" height="18" fill="black">
<rect fill="white" y="-0.00582886" width="18" height="18"/>
<path fill-rule="evenodd" clip-rule="evenodd" d="M11.5377 15.5343C10.7525 15.8388 9.89865 16.0058 9.00584 16.0058C8.82733 16.0058 8.65038 15.9991 8.47523 15.986L8.70081 15.0837C8.98541 13.9453 8.44116 12.762 7.3916 12.2372C6.53896 11.8109 6.06407 10.8783 6.22079 9.93799L6.30744 9.41808C6.55477 7.9341 5.26823 6.64756 3.78426 6.89489L2.24653 7.15118C3.05758 4.17904 5.77656 1.99417 9.00584 1.99417C11.0313 1.99417 12.856 2.85368 14.1351 4.22786L13.6424 4.59737C13.3827 4.79211 13.0669 4.89737 12.7424 4.89737H10.1867C9.51892 4.89737 8.90846 5.27465 8.60983 5.87192C8.2413 6.60898 8.43252 7.50301 9.0703 8.02483L10.5875 9.2662C11.7688 10.2327 12.3801 11.7317 12.2115 13.2486C12.1501 13.8011 12.0144 14.3427 11.8079 14.8588L11.5377 15.5343ZM12.8802 14.8379C13.0404 14.3582 13.1495 13.8625 13.2054 13.359C13.4114 11.5052 12.6643 9.67333 11.2208 8.49224L9.70354 7.25087C9.42752 7.02503 9.34476 6.63812 9.50426 6.31914C9.6335 6.06065 9.89769 5.89737 10.1867 5.89737H12.7424C13.2833 5.89737 13.8096 5.72193 14.2424 5.39737L14.763 5.00687C15.5503 6.13971 16.0117 7.51597 16.0117 8.99999C16.0117 11.4367 14.7677 13.5828 12.8802 14.8379ZM12.3109 16.2939C15.0834 15.0356 17.0117 12.243 17.0117 8.99999C17.0117 4.5785 13.4273 0.994171 9.00584 0.994171C4.58434 0.994171 1 4.5785 1 8.99999C1 13.4215 4.58434 17.0058 9.00584 17.0058C10.1325 17.0058 11.2049 16.7731 12.1774 16.353L12.2721 16.3909L12.3109 16.2939ZM2.04535 8.1985C2.01539 8.46152 2 8.72896 2 8.99999C2 12.3455 4.34507 15.1434 7.4811 15.8394L7.73067 14.8412C7.90159 14.1575 7.57473 13.4468 6.94439 13.1316C5.69909 12.509 5.0055 11.1469 5.23439 9.77359L5.32105 9.25368C5.45557 8.44653 4.75581 7.74676 3.94866 7.88129L2.04535 8.1985Z"/>
</mask>
<path fill-rule="evenodd" clip-rule="evenodd" d="M11.5377 15.5343C10.7525 15.8388 9.89865 16.0058 9.00584 16.0058C8.82733 16.0058 8.65038 15.9991 8.47523 15.986L8.70081 15.0837C8.98541 13.9453 8.44116 12.762 7.3916 12.2372C6.53896 11.8109 6.06407 10.8783 6.22079 9.93799L6.30744 9.41808C6.55477 7.9341 5.26823 6.64756 3.78426 6.89489L2.24653 7.15118C3.05758 4.17904 5.77656 1.99417 9.00584 1.99417C11.0313 1.99417 12.856 2.85368 14.1351 4.22786L13.6424 4.59737C13.3827 4.79211 13.0669 4.89737 12.7424 4.89737H10.1867C9.51892 4.89737 8.90846 5.27465 8.60983 5.87192C8.2413 6.60898 8.43252 7.50301 9.0703 8.02483L10.5875 9.2662C11.7688 10.2327 12.3801 11.7317 12.2115 13.2486C12.1501 13.8011 12.0144 14.3427 11.8079 14.8588L11.5377 15.5343ZM12.8802 14.8379C13.0404 14.3582 13.1495 13.8625 13.2054 13.359C13.4114 11.5052 12.6643 9.67333 11.2208 8.49224L9.70354 7.25087C9.42752 7.02503 9.34476 6.63812 9.50426 6.31914C9.6335 6.06065 9.89769 5.89737 10.1867 5.89737H12.7424C13.2833 5.89737 13.8096 5.72193 14.2424 5.39737L14.763 5.00687C15.5503 6.13971 16.0117 7.51597 16.0117 8.99999C16.0117 11.4367 14.7677 13.5828 12.8802 14.8379ZM12.3109 16.2939C15.0834 15.0356 17.0117 12.243 17.0117 8.99999C17.0117 4.5785 13.4273 0.994171 9.00584 0.994171C4.58434 0.994171 1 4.5785 1 8.99999C1 13.4215 4.58434 17.0058 9.00584 17.0058C10.1325 17.0058 11.2049 16.7731 12.1774 16.353L12.2721 16.3909L12.3109 16.2939ZM2.04535 8.1985C2.01539 8.46152 2 8.72896 2 8.99999C2 12.3455 4.34507 15.1434 7.4811 15.8394L7.73067 14.8412C7.90159 14.1575 7.57473 13.4468 6.94439 13.1316C5.69909 12.509 5.0055 11.1469 5.23439 9.77359L5.32105 9.25368C5.45557 8.44653 4.75581 7.74676 3.94866 7.88129L2.04535 8.1985Z" fill="#596E7C"/>
<path d="M11.5377 15.5343L11.61 15.7208L11.6911 15.6894L11.7234 15.6086L11.5377 15.5343ZM8.47523 15.986L8.2812 15.9375L8.22365 16.1677L8.4603 16.1855L8.47523 15.986ZM8.70081 15.0837L8.50678 15.0352L8.50678 15.0352L8.70081 15.0837ZM7.3916 12.2372L7.30216 12.4161L7.3916 12.2372ZM6.22079 9.93799L6.41807 9.97087L6.41807 9.97087L6.22079 9.93799ZM6.30744 9.41808L6.11016 9.3852L6.11016 9.3852L6.30744 9.41808ZM3.78426 6.89489L3.81714 7.09217L3.81714 7.09217L3.78426 6.89489ZM2.24653 7.15118L2.05358 7.09853L1.97137 7.3998L2.27941 7.34846L2.24653 7.15118ZM14.1351 4.22786L14.2551 4.38786L14.433 4.25441L14.2815 4.0916L14.1351 4.22786ZM13.6424 4.59737L13.5224 4.43737L13.5224 4.43737L13.6424 4.59737ZM8.60983 5.87192L8.78871 5.96137L8.78871 5.96137L8.60983 5.87192ZM9.0703 8.02483L9.19695 7.87004L9.19695 7.87004L9.0703 8.02483ZM10.5875 9.2662L10.7142 9.11141L10.7142 9.11141L10.5875 9.2662ZM12.2115 13.2486L12.4103 13.2707L12.4103 13.2707L12.2115 13.2486ZM11.8079 14.8588L11.9936 14.9331L11.9936 14.9331L11.8079 14.8588ZM12.8802 14.8379L12.6905 14.7746L12.5061 15.3269L12.9909 15.0045L12.8802 14.8379ZM13.2054 13.359L13.4042 13.3811L13.4042 13.3811L13.2054 13.359ZM11.2208 8.49224L11.0941 8.64703L11.0941 8.64703L11.2208 8.49224ZM9.70354 7.25087L9.57689 7.40566L9.57689 7.40566L9.70354 7.25087ZM14.2424 5.39737L14.1224 5.23737L14.1224 5.23737L14.2424 5.39737ZM14.763 5.00687L14.9273 4.89274L14.8089 4.72244L14.643 4.84687L14.763 5.00687ZM12.3109 16.2939L12.2283 16.1118L12.1551 16.145L12.1252 16.2196L12.3109 16.2939ZM12.1774 16.353L12.2517 16.1673L12.1744 16.1364L12.0981 16.1694L12.1774 16.353ZM12.2721 16.3909L12.1978 16.5766L12.3835 16.6509L12.4578 16.4652L12.2721 16.3909ZM2.04535 8.1985L2.01247 8.00122L1.8637 8.02602L1.84663 8.17587L2.04535 8.1985ZM7.4811 15.8394L7.43777 16.0347L7.6279 16.0769L7.67513 15.8879L7.4811 15.8394ZM7.73067 14.8412L7.53664 14.7927L7.53664 14.7927L7.73067 14.8412ZM6.94439 13.1316L7.03383 12.9527L7.03383 12.9527L6.94439 13.1316ZM5.23439 9.77359L5.03711 9.74071L5.03711 9.74071L5.23439 9.77359ZM5.32105 9.25368L5.51832 9.28656L5.51832 9.28656L5.32105 9.25368ZM3.94866 7.88129L3.98154 8.07856L3.98154 8.07856L3.94866 7.88129ZM9.00584 16.2058C9.92377 16.2058 10.8021 16.0341 11.61 15.7208L11.4654 15.3479C10.7028 15.6435 9.87353 15.8058 9.00584 15.8058V16.2058ZM8.4603 16.1855C8.64041 16.1989 8.82234 16.2058 9.00584 16.2058V15.8058C8.83232 15.8058 8.66035 15.7993 8.49017 15.7866L8.4603 16.1855ZM8.66926 16.0345L8.89484 15.1322L8.50678 15.0352L8.2812 15.9375L8.66926 16.0345ZM8.89484 15.1322C9.20217 13.9029 8.61444 12.625 7.48105 12.0583L7.30216 12.4161C8.26787 12.8989 8.76865 13.9877 8.50678 15.0352L8.89484 15.1322ZM7.48105 12.0583C6.70693 11.6713 6.27578 10.8246 6.41807 9.97087L6.02351 9.90511C5.85235 10.932 6.37098 11.9505 7.30216 12.4161L7.48105 12.0583ZM6.41807 9.97087L6.50472 9.45096L6.11016 9.3852L6.02351 9.90511L6.41807 9.97087ZM6.50472 9.45096C6.77461 7.83162 5.37071 6.42772 3.75138 6.69761L3.81714 7.09217C5.16574 6.8674 6.33493 8.03659 6.11016 9.3852L6.50472 9.45096ZM3.75138 6.69761L2.21365 6.9539L2.27941 7.34846L3.81714 7.09217L3.75138 6.69761ZM9.00584 1.79417C5.68409 1.79417 2.88777 4.04163 2.05358 7.09853L2.43947 7.20383C3.2274 4.31646 5.86903 2.19417 9.00584 2.19417V1.79417ZM14.2815 4.0916C12.9661 2.67847 11.0891 1.79417 9.00584 1.79417V2.19417C10.9735 2.19417 12.7458 3.02889 13.9887 4.36413L14.2815 4.0916ZM14.0151 4.06786L13.5224 4.43737L13.7624 4.75737L14.2551 4.38786L14.0151 4.06786ZM13.5224 4.43737C13.2973 4.60614 13.0237 4.69737 12.7424 4.69737V5.09737C13.1102 5.09737 13.4681 4.97807 13.7624 4.75737L13.5224 4.43737ZM12.7424 4.69737H10.1867V5.09737H12.7424V4.69737ZM10.1867 4.69737C9.44316 4.69737 8.76346 5.11745 8.43094 5.78248L8.78871 5.96137C9.05347 5.43185 9.59467 5.09737 10.1867 5.09737V4.69737ZM8.43094 5.78248C8.02061 6.60315 8.23352 7.5986 8.94365 8.17962L9.19695 7.87004C8.63152 7.40741 8.46199 6.61481 8.78871 5.96137L8.43094 5.78248ZM8.94365 8.17962L10.4609 9.42099L10.7142 9.11141L9.19695 7.87004L8.94365 8.17962ZM10.4609 9.42099C11.5897 10.3445 12.1738 11.777 12.0127 13.2265L12.4103 13.2707C12.5863 11.6864 11.9479 10.1208 10.7142 9.11141L10.4609 9.42099ZM12.0127 13.2265C11.9533 13.7611 11.822 14.2852 11.6222 14.7846L11.9936 14.9331C12.2068 14.4003 12.3469 13.841 12.4103 13.2707L12.0127 13.2265ZM11.6222 14.7846L11.352 15.46L11.7234 15.6086L11.9936 14.9331L11.6222 14.7846ZM13.0699 14.9013C13.2345 14.4081 13.3467 13.8986 13.4042 13.3811L13.0066 13.3369C12.9522 13.8263 12.8462 14.3082 12.6905 14.7746L13.0699 14.9013ZM13.4042 13.3811C13.6176 11.46 12.8434 9.56147 11.3474 8.33745L11.0941 8.64703C12.4852 9.7852 13.2051 11.5505 13.0066 13.3369L13.4042 13.3811ZM11.3474 8.33745L9.83019 7.09608L9.57689 7.40566L11.0941 8.64703L11.3474 8.33745ZM9.83019 7.09608C9.62652 6.92944 9.56546 6.64395 9.68314 6.40858L9.32537 6.22969C9.12407 6.63229 9.22852 7.12063 9.57689 7.40566L9.83019 7.09608ZM9.68314 6.40858C9.77851 6.21785 9.97344 6.09737 10.1867 6.09737V5.69737C9.82194 5.69737 9.48849 5.90345 9.32537 6.22969L9.68314 6.40858ZM10.1867 6.09737H12.7424V5.69737H10.1867V6.09737ZM12.7424 6.09737C13.3266 6.09737 13.895 5.90789 14.3624 5.55737L14.1224 5.23737C13.7243 5.53596 13.24 5.69737 12.7424 5.69737V6.09737ZM14.3624 5.55737L14.883 5.16687L14.643 4.84687L14.1224 5.23737L14.3624 5.55737ZM16.2117 8.99999C16.2117 7.47387 15.737 6.05801 14.9273 4.89274L14.5988 5.121C15.3635 6.22142 15.8117 7.55806 15.8117 8.99999H16.2117ZM12.9909 15.0045C14.9318 13.7138 16.2117 11.5064 16.2117 8.99999H15.8117C15.8117 11.3669 14.6036 13.4517 12.7695 14.6714L12.9909 15.0045ZM12.3936 16.476C15.2349 15.1865 17.2117 12.3243 17.2117 8.99999H16.8117C16.8117 12.1617 14.932 14.8847 12.2283 16.1118L12.3936 16.476ZM17.2117 8.99999C17.2117 4.46804 13.5378 0.794171 9.00584 0.794171V1.19417C13.3169 1.19417 16.8117 4.68896 16.8117 8.99999H17.2117ZM9.00584 0.794171C4.47388 0.794171 0.8 4.46804 0.8 8.99999H1.2C1.2 4.68896 4.69479 1.19417 9.00584 1.19417V0.794171ZM0.8 8.99999C0.8 13.5319 4.47388 17.2058 9.00584 17.2058V16.8058C4.69479 16.8058 1.2 13.311 1.2 8.99999H0.8ZM9.00584 17.2058C10.1603 17.2058 11.2596 16.9673 12.2567 16.5366L12.0981 16.1694C11.1501 16.5788 10.1048 16.8058 9.00584 16.8058V17.2058ZM12.1031 16.5387L12.1978 16.5766L12.3464 16.2052L12.2517 16.1673L12.1031 16.5387ZM12.4578 16.4652L12.4966 16.3682L12.1252 16.2196L12.0864 16.3166L12.4578 16.4652ZM1.84663 8.17587C1.81582 8.44639 1.8 8.72138 1.8 8.99999H2.2C2.2 8.73654 2.21496 8.47665 2.24406 8.22114L1.84663 8.17587ZM1.8 8.99999C1.8 12.4413 4.21216 15.3188 7.43777 16.0347L7.52444 15.6442C4.47797 14.968 2.2 12.2498 2.2 8.99999H1.8ZM7.53664 14.7927L7.28708 15.7909L7.67513 15.8879L7.9247 14.8897L7.53664 14.7927ZM6.85495 13.3105C7.40144 13.5838 7.68483 14.1999 7.53664 14.7927L7.9247 14.8897C8.11836 14.115 7.74801 13.3098 7.03383 12.9527L6.85495 13.3105ZM5.03711 9.74071C4.79379 11.2007 5.53111 12.6486 6.85495 13.3105L7.03383 12.9527C5.86706 12.3694 5.21721 11.0932 5.43167 9.80647L5.03711 9.74071ZM5.12377 9.2208L5.03711 9.74071L5.43167 9.80647L5.51832 9.28656L5.12377 9.2208ZM3.98154 8.07856C4.65332 7.9666 5.23573 8.54901 5.12377 9.2208L5.51832 9.28656C5.67541 8.34404 4.85829 7.52692 3.91578 7.68401L3.98154 8.07856ZM2.07823 8.39578L3.98154 8.07856L3.91578 7.68401L2.01247 8.00122L2.07823 8.39578Z" fill="#596E7C" mask="url(#path-1-outside-1_47_789)"/>
</svg>
