<svg width="18" height="18" viewBox="0 0 18 18" fill="none" xmlns="http://www.w3.org/2000/svg">
<mask id="path-1-outside-1_47_598" maskUnits="userSpaceOnUse" x="0" y="-0.0058136" width="18" height="18" fill="black">
<rect fill="white" y="-0.0058136" width="18" height="18"/>
<path fill-rule="evenodd" clip-rule="evenodd" d="M3.5 0.99419L3.46709 0.994188H3.46706C3.02383 0.994164 2.64193 0.994143 2.33611 1.03526C2.00835 1.07933 1.69417 1.1787 1.43934 1.43353C1.18451 1.68836 1.08514 2.00254 1.04107 2.33029C0.999957 2.63612 0.999977 3.01801 1 3.46124V3.46128L1 3.49419V5.12355L1 5.15647V5.1565C0.999977 5.59973 0.999957 5.98163 1.04107 6.28745C1.08514 6.61521 1.18451 6.92938 1.43934 7.18421C1.69417 7.43904 2.00835 7.53842 2.33611 7.58248C2.64194 7.6236 3.02384 7.62358 3.46709 7.62355L3.5 7.62355H5.12937L5.16228 7.62355C5.60553 7.62358 5.98743 7.6236 6.29326 7.58248C6.62102 7.53842 6.9352 7.43904 7.19003 7.18421C7.44486 6.92938 7.54423 6.61521 7.5883 6.28745C7.62941 5.98162 7.62939 5.59971 7.62937 5.15647L7.62937 5.12355V3.49419L7.62937 3.46127C7.62939 3.01803 7.62941 2.63612 7.5883 2.33029C7.54423 2.00254 7.44486 1.68836 7.19003 1.43353C6.9352 1.1787 6.62102 1.07933 6.29326 1.03526C5.98744 0.994143 5.60554 0.994164 5.16231 0.994188H5.16228L5.12937 0.99419H3.5ZM2.14645 2.14064C2.18451 2.10257 2.25249 2.0555 2.46936 2.02634C2.70061 1.99525 3.01446 1.99419 3.5 1.99419H5.12937C5.61491 1.99419 5.92876 1.99525 6.16001 2.02634C6.37688 2.0555 6.44486 2.10257 6.48292 2.14064C6.52098 2.1787 6.56806 2.24667 6.59721 2.46354C6.6283 2.6948 6.62937 3.00865 6.62937 3.49419V5.12355C6.62937 5.60909 6.6283 5.92295 6.59721 6.1542C6.56806 6.37107 6.52098 6.43904 6.48292 6.47711C6.44486 6.51517 6.37688 6.56224 6.16002 6.5914C5.92876 6.62249 5.61491 6.62355 5.12937 6.62355H3.5C3.01446 6.62355 2.70061 6.62249 2.46936 6.5914C2.25249 6.56224 2.18451 6.51517 2.14645 6.47711C2.10839 6.43904 2.06131 6.37107 2.03216 6.1542C2.00107 5.92295 2 5.60909 2 5.12355V3.49419C2 3.00865 2.00107 2.6948 2.03216 2.46354C2.06131 2.24667 2.10839 2.1787 2.14645 2.14064ZM3.5 10.3765L3.46709 10.3765H3.46707C3.02383 10.3764 2.64193 10.3764 2.33611 10.4175C2.00835 10.4616 1.69417 10.561 1.43934 10.8158C1.18451 11.0706 1.08514 11.3848 1.04107 11.7126C0.999957 12.0184 0.999977 12.4003 1 12.8435V12.8435L1 12.8765V14.5058L1 14.5387V14.5388C0.999977 14.982 0.999957 15.3639 1.04107 15.6697C1.08514 15.9975 1.18451 16.3117 1.43934 16.5665C1.69417 16.8213 2.00835 16.9207 2.33611 16.9648C2.64194 17.0059 3.02384 17.0059 3.46709 17.0058H3.5H5.12937H5.16228C5.60553 17.0059 5.98743 17.0059 6.29326 16.9648C6.62102 16.9207 6.9352 16.8213 7.19003 16.5665C7.44486 16.3117 7.54423 15.9975 7.5883 15.6697C7.62941 15.3639 7.62939 14.982 7.62937 14.5387L7.62937 14.5058V12.8765L7.62937 12.8435C7.62939 12.4003 7.62941 12.0184 7.5883 11.7126C7.54423 11.3848 7.44486 11.0706 7.19003 10.8158C6.9352 10.561 6.62102 10.4616 6.29326 10.4175C5.98744 10.3764 5.60554 10.3764 5.1623 10.3765H5.16228L5.12937 10.3765H3.5ZM2.14645 11.5229C2.18451 11.4848 2.25249 11.4378 2.46936 11.4086C2.70061 11.3775 3.01446 11.3765 3.5 11.3765H5.12937C5.61491 11.3765 5.92876 11.3775 6.16001 11.4086C6.37688 11.4378 6.44486 11.4848 6.48292 11.5229C6.52098 11.561 6.56806 11.6289 6.59721 11.8458C6.6283 12.0771 6.62937 12.3909 6.62937 12.8765V14.5058C6.62937 14.9914 6.6283 15.3052 6.59721 15.5365C6.56806 15.7533 6.52098 15.8213 6.48292 15.8594C6.44486 15.8974 6.37688 15.9445 6.16002 15.9737C5.92876 16.0048 5.61491 16.0058 5.12937 16.0058H3.5C3.01446 16.0058 2.70061 16.0048 2.46936 15.9737C2.25249 15.9445 2.18451 15.8974 2.14645 15.8594C2.10839 15.8213 2.06131 15.7533 2.03216 15.5365C2.00107 15.3052 2 14.9914 2 14.5058V12.8765C2 12.3909 2.00107 12.0771 2.03216 11.8458C2.06131 11.6289 2.10839 11.561 2.14645 11.5229ZM12.8494 10.3765L12.8823 10.3765H14.5117L14.5446 10.3765H14.5446C14.9878 10.3764 15.3697 10.3764 15.6756 10.4175C16.0033 10.4616 16.3175 10.561 16.5723 10.8158C16.8272 11.0706 16.9265 11.3848 16.9706 11.7126C17.0117 12.0184 17.0117 12.4003 17.0117 12.8435L17.0117 12.8765V14.5058L17.0117 14.5387C17.0117 14.982 17.0117 15.3639 16.9706 15.6697C16.9265 15.9975 16.8272 16.3117 16.5723 16.5665C16.3175 16.8213 16.0033 16.9207 15.6756 16.9648C15.3697 17.0059 14.9878 17.0059 14.5446 17.0058H14.5117H12.8823H12.8494C12.4062 17.0059 12.0242 17.0059 11.7184 16.9648C11.3907 16.9207 11.0765 16.8213 10.8217 16.5665C10.5668 16.3117 10.4674 15.9975 10.4234 15.6697C10.3823 15.3639 10.3823 14.982 10.3823 14.5388V14.5387L10.3823 14.5058V12.8765L10.3823 12.8435V12.8435C10.3823 12.4003 10.3823 12.0184 10.4234 11.7126C10.4674 11.3848 10.5668 11.0706 10.8217 10.8158C11.0765 10.561 11.3907 10.4616 11.7184 10.4175C12.0242 10.3764 12.4061 10.3764 12.8494 10.3765H12.8494ZM11.8517 11.4086C11.6348 11.4378 11.5668 11.4848 11.5288 11.5229C11.4907 11.561 11.4436 11.6289 11.4145 11.8458C11.3834 12.0771 11.3823 12.3909 11.3823 12.8765V14.5058C11.3823 14.9914 11.3834 15.3052 11.4145 15.5365C11.4436 15.7533 11.4907 15.8213 11.5288 15.8594C11.5668 15.8974 11.6348 15.9445 11.8517 15.9737C12.0829 16.0048 12.3968 16.0058 12.8823 16.0058H14.5117C14.9972 16.0058 15.3111 16.0048 15.5423 15.9737C15.7592 15.9445 15.8272 15.8974 15.8652 15.8594C15.9033 15.8213 15.9504 15.7533 15.9795 15.5365C16.0106 15.3052 16.0117 14.9914 16.0117 14.5058V12.8765C16.0117 12.3909 16.0106 12.0771 15.9795 11.8458C15.9504 11.6289 15.9033 11.561 15.8652 11.5229C15.8272 11.4848 15.7592 11.4378 15.5423 11.4086C15.3111 11.3775 14.9972 11.3765 14.5117 11.3765H12.8823C12.3968 11.3765 12.0829 11.3775 11.8517 11.4086ZM12.8823 0.99419L12.8494 0.994188H12.8494C12.4061 0.994164 12.0242 0.994143 11.7184 1.03526C11.3907 1.07933 11.0765 1.1787 10.8217 1.43353C10.5668 1.68836 10.4674 2.00254 10.4234 2.33029C10.3823 2.63612 10.3823 3.01802 10.3823 3.46126V3.46128L10.3823 3.49419V5.12355L10.3823 5.15647V5.15649C10.3823 5.59972 10.3823 5.98162 10.4234 6.28745C10.4674 6.61521 10.5668 6.92938 10.8217 7.18421C11.0765 7.43904 11.3907 7.53842 11.7184 7.58248C12.0242 7.6236 12.4062 7.62358 12.8494 7.62355L12.8823 7.62355H14.5117L14.5446 7.62355C14.9878 7.62358 15.3697 7.6236 15.6756 7.58248C16.0033 7.53842 16.3175 7.43904 16.5723 7.18421C16.8272 6.92938 16.9265 6.61521 16.9706 6.28745C17.0117 5.98162 17.0117 5.59971 17.0117 5.15647L17.0117 5.12355V3.49419L17.0117 3.46127C17.0117 3.01803 17.0117 2.63612 16.9706 2.33029C16.9265 2.00254 16.8272 1.68836 16.5723 1.43353C16.3175 1.1787 16.0033 1.07933 15.6756 1.03526C15.3697 0.994143 14.9879 0.994164 14.5446 0.994188H14.5446L14.5117 0.99419H12.8823ZM11.5288 2.14064C11.5668 2.10257 11.6348 2.0555 11.8517 2.02634C12.0829 1.99525 12.3968 1.99419 12.8823 1.99419H14.5117C14.9972 1.99419 15.3111 1.99525 15.5423 2.02634C15.7592 2.0555 15.8272 2.10257 15.8652 2.14064C15.9033 2.1787 15.9504 2.24667 15.9795 2.46354C16.0106 2.6948 16.0117 3.00865 16.0117 3.49419V5.12355C16.0117 5.60909 16.0106 5.92295 15.9795 6.1542C15.9504 6.37107 15.9033 6.43904 15.8652 6.47711C15.8272 6.51517 15.7592 6.56224 15.5423 6.5914C15.3111 6.62249 14.9972 6.62355 14.5117 6.62355H12.8823C12.3968 6.62355 12.0829 6.62249 11.8517 6.5914C11.6348 6.56224 11.5668 6.51517 11.5288 6.47711C11.4907 6.43904 11.4436 6.37107 11.4145 6.1542C11.3834 5.92295 11.3823 5.60909 11.3823 5.12355V3.49419C11.3823 3.00865 11.3834 2.6948 11.4145 2.46354C11.4436 2.24667 11.4907 2.1787 11.5288 2.14064Z"/>
</mask>
<path fill-rule="evenodd" clip-rule="evenodd" d="M3.5 0.99419L3.46709 0.994188H3.46706C3.02383 0.994164 2.64193 0.994143 2.33611 1.03526C2.00835 1.07933 1.69417 1.1787 1.43934 1.43353C1.18451 1.68836 1.08514 2.00254 1.04107 2.33029C0.999957 2.63612 0.999977 3.01801 1 3.46124V3.46128L1 3.49419V5.12355L1 5.15647V5.1565C0.999977 5.59973 0.999957 5.98163 1.04107 6.28745C1.08514 6.61521 1.18451 6.92938 1.43934 7.18421C1.69417 7.43904 2.00835 7.53842 2.33611 7.58248C2.64194 7.6236 3.02384 7.62358 3.46709 7.62355L3.5 7.62355H5.12937L5.16228 7.62355C5.60553 7.62358 5.98743 7.6236 6.29326 7.58248C6.62102 7.53842 6.9352 7.43904 7.19003 7.18421C7.44486 6.92938 7.54423 6.61521 7.5883 6.28745C7.62941 5.98162 7.62939 5.59971 7.62937 5.15647L7.62937 5.12355V3.49419L7.62937 3.46127C7.62939 3.01803 7.62941 2.63612 7.5883 2.33029C7.54423 2.00254 7.44486 1.68836 7.19003 1.43353C6.9352 1.1787 6.62102 1.07933 6.29326 1.03526C5.98744 0.994143 5.60554 0.994164 5.16231 0.994188H5.16228L5.12937 0.99419H3.5ZM2.14645 2.14064C2.18451 2.10257 2.25249 2.0555 2.46936 2.02634C2.70061 1.99525 3.01446 1.99419 3.5 1.99419H5.12937C5.61491 1.99419 5.92876 1.99525 6.16001 2.02634C6.37688 2.0555 6.44486 2.10257 6.48292 2.14064C6.52098 2.1787 6.56806 2.24667 6.59721 2.46354C6.6283 2.6948 6.62937 3.00865 6.62937 3.49419V5.12355C6.62937 5.60909 6.6283 5.92295 6.59721 6.1542C6.56806 6.37107 6.52098 6.43904 6.48292 6.47711C6.44486 6.51517 6.37688 6.56224 6.16002 6.5914C5.92876 6.62249 5.61491 6.62355 5.12937 6.62355H3.5C3.01446 6.62355 2.70061 6.62249 2.46936 6.5914C2.25249 6.56224 2.18451 6.51517 2.14645 6.47711C2.10839 6.43904 2.06131 6.37107 2.03216 6.1542C2.00107 5.92295 2 5.60909 2 5.12355V3.49419C2 3.00865 2.00107 2.6948 2.03216 2.46354C2.06131 2.24667 2.10839 2.1787 2.14645 2.14064ZM3.5 10.3765L3.46709 10.3765H3.46707C3.02383 10.3764 2.64193 10.3764 2.33611 10.4175C2.00835 10.4616 1.69417 10.561 1.43934 10.8158C1.18451 11.0706 1.08514 11.3848 1.04107 11.7126C0.999957 12.0184 0.999977 12.4003 1 12.8435V12.8435L1 12.8765V14.5058L1 14.5387V14.5388C0.999977 14.982 0.999957 15.3639 1.04107 15.6697C1.08514 15.9975 1.18451 16.3117 1.43934 16.5665C1.69417 16.8213 2.00835 16.9207 2.33611 16.9648C2.64194 17.0059 3.02384 17.0059 3.46709 17.0058H3.5H5.12937H5.16228C5.60553 17.0059 5.98743 17.0059 6.29326 16.9648C6.62102 16.9207 6.9352 16.8213 7.19003 16.5665C7.44486 16.3117 7.54423 15.9975 7.5883 15.6697C7.62941 15.3639 7.62939 14.982 7.62937 14.5387L7.62937 14.5058V12.8765L7.62937 12.8435C7.62939 12.4003 7.62941 12.0184 7.5883 11.7126C7.54423 11.3848 7.44486 11.0706 7.19003 10.8158C6.9352 10.561 6.62102 10.4616 6.29326 10.4175C5.98744 10.3764 5.60554 10.3764 5.1623 10.3765H5.16228L5.12937 10.3765H3.5ZM2.14645 11.5229C2.18451 11.4848 2.25249 11.4378 2.46936 11.4086C2.70061 11.3775 3.01446 11.3765 3.5 11.3765H5.12937C5.61491 11.3765 5.92876 11.3775 6.16001 11.4086C6.37688 11.4378 6.44486 11.4848 6.48292 11.5229C6.52098 11.561 6.56806 11.6289 6.59721 11.8458C6.6283 12.0771 6.62937 12.3909 6.62937 12.8765V14.5058C6.62937 14.9914 6.6283 15.3052 6.59721 15.5365C6.56806 15.7533 6.52098 15.8213 6.48292 15.8594C6.44486 15.8974 6.37688 15.9445 6.16002 15.9737C5.92876 16.0048 5.61491 16.0058 5.12937 16.0058H3.5C3.01446 16.0058 2.70061 16.0048 2.46936 15.9737C2.25249 15.9445 2.18451 15.8974 2.14645 15.8594C2.10839 15.8213 2.06131 15.7533 2.03216 15.5365C2.00107 15.3052 2 14.9914 2 14.5058V12.8765C2 12.3909 2.00107 12.0771 2.03216 11.8458C2.06131 11.6289 2.10839 11.561 2.14645 11.5229ZM12.8494 10.3765L12.8823 10.3765H14.5117L14.5446 10.3765H14.5446C14.9878 10.3764 15.3697 10.3764 15.6756 10.4175C16.0033 10.4616 16.3175 10.561 16.5723 10.8158C16.8272 11.0706 16.9265 11.3848 16.9706 11.7126C17.0117 12.0184 17.0117 12.4003 17.0117 12.8435L17.0117 12.8765V14.5058L17.0117 14.5387C17.0117 14.982 17.0117 15.3639 16.9706 15.6697C16.9265 15.9975 16.8272 16.3117 16.5723 16.5665C16.3175 16.8213 16.0033 16.9207 15.6756 16.9648C15.3697 17.0059 14.9878 17.0059 14.5446 17.0058H14.5117H12.8823H12.8494C12.4062 17.0059 12.0242 17.0059 11.7184 16.9648C11.3907 16.9207 11.0765 16.8213 10.8217 16.5665C10.5668 16.3117 10.4674 15.9975 10.4234 15.6697C10.3823 15.3639 10.3823 14.982 10.3823 14.5388V14.5387L10.3823 14.5058V12.8765L10.3823 12.8435V12.8435C10.3823 12.4003 10.3823 12.0184 10.4234 11.7126C10.4674 11.3848 10.5668 11.0706 10.8217 10.8158C11.0765 10.561 11.3907 10.4616 11.7184 10.4175C12.0242 10.3764 12.4061 10.3764 12.8494 10.3765H12.8494ZM11.8517 11.4086C11.6348 11.4378 11.5668 11.4848 11.5288 11.5229C11.4907 11.561 11.4436 11.6289 11.4145 11.8458C11.3834 12.0771 11.3823 12.3909 11.3823 12.8765V14.5058C11.3823 14.9914 11.3834 15.3052 11.4145 15.5365C11.4436 15.7533 11.4907 15.8213 11.5288 15.8594C11.5668 15.8974 11.6348 15.9445 11.8517 15.9737C12.0829 16.0048 12.3968 16.0058 12.8823 16.0058H14.5117C14.9972 16.0058 15.3111 16.0048 15.5423 15.9737C15.7592 15.9445 15.8272 15.8974 15.8652 15.8594C15.9033 15.8213 15.9504 15.7533 15.9795 15.5365C16.0106 15.3052 16.0117 14.9914 16.0117 14.5058V12.8765C16.0117 12.3909 16.0106 12.0771 15.9795 11.8458C15.9504 11.6289 15.9033 11.561 15.8652 11.5229C15.8272 11.4848 15.7592 11.4378 15.5423 11.4086C15.3111 11.3775 14.9972 11.3765 14.5117 11.3765H12.8823C12.3968 11.3765 12.0829 11.3775 11.8517 11.4086ZM12.8823 0.99419L12.8494 0.994188H12.8494C12.4061 0.994164 12.0242 0.994143 11.7184 1.03526C11.3907 1.07933 11.0765 1.1787 10.8217 1.43353C10.5668 1.68836 10.4674 2.00254 10.4234 2.33029C10.3823 2.63612 10.3823 3.01802 10.3823 3.46126V3.46128L10.3823 3.49419V5.12355L10.3823 5.15647V5.15649C10.3823 5.59972 10.3823 5.98162 10.4234 6.28745C10.4674 6.61521 10.5668 6.92938 10.8217 7.18421C11.0765 7.43904 11.3907 7.53842 11.7184 7.58248C12.0242 7.6236 12.4062 7.62358 12.8494 7.62355L12.8823 7.62355H14.5117L14.5446 7.62355C14.9878 7.62358 15.3697 7.6236 15.6756 7.58248C16.0033 7.53842 16.3175 7.43904 16.5723 7.18421C16.8272 6.92938 16.9265 6.61521 16.9706 6.28745C17.0117 5.98162 17.0117 5.59971 17.0117 5.15647L17.0117 5.12355V3.49419L17.0117 3.46127C17.0117 3.01803 17.0117 2.63612 16.9706 2.33029C16.9265 2.00254 16.8272 1.68836 16.5723 1.43353C16.3175 1.1787 16.0033 1.07933 15.6756 1.03526C15.3697 0.994143 14.9879 0.994164 14.5446 0.994188H14.5446L14.5117 0.99419H12.8823ZM11.5288 2.14064C11.5668 2.10257 11.6348 2.0555 11.8517 2.02634C12.0829 1.99525 12.3968 1.99419 12.8823 1.99419H14.5117C14.9972 1.99419 15.3111 1.99525 15.5423 2.02634C15.7592 2.0555 15.8272 2.10257 15.8652 2.14064C15.9033 2.1787 15.9504 2.24667 15.9795 2.46354C16.0106 2.6948 16.0117 3.00865 16.0117 3.49419V5.12355C16.0117 5.60909 16.0106 5.92295 15.9795 6.1542C15.9504 6.37107 15.9033 6.43904 15.8652 6.47711C15.8272 6.51517 15.7592 6.56224 15.5423 6.5914C15.3111 6.62249 14.9972 6.62355 14.5117 6.62355H12.8823C12.3968 6.62355 12.0829 6.62249 11.8517 6.5914C11.6348 6.56224 11.5668 6.51517 11.5288 6.47711C11.4907 6.43904 11.4436 6.37107 11.4145 6.1542C11.3834 5.92295 11.3823 5.60909 11.3823 5.12355V3.49419C11.3823 3.00865 11.3834 2.6948 11.4145 2.46354C11.4436 2.24667 11.4907 2.1787 11.5288 2.14064Z" fill="white"/>
<path d="M3.46709 0.994188L3.4671 0.794188H3.46709V0.994188ZM3.5 0.99419L3.49999 1.19419H3.5V0.99419ZM3.46706 0.994188L3.46705 1.19419H3.46706V0.994188ZM2.33611 1.03526L2.30946 0.837044L2.33611 1.03526ZM1.43934 1.43353L1.29792 1.29211L1.29792 1.29211L1.43934 1.43353ZM1.04107 2.33029L0.842857 2.30364L1.04107 2.33029ZM1 3.46124H1.2V3.46123L1 3.46124ZM1 3.46128H0.800001V3.46129L1 3.46128ZM1 3.49419H1.2V3.49418L1 3.49419ZM1 5.12355L1.2 5.12357V5.12355H1ZM1 5.15647L0.800001 5.15645V5.15647H1ZM1 5.1565L1.2 5.15651V5.1565H1ZM1.04107 6.28745L0.842857 6.3141L1.04107 6.28745ZM1.43934 7.18421L1.29792 7.32563L1.29792 7.32564L1.43934 7.18421ZM2.33611 7.58248L2.36276 7.38427H2.36276L2.33611 7.58248ZM3.46709 7.62355L3.46708 7.42355H3.46708L3.46709 7.62355ZM3.5 7.62355V7.42355H3.5L3.5 7.62355ZM5.12937 7.62355L5.12937 7.42355H5.12937V7.62355ZM5.16228 7.62355L5.1623 7.42355H5.16229L5.16228 7.62355ZM6.29326 7.58248L6.26661 7.38427L6.29326 7.58248ZM7.19003 7.18421L7.33145 7.32564L7.33145 7.32563L7.19003 7.18421ZM7.5883 6.28745L7.39008 6.2608L7.5883 6.28745ZM7.62937 5.15647L7.42937 5.15648V5.15648L7.62937 5.15647ZM7.62937 5.12355H7.42937V5.12356L7.62937 5.12355ZM7.62937 3.49419L7.42937 3.49418V3.49419H7.62937ZM7.62937 3.46127L7.42937 3.46126V3.46127L7.62937 3.46127ZM7.5883 2.33029L7.39008 2.35694V2.35694L7.5883 2.33029ZM7.19003 1.43353L7.33145 1.29211L7.33145 1.29211L7.19003 1.43353ZM6.29326 1.03526L6.31991 0.837044L6.29326 1.03526ZM5.16231 0.994188V1.19419H5.16232L5.16231 0.994188ZM5.16228 0.994188V0.794188H5.16227L5.16228 0.994188ZM5.12937 0.99419V1.19419H5.12938L5.12937 0.99419ZM2.46936 2.02634L2.496 2.22456L2.49601 2.22456L2.46936 2.02634ZM2.14645 2.14064L2.00503 1.99921L2.00503 1.99922L2.14645 2.14064ZM6.16001 2.02634L6.13337 2.22456V2.22456L6.16001 2.02634ZM6.48292 2.14064L6.62434 1.99922L6.62434 1.99922L6.48292 2.14064ZM6.59721 2.46354L6.399 2.49019V2.49019L6.59721 2.46354ZM6.59721 6.1542L6.399 6.12755V6.12755L6.59721 6.1542ZM6.16002 6.5914L6.13337 6.39318H6.13337L6.16002 6.5914ZM2.46936 6.5914L2.49601 6.39318H2.496L2.46936 6.5914ZM2.14645 6.47711L2.00503 6.61853L2.00503 6.61853L2.14645 6.47711ZM2.03216 6.1542L2.23037 6.12755H2.23037L2.03216 6.1542ZM2.03216 2.46354L2.23037 2.49019L2.23037 2.49019L2.03216 2.46354ZM3.46709 10.3765L3.46709 10.1765H3.46709V10.3765ZM3.5 10.3765L3.5 10.5765H3.5V10.3765ZM3.46707 10.3765L3.46706 10.5765H3.46707V10.3765ZM2.33611 10.4175L2.30946 10.2193H2.30946L2.33611 10.4175ZM1.43934 10.8158L1.29792 10.6744L1.43934 10.8158ZM1.04107 11.7126L0.842857 11.6859L1.04107 11.7126ZM1 12.8435H1.2V12.8435L1 12.8435ZM1 12.8435H0.800001V12.8436L1 12.8435ZM1 12.8765H1.2V12.8764L1 12.8765ZM1 14.5058L1.2 14.5058V14.5058H1ZM1 14.5387L0.800001 14.5387V14.5387H1ZM1 14.5388L1.2 14.5388V14.5388H1ZM1.04107 15.6697L0.842857 15.6964L1.04107 15.6697ZM1.43934 16.5665L1.29792 16.7079H1.29792L1.43934 16.5665ZM2.33611 16.9648L2.36276 16.7665H2.36276L2.33611 16.9648ZM3.46709 17.0058V16.8058H3.46707L3.46709 17.0058ZM5.16228 17.0058L5.1623 16.8058H5.16228V17.0058ZM6.29326 16.9648L6.26661 16.7665H6.26661L6.29326 16.9648ZM7.19003 16.5665L7.33145 16.7079H7.33145L7.19003 16.5665ZM7.5883 15.6697L7.39008 15.6431L7.5883 15.6697ZM7.62937 14.5387L7.42937 14.5387V14.5388L7.62937 14.5387ZM7.62937 14.5058H7.42937V14.5058L7.62937 14.5058ZM7.62937 12.8765L7.42937 12.8765V12.8765H7.62937ZM7.62937 12.8435L7.42937 12.8435V12.8435L7.62937 12.8435ZM7.5883 11.7126L7.39008 11.7392L7.5883 11.7126ZM7.19003 10.8158L7.33145 10.6744H7.33145L7.19003 10.8158ZM6.29326 10.4175L6.31991 10.2193H6.31991L6.29326 10.4175ZM5.1623 10.3765V10.5765H5.16231L5.1623 10.3765ZM5.16228 10.3765V10.1765H5.16228L5.16228 10.3765ZM5.12937 10.3765V10.5765H5.12937L5.12937 10.3765ZM2.46936 11.4086L2.49601 11.6068H2.49601L2.46936 11.4086ZM2.14645 11.5229L2.00503 11.3815H2.00503L2.14645 11.5229ZM6.16001 11.4086L6.13336 11.6068H6.13337L6.16001 11.4086ZM6.59721 11.8458L6.399 11.8725L6.59721 11.8458ZM6.59721 15.5365L6.399 15.5098L6.59721 15.5365ZM6.16002 15.9737L6.13337 15.7755H6.13337L6.16002 15.9737ZM2.46936 15.9737L2.49601 15.7755H2.496L2.46936 15.9737ZM2.14645 15.8594L2.00503 16.0008H2.00503L2.14645 15.8594ZM2.03216 15.5365L2.23037 15.5098H2.23037L2.03216 15.5365ZM2.03216 11.8458L2.23037 11.8725L2.03216 11.8458ZM12.8823 10.3765L12.8823 10.5765H12.8823V10.3765ZM12.8494 10.3765L12.8494 10.1765H12.8494V10.3765ZM14.5117 10.3765V10.5765H14.5117L14.5117 10.3765ZM14.5446 10.3765V10.1765H14.5446L14.5446 10.3765ZM14.5446 10.3765V10.5765H14.5446L14.5446 10.3765ZM15.6756 10.4175L15.7022 10.2193H15.7022L15.6756 10.4175ZM16.5723 10.8158L16.7138 10.6744H16.7138L16.5723 10.8158ZM16.9706 11.7126L17.1688 11.6859L16.9706 11.7126ZM17.0117 12.8435L17.2117 12.8436L17.0117 12.8435ZM17.0117 12.8765L16.8117 12.8765V12.8765H17.0117ZM17.0117 14.5058H16.8117V14.5058L17.0117 14.5058ZM17.0117 14.5387L17.2117 14.5387L17.0117 14.5387ZM16.9706 15.6697L17.1688 15.6964L16.9706 15.6697ZM16.5723 16.5665L16.7138 16.7079H16.7138L16.5723 16.5665ZM15.6756 16.9648L15.6489 16.7665L15.6756 16.9648ZM14.5446 17.0058L14.5446 16.8058H14.5446V17.0058ZM12.8494 17.0058V16.8058H12.8494L12.8494 17.0058ZM11.7184 16.9648L11.7451 16.7665H11.7451L11.7184 16.9648ZM10.4234 15.6697L10.2252 15.6964L10.4234 15.6697ZM10.3823 14.5388L10.5823 14.5388V14.5388H10.3823ZM10.3823 14.5387L10.1823 14.5387V14.5387H10.3823ZM10.3823 14.5058L10.5823 14.5058V14.5058H10.3823ZM10.3823 12.8765H10.5823V12.8765L10.3823 12.8765ZM10.3823 12.8435H10.1823V12.8436L10.3823 12.8435ZM10.3823 12.8435H10.5823V12.8435L10.3823 12.8435ZM10.4234 11.7126L10.2252 11.6859V11.6859L10.4234 11.7126ZM11.7184 10.4175L11.6918 10.2193H11.6918L11.7184 10.4175ZM12.8494 10.3765L12.8494 10.5765H12.8494V10.3765ZM11.8517 11.4086L11.8783 11.6068L11.8517 11.4086ZM11.4145 11.8458L11.6127 11.8725L11.4145 11.8458ZM11.4145 15.5365L11.6127 15.5098L11.4145 15.5365ZM11.8517 15.9737L11.8783 15.7755H11.8783L11.8517 15.9737ZM15.5423 15.9737L15.5157 15.7755H15.5157L15.5423 15.9737ZM15.9795 15.5365L16.1777 15.5631V15.5631L15.9795 15.5365ZM15.9795 11.8458L16.1777 11.8192V11.8192L15.9795 11.8458ZM15.5423 11.4086L15.5157 11.6068L15.5423 11.4086ZM12.8494 0.994188L12.8494 0.794188H12.8494V0.994188ZM12.8823 0.99419L12.8823 1.19419H12.8823V0.99419ZM12.8494 0.994188L12.8494 1.19419H12.8494V0.994188ZM11.7184 1.03526L11.6918 0.837044L11.7184 1.03526ZM10.8217 1.43353L10.6802 1.29211V1.29211L10.8217 1.43353ZM10.4234 2.33029L10.2252 2.30364V2.30365L10.4234 2.33029ZM10.3823 3.46126H10.5823V3.46125L10.3823 3.46126ZM10.3823 3.46128H10.1823V3.46128L10.3823 3.46128ZM10.3823 3.49419H10.5823V3.49418L10.3823 3.49419ZM10.3823 5.12355L10.5823 5.12356V5.12355H10.3823ZM10.3823 5.15647L10.1823 5.15646V5.15647H10.3823ZM10.3823 5.15649L10.5823 5.1565V5.15649H10.3823ZM10.4234 6.28745L10.2252 6.3141V6.3141L10.4234 6.28745ZM10.8217 7.18421L10.6802 7.32563V7.32564L10.8217 7.18421ZM11.7184 7.58248L11.7451 7.38427L11.7184 7.58248ZM12.8494 7.62355L12.8494 7.42355H12.8494L12.8494 7.62355ZM12.8823 7.62355V7.42355H12.8823L12.8823 7.62355ZM14.5117 7.62355L14.5117 7.42355H14.5117V7.62355ZM14.5446 7.62355L14.5446 7.42355H14.5446L14.5446 7.62355ZM15.6756 7.58248L15.6489 7.38427L15.6756 7.58248ZM16.5723 7.18421L16.7138 7.32564L16.7138 7.32563L16.5723 7.18421ZM16.9706 6.28745L17.1688 6.3141V6.3141L16.9706 6.28745ZM17.0117 5.15647L17.2117 5.15646V5.15646L17.0117 5.15647ZM17.0117 5.12355H16.8117V5.12357L17.0117 5.12355ZM17.0117 3.49419L16.8117 3.49418V3.49419H17.0117ZM17.0117 3.46127L17.2117 3.46128V3.46128L17.0117 3.46127ZM16.9706 2.33029L17.1688 2.30364V2.30364L16.9706 2.33029ZM16.5723 1.43353L16.7138 1.29211V1.29211L16.5723 1.43353ZM15.6756 1.03526L15.7022 0.837044L15.6756 1.03526ZM14.5446 0.994188V1.19419H14.5446L14.5446 0.994188ZM14.5446 0.994188V0.794188H14.5446L14.5446 0.994188ZM14.5117 0.99419V1.19419H14.5117L14.5117 0.99419ZM11.8517 2.02634L11.8783 2.22456L11.8517 2.02634ZM11.5288 2.14064L11.3873 1.99922V1.99922L11.5288 2.14064ZM15.5423 2.02634L15.5157 2.22456L15.5423 2.02634ZM15.8652 2.14064L16.0067 1.99922V1.99922L15.8652 2.14064ZM15.9795 2.46354L16.1777 2.43689V2.43689L15.9795 2.46354ZM15.9795 6.1542L16.1777 6.18085V6.18085L15.9795 6.1542ZM15.5423 6.5914L15.5157 6.39318L15.5423 6.5914ZM11.8517 6.5914L11.8783 6.39318L11.8517 6.5914ZM11.4145 6.1542L11.6127 6.12755V6.12755L11.4145 6.1542ZM11.4145 2.46354L11.6127 2.49019V2.49019L11.4145 2.46354ZM3.46707 1.19419L3.49999 1.19419L3.50002 0.79419L3.4671 0.794188L3.46707 1.19419ZM3.46706 1.19419H3.46709V0.794188H3.46706V1.19419ZM2.36276 1.23348C2.65235 1.19454 3.01899 1.19416 3.46705 1.19419L3.46707 0.794188C3.02866 0.794164 2.63151 0.793745 2.30946 0.837044L2.36276 1.23348ZM1.58076 1.57495C1.79218 1.36354 2.05705 1.27458 2.36276 1.23348L2.30946 0.837044C1.95965 0.884074 1.59617 0.993862 1.29792 1.29211L1.58076 1.57495ZM1.23929 2.35694C1.28039 2.05123 1.36935 1.78637 1.58076 1.57495L1.29792 1.29211C0.999675 1.59036 0.889887 1.95384 0.842857 2.30364L1.23929 2.35694ZM1.2 3.46123C1.19998 3.01318 1.20036 2.64654 1.23929 2.35694L0.842857 2.30364C0.799558 2.6257 0.799978 3.02285 0.800001 3.46126L1.2 3.46123ZM1.2 3.46128V3.46124H0.800001V3.46128H1.2ZM1.2 3.49418L1.2 3.46126L0.800001 3.46129L0.800004 3.4942L1.2 3.49418ZM1.2 5.12355V3.49419H0.800004V5.12355H1.2ZM1.2 5.15648L1.2 5.12357L0.800004 5.12354L0.800001 5.15645L1.2 5.15648ZM1.2 5.1565V5.15647H0.800001V5.1565H1.2ZM1.23929 6.2608C1.20036 5.97121 1.19998 5.60456 1.2 5.15651L0.800001 5.15649C0.799978 5.5949 0.799558 5.99205 0.842857 6.3141L1.23929 6.2608ZM1.58076 7.04279C1.36935 6.83138 1.28039 6.56651 1.23929 6.2608L0.842857 6.3141C0.889887 6.6639 0.999675 7.02739 1.29792 7.32563L1.58076 7.04279ZM2.36276 7.38427C2.05705 7.34316 1.79218 7.25421 1.58076 7.04279L1.29792 7.32564C1.59617 7.62388 1.95965 7.73367 2.30946 7.7807L2.36276 7.38427ZM3.46708 7.42355C3.01901 7.42358 2.65236 7.4232 2.36276 7.38427L2.30946 7.7807C2.63152 7.824 3.02868 7.82358 3.4671 7.82355L3.46708 7.42355ZM3.5 7.42355L3.46708 7.42355L3.46709 7.82355L3.50001 7.82355L3.5 7.42355ZM5.12937 7.42355H3.5V7.82355H5.12937V7.42355ZM5.16229 7.42355L5.12937 7.42355L5.12936 7.82355L5.16228 7.82355L5.16229 7.42355ZM6.26661 7.38427C5.97701 7.4232 5.61036 7.42358 5.1623 7.42355L5.16227 7.82355C5.60069 7.82358 5.99785 7.824 6.31991 7.7807L6.26661 7.38427ZM7.04861 7.04279C6.83719 7.25421 6.57233 7.34316 6.26661 7.38427L6.31991 7.7807C6.66972 7.73367 7.0332 7.62388 7.33145 7.32564L7.04861 7.04279ZM7.39008 6.2608C7.34898 6.56651 7.26002 6.83138 7.04861 7.04279L7.33145 7.32563C7.6297 7.02739 7.73948 6.6639 7.78651 6.3141L7.39008 6.2608ZM7.42937 5.15648C7.42939 5.60455 7.42902 5.9712 7.39008 6.2608L7.78651 6.3141C7.82981 5.99204 7.82939 5.59488 7.82937 5.15646L7.42937 5.15648ZM7.42937 5.12356L7.42937 5.15648L7.82937 5.15646L7.82937 5.12355L7.42937 5.12356ZM7.42937 3.49419V5.12355H7.82937V3.49419H7.42937ZM7.42937 3.46127L7.42937 3.49418L7.82937 3.4942L7.82937 3.46128L7.42937 3.46127ZM7.39008 2.35694C7.42902 2.64654 7.42939 3.0132 7.42937 3.46126L7.82937 3.46128C7.82939 3.02286 7.82981 2.6257 7.78651 2.30364L7.39008 2.35694ZM7.04861 1.57495C7.26002 1.78637 7.34898 2.05123 7.39008 2.35694L7.78651 2.30364C7.73948 1.95384 7.6297 1.59036 7.33145 1.29211L7.04861 1.57495ZM6.26661 1.23348C6.57233 1.27458 6.83719 1.36354 7.04861 1.57495L7.33145 1.29211C7.0332 0.993862 6.66972 0.884074 6.31991 0.837044L6.26661 1.23348ZM5.16232 1.19419C5.61038 1.19416 5.97702 1.19454 6.26661 1.23348L6.31991 0.837044C5.99786 0.793745 5.60071 0.794164 5.1623 0.794188L5.16232 1.19419ZM5.16228 1.19419H5.16231V0.794188H5.16228V1.19419ZM5.12938 1.19419L5.1623 1.19419L5.16227 0.794188L5.12935 0.79419L5.12938 1.19419ZM3.5 1.19419H5.12937V0.79419H3.5V1.19419ZM2.44271 1.82813C2.20325 1.86032 2.08625 1.91799 2.00503 1.99921L2.28787 2.28206C2.28948 2.28045 2.29419 2.2745 2.31717 2.26502C2.34468 2.25366 2.39761 2.23779 2.496 2.22456L2.44271 1.82813ZM3.5 1.79419C3.02035 1.79419 2.69044 1.79482 2.44271 1.82813L2.49601 2.22456C2.71078 2.19568 3.00858 2.19419 3.5 2.19419V1.79419ZM5.12937 1.79419H3.5V2.19419H5.12937V1.79419ZM6.18666 1.82813C5.93893 1.79482 5.60902 1.79419 5.12937 1.79419V2.19419C5.62079 2.19419 5.91859 2.19568 6.13337 2.22456L6.18666 1.82813ZM6.62434 1.99922C6.54312 1.91799 6.42612 1.86032 6.18666 1.82813L6.13337 2.22456C6.23176 2.23779 6.28469 2.25366 6.3122 2.26502C6.33518 2.2745 6.33989 2.28045 6.3415 2.28206L6.62434 1.99922ZM6.79543 2.43689C6.76324 2.19744 6.70557 2.08044 6.62434 1.99922L6.3415 2.28206C6.34311 2.28367 6.34905 2.28838 6.35854 2.31136C6.3699 2.33887 6.38577 2.3918 6.399 2.49019L6.79543 2.43689ZM6.82937 3.49419C6.82937 3.01453 6.82874 2.68462 6.79543 2.43689L6.399 2.49019C6.42787 2.70497 6.42937 3.00277 6.42937 3.49419H6.82937ZM6.82937 5.12355V3.49419H6.42937V5.12355H6.82937ZM6.79543 6.18085C6.82874 5.93312 6.82937 5.60321 6.82937 5.12355H6.42937C6.42937 5.61498 6.42787 5.91278 6.399 6.12755L6.79543 6.18085ZM6.62434 6.61853C6.70557 6.5373 6.76324 6.4203 6.79543 6.18085L6.399 6.12755C6.38577 6.22594 6.3699 6.27887 6.35854 6.30639C6.34905 6.32937 6.34311 6.33408 6.3415 6.33569L6.62434 6.61853ZM6.18666 6.78962C6.42612 6.75742 6.54312 6.69975 6.62434 6.61853L6.3415 6.33569C6.33989 6.3373 6.33518 6.34324 6.3122 6.35273C6.28469 6.36409 6.23176 6.37996 6.13337 6.39318L6.18666 6.78962ZM5.12937 6.82355C5.60902 6.82355 5.93893 6.82292 6.18667 6.78962L6.13337 6.39318C5.91859 6.42206 5.62079 6.42355 5.12937 6.42355V6.82355ZM3.5 6.82355H5.12937V6.42355H3.5V6.82355ZM2.44271 6.78962C2.69044 6.82292 3.02035 6.82355 3.5 6.82355V6.42355C3.00858 6.42355 2.71078 6.42206 2.49601 6.39318L2.44271 6.78962ZM2.00503 6.61853C2.08625 6.69975 2.20325 6.75742 2.44271 6.78962L2.496 6.39318C2.39761 6.37996 2.34468 6.36409 2.31717 6.35273C2.29419 6.34324 2.28948 6.3373 2.28787 6.33569L2.00503 6.61853ZM1.83394 6.18085C1.86613 6.4203 1.9238 6.5373 2.00503 6.61853L2.28787 6.33569C2.28626 6.33408 2.28032 6.32937 2.27083 6.30639C2.25947 6.27887 2.2436 6.22594 2.23037 6.12755L1.83394 6.18085ZM1.8 5.12355C1.8 5.60321 1.80063 5.93312 1.83394 6.18085L2.23037 6.12755C2.2015 5.91278 2.2 5.61498 2.2 5.12355H1.8ZM1.8 3.49419V5.12355H2.2V3.49419H1.8ZM1.83394 2.43689C1.80063 2.68462 1.8 3.01453 1.8 3.49419H2.2C2.2 3.00277 2.2015 2.70497 2.23037 2.49019L1.83394 2.43689ZM2.00503 1.99922C1.9238 2.08044 1.86613 2.19744 1.83394 2.43689L2.23037 2.49019C2.2436 2.3918 2.25947 2.33887 2.27083 2.31136C2.28032 2.28838 2.28626 2.28367 2.28787 2.28206L2.00503 1.99922ZM3.46708 10.5765L3.5 10.5765L3.50001 10.1765L3.46709 10.1765L3.46708 10.5765ZM3.46707 10.5765H3.46709V10.1765H3.46707V10.5765ZM2.36276 10.6157C2.65235 10.5768 3.019 10.5764 3.46706 10.5765L3.46708 10.1765C3.02867 10.1764 2.63151 10.176 2.30946 10.2193L2.36276 10.6157ZM1.58076 10.9572C1.79218 10.7458 2.05705 10.6569 2.36276 10.6157L2.30946 10.2193C1.95965 10.2663 1.59617 10.3761 1.29792 10.6744L1.58076 10.9572ZM1.23929 11.7392C1.28039 11.4335 1.36935 11.1686 1.58076 10.9572L1.29792 10.6744C0.999675 10.9726 0.889887 11.3361 0.842857 11.6859L1.23929 11.7392ZM1.2 12.8435C1.19998 12.3955 1.20036 12.0288 1.23929 11.7392L0.842857 11.6859C0.799558 12.008 0.799978 12.4051 0.800001 12.8435L1.2 12.8435ZM1.2 12.8435V12.8435H0.800001V12.8435H1.2ZM1.2 12.8764L1.2 12.8435L0.800001 12.8436L0.800004 12.8765L1.2 12.8764ZM1.2 14.5058V12.8765H0.800004V14.5058H1.2ZM1.2 14.5388L1.2 14.5058L0.800004 14.5058L0.800001 14.5387L1.2 14.5388ZM1.2 14.5388V14.5387H0.800001V14.5388H1.2ZM1.23929 15.6431C1.20036 15.3535 1.19998 14.9868 1.2 14.5388L0.800001 14.5388C0.799978 14.9772 0.799558 15.3743 0.842857 15.6964L1.23929 15.6431ZM1.58076 16.4251C1.36935 16.2136 1.28039 15.9488 1.23929 15.6431L0.842857 15.6964C0.889887 16.0462 0.999675 16.4097 1.29792 16.7079L1.58076 16.4251ZM2.36276 16.7665C2.05705 16.7254 1.79218 16.6365 1.58076 16.4251L1.29792 16.7079C1.59617 17.0062 1.95965 17.1159 2.30946 17.163L2.36276 16.7665ZM3.46707 16.8058C3.01901 16.8059 2.65236 16.8055 2.36276 16.7665L2.30946 17.163C2.63152 17.2063 3.02868 17.2059 3.4671 17.2058L3.46707 16.8058ZM3.5 16.8058H3.46709V17.2058H3.5V16.8058ZM5.12937 16.8058H3.5V17.2058H5.12937V16.8058ZM5.16228 16.8058H5.12937V17.2058H5.16228V16.8058ZM6.26661 16.7665C5.97701 16.8055 5.61036 16.8059 5.1623 16.8058L5.16227 17.2058C5.60069 17.2059 5.99785 17.2063 6.31991 17.163L6.26661 16.7665ZM7.04861 16.4251C6.83719 16.6365 6.57233 16.7254 6.26661 16.7665L6.31991 17.163C6.66972 17.1159 7.0332 17.0062 7.33145 16.7079L7.04861 16.4251ZM7.39008 15.6431C7.34898 15.9488 7.26002 16.2136 7.04861 16.4251L7.33145 16.7079C7.6297 16.4097 7.73948 16.0462 7.78651 15.6964L7.39008 15.6431ZM7.42937 14.5388C7.42939 14.9868 7.42902 15.3535 7.39008 15.6431L7.78651 15.6964C7.82981 15.3743 7.82939 14.9772 7.82937 14.5387L7.42937 14.5388ZM7.42937 14.5058L7.42937 14.5387L7.82937 14.5387L7.82937 14.5058L7.42937 14.5058ZM7.42937 12.8765V14.5058H7.82937V12.8765H7.42937ZM7.42937 12.8435L7.42937 12.8765L7.82937 12.8765L7.82937 12.8436L7.42937 12.8435ZM7.39008 11.7392C7.42902 12.0288 7.42939 12.3955 7.42937 12.8435L7.82937 12.8436C7.82939 12.4051 7.82981 12.008 7.78651 11.6859L7.39008 11.7392ZM7.04861 10.9572C7.26002 11.1686 7.34898 11.4335 7.39008 11.7392L7.78651 11.6859C7.73948 11.3361 7.6297 10.9726 7.33145 10.6744L7.04861 10.9572ZM6.26661 10.6157C6.57233 10.6569 6.83719 10.7458 7.04861 10.9572L7.33145 10.6744C7.0332 10.3761 6.66972 10.2663 6.31991 10.2193L6.26661 10.6157ZM5.16231 10.5765C5.61037 10.5764 5.97702 10.5768 6.26661 10.6157L6.31991 10.2193C5.99786 10.176 5.6007 10.1764 5.16229 10.1765L5.16231 10.5765ZM5.16228 10.5765H5.1623V10.1765H5.16228V10.5765ZM5.12937 10.5765L5.16229 10.5765L5.16228 10.1765L5.12936 10.1765L5.12937 10.5765ZM3.5 10.5765H5.12937V10.1765H3.5V10.5765ZM2.44271 11.2104C2.20325 11.2426 2.08625 11.3003 2.00503 11.3815L2.28787 11.6643C2.28948 11.6627 2.29419 11.6568 2.31717 11.6473C2.34468 11.6359 2.39761 11.6201 2.49601 11.6068L2.44271 11.2104ZM3.5 11.1765C3.02035 11.1765 2.69044 11.1771 2.44271 11.2104L2.49601 11.6068C2.71078 11.578 3.00858 11.5765 3.5 11.5765V11.1765ZM5.12937 11.1765H3.5V11.5765H5.12937V11.1765ZM6.18666 11.2104C5.93893 11.1771 5.60902 11.1765 5.12937 11.1765V11.5765C5.62079 11.5765 5.91859 11.578 6.13336 11.6068L6.18666 11.2104ZM6.62434 11.3815C6.54312 11.3003 6.42612 11.2426 6.18666 11.2104L6.13337 11.6068C6.23176 11.6201 6.28469 11.6359 6.3122 11.6473C6.33518 11.6568 6.33989 11.6627 6.3415 11.6643L6.62434 11.3815ZM6.79543 11.8192C6.76324 11.5797 6.70557 11.4627 6.62434 11.3815L6.3415 11.6643C6.34311 11.6659 6.34905 11.6706 6.35854 11.6936C6.3699 11.7211 6.38577 11.7741 6.399 11.8725L6.79543 11.8192ZM6.82937 12.8765C6.82937 12.3968 6.82874 12.0669 6.79543 11.8192L6.399 11.8725C6.42787 12.0872 6.42937 12.385 6.42937 12.8765H6.82937ZM6.82937 14.5058V12.8765H6.42937V14.5058H6.82937ZM6.79543 15.5631C6.82874 15.3154 6.82937 14.9855 6.82937 14.5058H6.42937C6.42937 14.9972 6.42787 15.295 6.399 15.5098L6.79543 15.5631ZM6.62434 16.0008C6.70557 15.9196 6.76324 15.8026 6.79543 15.5631L6.399 15.5098C6.38577 15.6082 6.3699 15.6611 6.35854 15.6887C6.34905 15.7116 6.34311 15.7163 6.3415 15.718L6.62434 16.0008ZM6.18666 16.1719C6.42612 16.1397 6.54312 16.082 6.62434 16.0008L6.3415 15.718C6.33989 15.7196 6.33518 15.7255 6.3122 15.735C6.28469 15.7464 6.23176 15.7622 6.13337 15.7755L6.18666 16.1719ZM5.12937 16.2058C5.60902 16.2058 5.93894 16.2052 6.18667 16.1719L6.13337 15.7755C5.91859 15.8043 5.62079 15.8058 5.12937 15.8058V16.2058ZM3.5 16.2058H5.12937V15.8058H3.5V16.2058ZM2.44271 16.1719C2.69044 16.2052 3.02035 16.2058 3.5 16.2058V15.8058C3.00858 15.8058 2.71078 15.8043 2.49601 15.7755L2.44271 16.1719ZM2.00503 16.0008C2.08625 16.082 2.20325 16.1397 2.44271 16.1719L2.496 15.7755C2.39761 15.7622 2.34468 15.7464 2.31717 15.735C2.29419 15.7255 2.28948 15.7196 2.28787 15.718L2.00503 16.0008ZM1.83394 15.5631C1.86613 15.8026 1.9238 15.9196 2.00503 16.0008L2.28787 15.718C2.28626 15.7163 2.28032 15.7116 2.27083 15.6887C2.25947 15.6611 2.2436 15.6082 2.23037 15.5098L1.83394 15.5631ZM1.8 14.5058C1.8 14.9855 1.80063 15.3154 1.83394 15.5631L2.23037 15.5098C2.2015 15.295 2.2 14.9972 2.2 14.5058H1.8ZM1.8 12.8765V14.5058H2.2V12.8765H1.8ZM1.83394 11.8192C1.80063 12.0669 1.8 12.3968 1.8 12.8765H2.2C2.2 12.385 2.2015 12.0872 2.23037 11.8725L1.83394 11.8192ZM2.00503 11.3815C1.9238 11.4627 1.86613 11.5797 1.83394 11.8192L2.23037 11.8725C2.2436 11.7741 2.25947 11.7211 2.27083 11.6936C2.28032 11.6706 2.28626 11.6659 2.28787 11.6643L2.00503 11.3815ZM12.8823 10.1765L12.8494 10.1765L12.8494 10.5765L12.8823 10.5765L12.8823 10.1765ZM14.5117 10.1765H12.8823V10.5765H14.5117V10.1765ZM14.5446 10.1765L14.5117 10.1765L14.5117 10.5765L14.5446 10.5765L14.5446 10.1765ZM14.5446 10.1765H14.5446V10.5765H14.5446V10.1765ZM15.7022 10.2193C15.3802 10.176 14.983 10.1764 14.5446 10.1765L14.5446 10.5765C14.9927 10.5764 15.3593 10.5768 15.6489 10.6157L15.7022 10.2193ZM16.7138 10.6744C16.4155 10.3761 16.052 10.2663 15.7022 10.2193L15.6489 10.6157C15.9546 10.6569 16.2195 10.7458 16.4309 10.9572L16.7138 10.6744ZM17.1688 11.6859C17.1218 11.3361 17.012 10.9726 16.7138 10.6744L16.4309 10.9572C16.6423 11.1686 16.7313 11.4335 16.7724 11.7392L17.1688 11.6859ZM17.2117 12.8436C17.2117 12.4051 17.2121 12.008 17.1688 11.6859L16.7724 11.7392C16.8113 12.0288 16.8117 12.3955 16.8117 12.8435L17.2117 12.8436ZM17.2117 12.8765L17.2117 12.8436L16.8117 12.8435L16.8117 12.8765L17.2117 12.8765ZM17.2117 14.5058V12.8765H16.8117V14.5058H17.2117ZM17.2117 14.5387L17.2117 14.5058L16.8117 14.5058L16.8117 14.5388L17.2117 14.5387ZM17.1688 15.6964C17.2121 15.3743 17.2117 14.9772 17.2117 14.5387L16.8117 14.5388C16.8117 14.9868 16.8113 15.3535 16.7724 15.6431L17.1688 15.6964ZM16.7138 16.7079C17.012 16.4097 17.1218 16.0462 17.1688 15.6964L16.7724 15.6431C16.7313 15.9488 16.6423 16.2136 16.4309 16.4251L16.7138 16.7079ZM15.7022 17.163C16.052 17.1159 16.4155 17.0062 16.7138 16.7079L16.4309 16.4251C16.2195 16.6365 15.9546 16.7254 15.6489 16.7665L15.7022 17.163ZM14.5446 17.2058C14.983 17.2059 15.3802 17.2063 15.7022 17.163L15.6489 16.7665C15.3593 16.8055 14.9927 16.8059 14.5446 16.8058L14.5446 17.2058ZM14.5117 17.2058H14.5446V16.8058H14.5117V17.2058ZM12.8823 17.2058H14.5117V16.8058H12.8823V17.2058ZM12.8494 17.2058H12.8823V16.8058H12.8494V17.2058ZM11.6918 17.163C12.0138 17.2063 12.411 17.2059 12.8494 17.2058L12.8494 16.8058C12.4013 16.8059 12.0347 16.8055 11.7451 16.7665L11.6918 17.163ZM10.6802 16.7079C10.9785 17.0062 11.342 17.1159 11.6918 17.163L11.7451 16.7665C11.4394 16.7254 11.1745 16.6365 10.9631 16.4251L10.6802 16.7079ZM10.2252 15.6964C10.2722 16.0462 10.382 16.4097 10.6802 16.7079L10.9631 16.4251C10.7517 16.2136 10.6627 15.9488 10.6216 15.6431L10.2252 15.6964ZM10.1823 14.5387C10.1823 14.9772 10.1819 15.3743 10.2252 15.6964L10.6216 15.6431C10.5827 15.3535 10.5823 14.9868 10.5823 14.5388L10.1823 14.5387ZM10.1823 14.5387V14.5388H10.5823V14.5387H10.1823ZM10.1823 14.5058L10.1823 14.5387L10.5823 14.5387L10.5823 14.5058L10.1823 14.5058ZM10.1823 12.8765V14.5058H10.5823V12.8765H10.1823ZM10.1823 12.8436L10.1823 12.8765L10.5823 12.8765L10.5823 12.8435L10.1823 12.8436ZM10.1823 12.8435V12.8435H10.5823V12.8435H10.1823ZM10.2252 11.6859C10.1819 12.008 10.1823 12.4051 10.1823 12.8435L10.5823 12.8435C10.5823 12.3955 10.5827 12.0288 10.6216 11.7392L10.2252 11.6859ZM10.6802 10.6744C10.382 10.9726 10.2722 11.3361 10.2252 11.6859L10.6216 11.7392C10.6627 11.4335 10.7517 11.1686 10.9631 10.9572L10.6802 10.6744ZM11.6918 10.2193C11.342 10.2663 10.9785 10.3761 10.6802 10.6744L10.9631 10.9572C11.1745 10.7458 11.4394 10.6569 11.7451 10.6157L11.6918 10.2193ZM12.8494 10.1765C12.411 10.1764 12.0138 10.176 11.6918 10.2193L11.7451 10.6157C12.0347 10.5768 12.4013 10.5764 12.8494 10.5765L12.8494 10.1765ZM12.8494 10.1765H12.8494V10.5765H12.8494V10.1765ZM11.6702 11.6643C11.6718 11.6627 11.6765 11.6568 11.6995 11.6473C11.727 11.6359 11.7799 11.6201 11.8783 11.6068L11.825 11.2104C11.5856 11.2426 11.4686 11.3003 11.3873 11.3815L11.6702 11.6643ZM11.6127 11.8725C11.6259 11.7741 11.6418 11.7211 11.6531 11.6936C11.6626 11.6706 11.6686 11.6659 11.6702 11.6643L11.3873 11.3815C11.3061 11.4627 11.2484 11.5797 11.2162 11.8192L11.6127 11.8725ZM11.5823 12.8765C11.5823 12.385 11.5838 12.0872 11.6127 11.8725L11.2162 11.8192C11.1829 12.0669 11.1823 12.3968 11.1823 12.8765H11.5823ZM11.5823 14.5058V12.8765H11.1823V14.5058H11.5823ZM11.6127 15.5098C11.5838 15.295 11.5823 14.9972 11.5823 14.5058H11.1823C11.1823 14.9855 11.1829 15.3154 11.2162 15.5631L11.6127 15.5098ZM11.6702 15.718C11.6686 15.7163 11.6626 15.7116 11.6531 15.6887C11.6418 15.6611 11.6259 15.6082 11.6127 15.5098L11.2162 15.5631C11.2484 15.8026 11.3061 15.9196 11.3873 16.0008L11.6702 15.718ZM11.8783 15.7755C11.7799 15.7622 11.727 15.7464 11.6995 15.735C11.6765 15.7255 11.6718 15.7196 11.6702 15.718L11.3873 16.0008C11.4686 16.082 11.5856 16.1397 11.825 16.1719L11.8783 15.7755ZM12.8823 15.8058C12.3909 15.8058 12.0931 15.8043 11.8783 15.7755L11.825 16.1719C12.0727 16.2052 12.4027 16.2058 12.8823 16.2058V15.8058ZM14.5117 15.8058H12.8823V16.2058H14.5117V15.8058ZM15.5157 15.7755C15.3009 15.8043 15.0031 15.8058 14.5117 15.8058V16.2058C14.9913 16.2058 15.3212 16.2052 15.569 16.1719L15.5157 15.7755ZM15.7238 15.718C15.7222 15.7196 15.7175 15.7255 15.6945 15.735C15.667 15.7464 15.6141 15.7622 15.5157 15.7755L15.569 16.1719C15.8084 16.1397 15.9254 16.082 16.0067 16.0008L15.7238 15.718ZM15.7813 15.5098C15.7681 15.6082 15.7522 15.6611 15.7409 15.6887C15.7314 15.7116 15.7254 15.7163 15.7238 15.718L16.0067 16.0008C16.0879 15.9196 16.1455 15.8026 16.1777 15.5631L15.7813 15.5098ZM15.8117 14.5058C15.8117 14.9972 15.8102 15.295 15.7813 15.5098L16.1777 15.5631C16.211 15.3154 16.2117 14.9855 16.2117 14.5058H15.8117ZM15.8117 12.8765V14.5058H16.2117V12.8765H15.8117ZM15.7813 11.8725C15.8102 12.0872 15.8117 12.385 15.8117 12.8765H16.2117C16.2117 12.3968 16.211 12.0669 16.1777 11.8192L15.7813 11.8725ZM15.7238 11.6643C15.7254 11.6659 15.7314 11.6706 15.7409 11.6936C15.7522 11.7211 15.7681 11.7741 15.7813 11.8725L16.1777 11.8192C16.1455 11.5797 16.0879 11.4627 16.0067 11.3815L15.7238 11.6643ZM15.5157 11.6068C15.6141 11.6201 15.667 11.6359 15.6945 11.6473C15.7175 11.6568 15.7222 11.6627 15.7238 11.6643L16.0067 11.3815C15.9254 11.3003 15.8084 11.2426 15.569 11.2104L15.5157 11.6068ZM14.5117 11.5765C15.0031 11.5765 15.3009 11.578 15.5157 11.6068L15.569 11.2104C15.3212 11.1771 14.9913 11.1765 14.5117 11.1765V11.5765ZM12.8823 11.5765H14.5117V11.1765H12.8823V11.5765ZM11.8783 11.6068C12.0931 11.578 12.3909 11.5765 12.8823 11.5765V11.1765C12.4027 11.1765 12.0727 11.1771 11.825 11.2104L11.8783 11.6068ZM12.8494 1.19419L12.8823 1.19419L12.8823 0.79419L12.8494 0.794188L12.8494 1.19419ZM12.8494 1.19419H12.8494V0.794188H12.8494V1.19419ZM11.7451 1.23348C12.0347 1.19454 12.4013 1.19416 12.8494 1.19419L12.8494 0.794188C12.411 0.794164 12.0138 0.793745 11.6918 0.837044L11.7451 1.23348ZM10.9631 1.57495C11.1745 1.36354 11.4394 1.27458 11.7451 1.23348L11.6918 0.837044C11.342 0.884074 10.9785 0.993862 10.6802 1.29211L10.9631 1.57495ZM10.6216 2.35694C10.6627 2.05123 10.7517 1.78637 10.9631 1.57495L10.6802 1.29211C10.382 1.59036 10.2722 1.95384 10.2252 2.30364L10.6216 2.35694ZM10.5823 3.46125C10.5823 3.01319 10.5827 2.64654 10.6216 2.35694L10.2252 2.30365C10.1819 2.6257 10.1823 3.02285 10.1823 3.46127L10.5823 3.46125ZM10.5823 3.46128V3.46126H10.1823V3.46128H10.5823ZM10.5823 3.49418L10.5823 3.46127L10.1823 3.46128L10.1823 3.4942L10.5823 3.49418ZM10.5823 5.12355V3.49419H10.1823V5.12355H10.5823ZM10.5823 5.15647L10.5823 5.12356L10.1823 5.12355L10.1823 5.15646L10.5823 5.15647ZM10.5823 5.15649V5.15647H10.1823V5.15649H10.5823ZM10.6216 6.2608C10.5827 5.9712 10.5823 5.60456 10.5823 5.1565L10.1823 5.15648C10.1823 5.59489 10.1819 5.99204 10.2252 6.3141L10.6216 6.2608ZM10.9631 7.04279C10.7517 6.83138 10.6627 6.56651 10.6216 6.2608L10.2252 6.3141C10.2722 6.6639 10.382 7.02739 10.6802 7.32563L10.9631 7.04279ZM11.7451 7.38427C11.4394 7.34316 11.1745 7.25421 10.9631 7.04279L10.6802 7.32564C10.9785 7.62388 11.342 7.73367 11.6918 7.7807L11.7451 7.38427ZM12.8494 7.42355C12.4013 7.42358 12.0347 7.4232 11.7451 7.38427L11.6918 7.7807C12.0138 7.824 12.411 7.82358 12.8494 7.82355L12.8494 7.42355ZM12.8823 7.42355L12.8494 7.42355L12.8494 7.82355L12.8823 7.82355L12.8823 7.42355ZM14.5117 7.42355H12.8823V7.82355H14.5117V7.42355ZM14.5446 7.42355L14.5117 7.42355L14.5117 7.82355L14.5446 7.82355L14.5446 7.42355ZM15.6489 7.38427C15.3593 7.4232 14.9927 7.42358 14.5446 7.42355L14.5446 7.82355C14.983 7.82358 15.3802 7.824 15.7022 7.7807L15.6489 7.38427ZM16.4309 7.04279C16.2195 7.25421 15.9546 7.34316 15.6489 7.38427L15.7022 7.7807C16.052 7.73367 16.4155 7.62388 16.7138 7.32564L16.4309 7.04279ZM16.7724 6.2608C16.7313 6.56651 16.6423 6.83138 16.4309 7.04279L16.7138 7.32563C17.012 7.02739 17.1218 6.6639 17.1688 6.3141L16.7724 6.2608ZM16.8117 5.15648C16.8117 5.60455 16.8113 5.9712 16.7724 6.2608L17.1688 6.3141C17.2121 5.99204 17.2117 5.59488 17.2117 5.15646L16.8117 5.15648ZM16.8117 5.12357L16.8117 5.15648L17.2117 5.15646L17.2117 5.12354L16.8117 5.12357ZM16.8117 3.49419V5.12355H17.2117V3.49419H16.8117ZM16.8117 3.46126L16.8117 3.49418L17.2117 3.4942L17.2117 3.46128L16.8117 3.46126ZM16.7724 2.35694C16.8113 2.64654 16.8117 3.0132 16.8117 3.46126L17.2117 3.46128C17.2117 3.02286 17.2121 2.6257 17.1688 2.30364L16.7724 2.35694ZM16.4309 1.57495C16.6423 1.78637 16.7313 2.05123 16.7724 2.35694L17.1688 2.30364C17.1218 1.95384 17.012 1.59036 16.7138 1.29211L16.4309 1.57495ZM15.6489 1.23348C15.9546 1.27458 16.2195 1.36354 16.4309 1.57495L16.7138 1.29211C16.4155 0.993862 16.052 0.884074 15.7022 0.837044L15.6489 1.23348ZM14.5446 1.19419C14.9927 1.19416 15.3593 1.19454 15.6489 1.23348L15.7022 0.837044C15.3802 0.793745 14.983 0.794164 14.5446 0.794188L14.5446 1.19419ZM14.5446 1.19419H14.5446V0.794188H14.5446V1.19419ZM14.5117 1.19419L14.5446 1.19419L14.5446 0.794188L14.5117 0.79419L14.5117 1.19419ZM12.8823 1.19419H14.5117V0.79419H12.8823V1.19419ZM11.825 1.82813C11.5856 1.86032 11.4686 1.91799 11.3873 1.99922L11.6702 2.28206C11.6718 2.28045 11.6765 2.2745 11.6995 2.26502C11.727 2.25366 11.7799 2.23779 11.8783 2.22456L11.825 1.82813ZM12.8823 1.79419C12.4027 1.79419 12.0727 1.79482 11.825 1.82813L11.8783 2.22456C12.0931 2.19568 12.3909 2.19419 12.8823 2.19419V1.79419ZM14.5117 1.79419H12.8823V2.19419H14.5117V1.79419ZM15.569 1.82813C15.3212 1.79482 14.9913 1.79419 14.5117 1.79419V2.19419C15.0031 2.19419 15.3009 2.19568 15.5157 2.22456L15.569 1.82813ZM16.0067 1.99922C15.9254 1.91799 15.8084 1.86032 15.569 1.82813L15.5157 2.22456C15.6141 2.23779 15.667 2.25366 15.6945 2.26502C15.7175 2.2745 15.7222 2.28045 15.7238 2.28206L16.0067 1.99922ZM16.1777 2.43689C16.1455 2.19744 16.0879 2.08044 16.0067 1.99922L15.7238 2.28206C15.7254 2.28367 15.7314 2.28838 15.7409 2.31136C15.7522 2.33887 15.7681 2.3918 15.7813 2.49019L16.1777 2.43689ZM16.2117 3.49419C16.2117 3.01453 16.211 2.68462 16.1777 2.43689L15.7813 2.49019C15.8102 2.70497 15.8117 3.00277 15.8117 3.49419H16.2117ZM16.2117 5.12355V3.49419H15.8117V5.12355H16.2117ZM16.1777 6.18085C16.211 5.93312 16.2117 5.60321 16.2117 5.12355H15.8117C15.8117 5.61498 15.8102 5.91278 15.7813 6.12755L16.1777 6.18085ZM16.0067 6.61853C16.0879 6.5373 16.1455 6.42031 16.1777 6.18085L15.7813 6.12755C15.7681 6.22594 15.7522 6.27887 15.7409 6.30639C15.7314 6.32937 15.7254 6.33408 15.7238 6.33569L16.0067 6.61853ZM15.569 6.78962C15.8084 6.75742 15.9254 6.69975 16.0067 6.61853L15.7238 6.33569C15.7222 6.3373 15.7175 6.34324 15.6945 6.35273C15.667 6.36409 15.6141 6.37996 15.5157 6.39318L15.569 6.78962ZM14.5117 6.82355C14.9913 6.82355 15.3212 6.82292 15.569 6.78962L15.5157 6.39318C15.3009 6.42206 15.0031 6.42355 14.5117 6.42355V6.82355ZM12.8823 6.82355H14.5117V6.42355H12.8823V6.82355ZM11.825 6.78962C12.0727 6.82292 12.4027 6.82355 12.8823 6.82355V6.42355C12.3909 6.42355 12.0931 6.42206 11.8783 6.39318L11.825 6.78962ZM11.3873 6.61853C11.4686 6.69975 11.5856 6.75742 11.825 6.78962L11.8783 6.39318C11.7799 6.37996 11.727 6.36409 11.6995 6.35273C11.6765 6.34324 11.6718 6.3373 11.6702 6.33569L11.3873 6.61853ZM11.2162 6.18085C11.2484 6.4203 11.3061 6.5373 11.3873 6.61853L11.6702 6.33569C11.6686 6.33408 11.6626 6.32937 11.6531 6.30639C11.6418 6.27887 11.6259 6.22594 11.6127 6.12755L11.2162 6.18085ZM11.1823 5.12355C11.1823 5.60321 11.1829 5.93312 11.2162 6.18085L11.6127 6.12755C11.5838 5.91278 11.5823 5.61498 11.5823 5.12355H11.1823ZM11.1823 3.49419V5.12355H11.5823V3.49419H11.1823ZM11.2162 2.43689C11.1829 2.68462 11.1823 3.01454 11.1823 3.49419H11.5823C11.5823 3.00277 11.5838 2.70497 11.6127 2.49019L11.2162 2.43689ZM11.3873 1.99922C11.3061 2.08044 11.2484 2.19744 11.2162 2.43689L11.6127 2.49019C11.6259 2.3918 11.6418 2.33887 11.6531 2.31135C11.6626 2.28837 11.6686 2.28367 11.6702 2.28206L11.3873 1.99922Z" fill="white" mask="url(#path-1-outside-1_47_598)"/>
</svg>
