<svg width="19" height="18" viewBox="0 0 19 18" fill="none" xmlns="http://www.w3.org/2000/svg">
<path fill-rule="evenodd" clip-rule="evenodd" d="M2 1.10632C2 0.830181 1.77614 0.606323 1.5 0.606323C1.22386 0.606323 1 0.830181 1 1.10632V13.9203V13.9417C0.999995 14.4836 0.999991 14.9207 1.02891 15.2746C1.05868 15.639 1.12159 15.9591 1.27248 16.2553C1.51217 16.7257 1.89462 17.1081 2.36502 17.3478C2.66117 17.4987 2.98126 17.5616 3.34569 17.5914C3.69963 17.6203 4.1367 17.6203 4.67859 17.6203H4.7H17.514C17.7901 17.6203 18.014 17.3964 18.014 17.1203C18.014 16.8441 17.7901 16.6203 17.514 16.6203H4.7C4.1317 16.6203 3.73554 16.6199 3.42712 16.5947C3.12454 16.57 2.95069 16.5239 2.81901 16.4568C2.53677 16.313 2.3073 16.0835 2.16349 15.8013C2.0964 15.6696 2.05031 15.4957 2.02559 15.1932C2.00039 14.8847 2 14.4886 2 13.9203V1.10632ZM17.8675 4.12889C18.0628 3.93363 18.0628 3.61705 17.8675 3.42178C17.6722 3.22652 17.3557 3.22652 17.1604 3.42178L12.5295 8.05266C12.3343 8.24792 12.0177 8.24792 11.8224 8.05266L10.5676 6.79788C9.98185 6.21209 9.03211 6.2121 8.44632 6.79788L4.70511 10.5391C4.50985 10.7344 4.50985 11.0509 4.70511 11.2462C4.90037 11.4415 5.21695 11.4415 5.41222 11.2462L9.15343 7.50499C9.34869 7.30973 9.66527 7.30973 9.86053 7.50499L11.1153 8.75977C11.7011 9.34555 12.6508 9.34555 13.2366 8.75977L17.8675 4.12889Z" fill="#596E7C"/>
<path d="M1 13.9417L1.15 13.9417V13.9417H1ZM1.02891 15.2746L0.879407 15.2868L1.02891 15.2746ZM1.27248 16.2553L1.40614 16.1872L1.40614 16.1872L1.27248 16.2553ZM2.36502 17.3478L2.43312 17.2141H2.43312L2.36502 17.3478ZM3.34569 17.5914L3.3579 17.4419H3.3579L3.34569 17.5914ZM4.67859 17.6203V17.4703H4.67859L4.67859 17.6203ZM3.42712 16.5947L3.41491 16.7442L3.42712 16.5947ZM2.81901 16.4568L2.75092 16.5904H2.75092L2.81901 16.4568ZM2.16349 15.8013L2.29714 15.7332L2.29714 15.7332L2.16349 15.8013ZM2.02559 15.1932L2.17509 15.1809L2.02559 15.1932ZM17.8675 3.42178L17.9736 3.31572V3.31572L17.8675 3.42178ZM17.8675 4.12889L17.9736 4.23496V4.23496L17.8675 4.12889ZM17.1604 3.42178L17.0543 3.31572V3.31572L17.1604 3.42178ZM12.5295 8.05266L12.6356 8.15873L12.5295 8.05266ZM11.8224 8.05266L11.9285 7.9466L11.9285 7.94659L11.8224 8.05266ZM10.5676 6.79788L10.4616 6.90395L10.5676 6.79788ZM8.44632 6.79788L8.55239 6.90395V6.90395L8.44632 6.79788ZM4.70511 10.5391L4.81117 10.6452L4.70511 10.5391ZM5.41222 11.2462L5.51828 11.3523L5.41222 11.2462ZM9.15343 7.50499L9.04736 7.39892L9.15343 7.50499ZM9.86053 7.50499L9.9666 7.39892L9.86053 7.50499ZM11.1153 8.75977L11.2214 8.6537H11.2214L11.1153 8.75977ZM13.2366 8.75977L13.3427 8.86583L13.2366 8.75977ZM1.5 0.756323C1.6933 0.756323 1.85 0.913024 1.85 1.10632H2.15C2.15 0.747338 1.85899 0.456323 1.5 0.456323V0.756323ZM1.15 1.10632C1.15 0.913024 1.3067 0.756323 1.5 0.756323V0.456323C1.14102 0.456323 0.85 0.747338 0.85 1.10632H1.15ZM1.15 13.9203V1.10632H0.85V13.9203H1.15ZM1.15 13.9417V13.9203H0.85V13.9417H1.15ZM1.17841 15.2624C1.1501 14.9159 1.15 14.4859 1.15 13.9417L0.85 13.9417C0.849995 14.4813 0.849878 14.9254 0.879407 15.2868L1.17841 15.2624ZM1.40614 16.1872C1.2678 15.9157 1.20743 15.6175 1.17841 15.2624L0.879407 15.2868C0.909942 15.6605 0.975377 16.0026 1.13883 16.3234L1.40614 16.1872ZM2.43312 17.2141C1.99094 16.9888 1.63144 16.6293 1.40614 16.1872L1.13883 16.3234C1.3929 16.822 1.7983 17.2274 2.29693 17.4814L2.43312 17.2141ZM3.3579 17.4419C3.00278 17.4129 2.70461 17.3525 2.43312 17.2141L2.29693 17.4814C2.61773 17.6449 2.95974 17.7103 3.33347 17.7409L3.3579 17.4419ZM4.67859 17.4703C4.13442 17.4703 3.70436 17.4702 3.3579 17.4419L3.33347 17.7409C3.69489 17.7704 4.13898 17.7703 4.67859 17.7703L4.67859 17.4703ZM4.7 17.4703H4.67859V17.7703H4.7V17.4703ZM17.514 17.4703H4.7V17.7703H17.514V17.4703ZM17.864 17.1203C17.864 17.3136 17.7073 17.4703 17.514 17.4703V17.7703C17.8729 17.7703 18.164 17.4793 18.164 17.1203H17.864ZM17.514 16.7703C17.7073 16.7703 17.864 16.927 17.864 17.1203H18.164C18.164 16.7613 17.8729 16.4703 17.514 16.4703V16.7703ZM4.7 16.7703H17.514V16.4703H4.7V16.7703ZM3.41491 16.7442C3.73086 16.77 4.13422 16.7703 4.7 16.7703V16.4703C4.12917 16.4703 3.74022 16.4698 3.43934 16.4452L3.41491 16.7442ZM2.75092 16.5904C2.90729 16.6701 3.10309 16.7187 3.41491 16.7442L3.43934 16.4452C3.14598 16.4212 2.99409 16.3776 2.88711 16.3231L2.75092 16.5904ZM2.02984 15.8694C2.18803 16.1798 2.44045 16.4322 2.75092 16.5904L2.88711 16.3231C2.63309 16.1937 2.42657 15.9872 2.29714 15.7332L2.02984 15.8694ZM1.87609 15.2054C1.90156 15.5172 1.95016 15.713 2.02984 15.8694L2.29714 15.7332C2.24263 15.6262 2.19906 15.4743 2.17509 15.1809L1.87609 15.2054ZM1.85 13.9203C1.85 14.4861 1.85027 14.8894 1.87609 15.2054L2.17509 15.1809C2.15051 14.8801 2.15 14.4911 2.15 13.9203H1.85ZM1.85 1.10632V13.9203H2.15V1.10632H1.85ZM17.7614 3.52785C17.8981 3.66453 17.8981 3.88614 17.7614 4.02282L17.9736 4.23496C18.2274 3.98112 18.2274 3.56956 17.9736 3.31572L17.7614 3.52785ZM17.2665 3.52785C17.4032 3.39117 17.6248 3.39117 17.7614 3.52785L17.9736 3.31572C17.7197 3.06188 17.3082 3.06188 17.0543 3.31572L17.2665 3.52785ZM12.6356 8.15873L17.2665 3.52785L17.0543 3.31572L12.4235 7.9466L12.6356 8.15873ZM11.7164 8.15873C11.9702 8.41257 12.3818 8.41257 12.6356 8.15873L12.4235 7.9466C12.2868 8.08328 12.0652 8.08328 11.9285 7.9466L11.7164 8.15873ZM10.4616 6.90395L11.7164 8.15873L11.9285 7.94659L10.6737 6.69182L10.4616 6.90395ZM8.55239 6.90395C9.07959 6.37674 9.93437 6.37674 10.4616 6.90395L10.6737 6.69182C10.0293 6.04745 8.98462 6.04745 8.34025 6.69182L8.55239 6.90395ZM4.81117 10.6452L8.55239 6.90395L8.34025 6.69182L4.59904 10.433L4.81117 10.6452ZM4.81117 11.1401C4.67449 11.0035 4.67449 10.7818 4.81117 10.6452L4.59904 10.433C4.3452 10.6869 4.3452 11.0984 4.59904 11.3523L4.81117 11.1401ZM5.30615 11.1401C5.16947 11.2768 4.94786 11.2768 4.81117 11.1401L4.59904 11.3523C4.85288 11.6061 5.26444 11.6061 5.51828 11.3523L5.30615 11.1401ZM9.04736 7.39892L5.30615 11.1401L5.51828 11.3523L9.25949 7.61105L9.04736 7.39892ZM9.9666 7.39892C9.71276 7.14508 9.3012 7.14508 9.04736 7.39892L9.25949 7.61105C9.39618 7.47437 9.61778 7.47437 9.75447 7.61105L9.9666 7.39892ZM11.2214 8.6537L9.9666 7.39892L9.75447 7.61105L11.0092 8.86583L11.2214 8.6537ZM13.1306 8.6537C12.6034 9.18091 11.7486 9.18091 11.2214 8.6537L11.0092 8.86583C11.6536 9.5102 12.6983 9.5102 13.3427 8.86583L13.1306 8.6537ZM17.7614 4.02282L13.1306 8.6537L13.3427 8.86583L17.9736 4.23496L17.7614 4.02282Z" fill="#596E7C"/>
</svg>
