<svg width="19" height="18" viewBox="0 0 19 18" fill="none" xmlns="http://www.w3.org/2000/svg">
<path fill-rule="evenodd" clip-rule="evenodd" d="M2 7.39457C2 4.1241 4.65124 1.47286 7.9217 1.47286C11.1922 1.47286 13.8434 4.1241 13.8434 7.39457C13.8434 10.665 11.1922 13.3163 7.9217 13.3163C4.65124 13.3163 2 10.665 2 7.39457ZM7.9217 0.472862C4.09895 0.472862 1 3.57181 1 7.39457C1 11.2173 4.09895 14.3163 7.9217 14.3163C11.7445 14.3163 14.8434 11.2173 14.8434 7.39457C14.8434 3.57181 11.7445 0.472862 7.9217 0.472862ZM14.6969 13.4627C14.5017 13.2675 14.1851 13.2675 13.9898 13.4627C13.7946 13.658 13.7946 13.9746 13.9898 14.1698L17.2007 17.3807C17.396 17.576 17.7125 17.576 17.9078 17.3807C18.1031 17.1854 18.1031 16.8688 17.9078 16.6736L14.6969 13.4627Z" fill="#8E9AA2"/>
<path d="M13.9898 13.4627L13.8838 13.3567L13.8838 13.3567L13.9898 13.4627ZM14.6969 13.4627L14.803 13.3567V13.3567L14.6969 13.4627ZM13.9898 14.1698L13.8838 14.2759H13.8838L13.9898 14.1698ZM17.2007 17.3807L17.3068 17.2746L17.2007 17.3807ZM17.9078 17.3807L17.8017 17.2746L17.9078 17.3807ZM17.9078 16.6736L17.8017 16.7796L17.9078 16.6736ZM7.9217 1.32286C4.56839 1.32286 1.85 4.04126 1.85 7.39457H2.15C2.15 4.20694 4.73408 1.62286 7.9217 1.62286V1.32286ZM13.9934 7.39457C13.9934 4.04126 11.275 1.32286 7.9217 1.32286V1.62286C11.1093 1.62286 13.6934 4.20694 13.6934 7.39457H13.9934ZM7.9217 13.4663C11.275 13.4663 13.9934 10.7479 13.9934 7.39457H13.6934C13.6934 10.5822 11.1093 13.1663 7.9217 13.1663V13.4663ZM1.85 7.39457C1.85 10.7479 4.56839 13.4663 7.9217 13.4663V13.1663C4.73408 13.1663 2.15 10.5822 2.15 7.39457H1.85ZM1.15 7.39457C1.15 3.65466 4.18179 0.622862 7.9217 0.622862V0.322862C4.01611 0.322862 0.85 3.48897 0.85 7.39457H1.15ZM7.9217 14.1663C4.18179 14.1663 1.15 11.1345 1.15 7.39457H0.85C0.85 11.3002 4.01611 14.4663 7.9217 14.4663V14.1663ZM14.6934 7.39457C14.6934 11.1345 11.6616 14.1663 7.9217 14.1663V14.4663C11.8273 14.4663 14.9934 11.3002 14.9934 7.39457H14.6934ZM7.9217 0.622862C11.6616 0.622862 14.6934 3.65466 14.6934 7.39457H14.9934C14.9934 3.48897 11.8273 0.322862 7.9217 0.322862V0.622862ZM14.0959 13.5688C14.2326 13.4321 14.4542 13.4321 14.5909 13.5688L14.803 13.3567C14.5492 13.1028 14.1376 13.1028 13.8838 13.3567L14.0959 13.5688ZM14.0959 14.0638C13.9592 13.9271 13.9592 13.7055 14.0959 13.5688L13.8838 13.3567C13.6299 13.6105 13.6299 14.0221 13.8838 14.2759L14.0959 14.0638ZM17.3068 17.2746L14.0959 14.0638L13.8838 14.2759L17.0946 17.4868L17.3068 17.2746ZM17.8017 17.2746C17.665 17.4113 17.4434 17.4113 17.3068 17.2746L17.0946 17.4868C17.3485 17.7406 17.76 17.7406 18.0139 17.4868L17.8017 17.2746ZM17.8017 16.7796C17.9384 16.9163 17.9384 17.1379 17.8017 17.2746L18.0139 17.4868C18.2677 17.2329 18.2677 16.8214 18.0139 16.5675L17.8017 16.7796ZM14.5909 13.5688L17.8017 16.7796L18.0139 16.5675L14.803 13.3567L14.5909 13.5688Z" fill="#8E9AA2"/>
</svg>
