<svg width="20" height="20" viewBox="0 0 20 20" fill="none" xmlns="http://www.w3.org/2000/svg">
<path d="M11.9803 2.29746H12.5803V2.26228L12.5762 2.22735L11.9803 2.29746ZM11.9803 2.29743L11.3832 2.35714L11.3844 2.36754L11.9803 2.29743ZM11.9803 2.29747H11.3803V2.32739L11.3833 2.35717L11.9803 2.29747ZM12.1643 3.35661L11.6367 3.64237L11.6367 3.64237L12.1643 3.35661ZM13.3286 3.83888L13.1576 3.26376L13.1576 3.26376L13.3286 3.83888ZM14.2076 3.22004L13.8277 2.75566L13.8277 2.75566L14.2076 3.22004ZM14.6952 2.86811L14.4532 2.31907L14.4532 2.31907L14.6952 2.86811ZM15.5909 2.91278L15.8863 2.39055L15.8863 2.39055L15.5909 2.91278ZM16.041 3.31148L15.6168 3.73574L16.041 3.31148ZM16.8494 4.11985L16.4251 4.54411L16.4251 4.54412L16.8494 4.11985ZM17.2481 4.57003L17.7704 4.27462L17.7703 4.27462L17.2481 4.57003ZM17.2928 5.46568L16.7437 5.2237L16.7437 5.2237L17.2928 5.46568ZM16.9408 5.9533L17.4052 6.33324L16.9408 5.9533ZM16.322 6.83236L16.8971 7.00334L16.322 6.83236ZM16.8042 7.99663L17.09 7.46905L17.09 7.46905L16.8042 7.99663ZM17.8634 8.18061L17.8037 8.77763L17.8634 8.18061ZM18.4571 8.27656L18.24 8.83589L18.24 8.83589L18.4571 8.27656ZM19.0588 8.94145L18.4807 9.10185L19.0588 8.94145ZM19.0589 11.2851L19.6371 11.4454L19.6371 11.4454L19.0589 11.2851ZM18.457 11.9501L18.24 11.3908L18.24 11.3908L18.457 11.9501ZM17.8635 12.046L17.8038 11.449L17.8635 12.046ZM16.8048 12.2299L17.0905 12.7575L17.0905 12.7575L16.8048 12.2299ZM16.3224 13.3944L15.7473 13.5655H15.7473L16.3224 13.3944ZM16.941 14.273L17.4402 13.9402L17.424 13.9158L17.4054 13.8931L16.941 14.273ZM16.941 14.273L16.4418 14.6058L16.458 14.6303L16.4766 14.653L16.941 14.273ZM17.2928 14.7604L16.7438 15.0024L16.7438 15.0024L17.2928 14.7604ZM17.2481 15.6563L17.7703 15.9518V15.9518L17.2481 15.6563ZM16.8496 16.1062L16.4253 15.6819L16.4253 15.6819L16.8496 16.1062ZM16.0411 16.9147L16.4653 17.339V17.339L16.0411 16.9147ZM16.041 16.9147L16.4653 17.339L16.4653 17.339L16.041 16.9147ZM15.5909 17.3134L15.8863 17.8356L15.8863 17.8356L15.5909 17.3134ZM14.6952 17.3581L14.9372 16.809L14.9372 16.809L14.6952 17.3581ZM14.2077 17.0062L13.8171 17.4618L13.8277 17.4705L14.2077 17.0062ZM14.2076 17.0061L14.5982 16.5505L14.5876 16.5418L14.2076 17.0061ZM13.3286 16.3873L13.1576 16.9624L13.1576 16.9624L13.3286 16.3873ZM12.1643 16.8696L12.6919 17.1553L12.6919 17.1553L12.1643 16.8696ZM11.9803 17.9289L12.5774 17.9886L11.9803 17.9289ZM11.9803 17.9289L12.5774 17.9886V17.9886L11.9803 17.9289ZM11.8843 18.5229L11.325 18.3057L11.325 18.3057L11.8843 18.5229ZM11.2196 19.1245L11.0591 18.5463L11.0591 18.5463L11.2196 19.1245ZM8.87576 19.1245L8.71536 19.7027L8.87576 19.1245ZM8.21085 18.5228L7.65152 18.7399L8.21085 18.5228ZM8.11491 17.9291L7.51789 17.9888L8.11491 17.9291ZM7.93093 16.8699L8.4585 16.5842L8.4585 16.5842L7.93093 16.8699ZM6.76666 16.3877L6.59567 15.8126H6.59567L6.76666 16.3877ZM5.88759 17.0066L5.50755 16.5421L5.49712 16.551L5.88759 17.0066ZM5.88758 17.0066L6.26763 17.4711L6.27806 17.4621L5.88758 17.0066ZM5.39996 17.3585L5.64193 17.9075L5.64194 17.9075L5.39996 17.3585ZM4.50432 17.3138L4.20891 17.8361L4.20891 17.8361L4.50432 17.3138ZM3.24577 16.1068L3.67003 15.6825H3.67003L3.24577 16.1068ZM2.84706 15.6566L2.32483 15.952L2.32483 15.952L2.84706 15.6566ZM2.80239 14.7609L3.35143 15.0029L3.35143 15.0029L2.80239 14.7609ZM3.15433 14.2733L2.68996 13.8934H2.68996L3.15433 14.2733ZM3.77317 13.3943L3.19806 13.2233H3.19806L3.77317 13.3943ZM3.29091 12.23L3.00515 12.7576L3.00515 12.7576L3.29091 12.23ZM2.23177 12.046L2.29147 11.449L2.26169 11.446H2.23177V12.046ZM2.23176 12.046L2.17205 12.643L2.20183 12.646H2.23176V12.046ZM1.63814 11.9501L1.42102 12.5094L1.42102 12.5094L1.63814 11.9501ZM1.03639 11.2852L0.458221 11.4455L0.458222 11.4455L1.03639 11.2852ZM1.03642 8.94137L1.61457 9.10182H1.61457L1.03642 8.94137ZM1.63804 8.27658L1.42087 7.71727H1.42087L1.63804 8.27658ZM2.23189 8.1806L2.17219 7.58358H2.17219L2.23189 8.1806ZM3.29142 7.99653L3.00558 7.46899L3.00558 7.46899L3.29142 7.99653ZM3.7736 6.83245L3.19845 7.00336L3.19845 7.00336L3.7736 6.83245ZM3.1545 5.95303L3.61888 5.57309L3.1545 5.95303ZM2.80238 5.46513L2.2533 5.70703H2.2533L2.80238 5.46513ZM2.84704 4.56972L3.36931 4.86506L3.36931 4.86506L2.84704 4.56972ZM4.50436 2.91235L4.20896 2.39011L4.50436 2.91235ZM5.4 2.86768L5.15802 3.41672L5.15803 3.41672L5.4 2.86768ZM5.88771 3.21968L5.50776 3.68406L5.88771 3.21968ZM6.76654 3.83845L6.59547 4.41354H6.59547L6.76654 3.83845ZM7.93104 3.3561L7.40342 3.07042L7.40342 3.07042L7.93104 3.3561ZM8.11492 2.29733L8.71195 2.35703L8.71492 2.32726V2.29733H8.11492ZM8.11492 2.29733L7.5179 2.23762L7.51492 2.2674V2.29733H8.11492ZM8.21081 1.7039L8.77017 1.92097L8.77017 1.92096L8.21081 1.7039ZM8.87586 1.10204L8.71553 0.523854L8.71553 0.523855L8.87586 1.10204ZM11.2195 1.10206L11.0591 1.68023L11.0591 1.68023L11.2195 1.10206ZM11.8844 1.7038L11.325 1.92093V1.92093L11.8844 1.7038ZM12.5762 2.22735L12.5762 2.22733L11.3844 2.36754L11.3844 2.36756L12.5762 2.22735ZM12.5803 2.29747V2.29746H11.3803V2.29747H12.5803ZM12.6919 3.07085C12.6943 3.07542 12.6753 3.04099 12.6511 2.8879C12.6278 2.73958 12.6075 2.53909 12.5773 2.23776L11.3833 2.35717C11.412 2.64411 11.4358 2.88482 11.4658 3.07481C11.495 3.26004 11.5385 3.46105 11.6367 3.64237L12.6919 3.07085ZM13.1576 3.26376C12.9763 3.31767 12.782 3.23719 12.6919 3.07085L11.6367 3.64237C11.9971 4.30772 12.7743 4.62964 13.4996 4.41399L13.1576 3.26376ZM13.8277 2.75566C13.5933 2.94743 13.4372 3.07485 13.3158 3.1632C13.1904 3.25438 13.1526 3.26524 13.1576 3.26376L13.4996 4.41399C13.6972 4.35523 13.8701 4.24386 14.0218 4.13353C14.1773 4.02037 14.3644 3.86702 14.5875 3.68441L13.8277 2.75566ZM14.4532 2.31907C14.2353 2.41511 14.0397 2.58215 13.8277 2.75566L14.5875 3.68441C14.8595 3.46189 14.9059 3.43092 14.9372 3.41715L14.4532 2.31907ZM15.8863 2.39055C15.4467 2.14186 14.9154 2.11536 14.4532 2.31907L14.9372 3.41715C15.0527 3.36622 15.1855 3.37284 15.2955 3.43502L15.8863 2.39055ZM16.4653 2.88722C16.2715 2.69346 16.0935 2.50779 15.8863 2.39055L15.2955 3.43502C15.3252 3.45182 15.3683 3.48727 15.6168 3.73574L16.4653 2.88722ZM17.2737 3.69559L16.4653 2.88722L15.6168 3.73574L16.4251 4.54411L17.2737 3.69559ZM17.7703 4.27462C17.6531 4.06735 17.4674 3.88935 17.2737 3.69558L16.4251 4.54412C16.6736 4.7926 16.7091 4.83573 16.7259 4.86544L17.7703 4.27462ZM17.8418 5.70766C18.0455 5.24547 18.019 4.71424 17.7704 4.27462L16.7259 4.86544C16.788 4.97535 16.7947 5.10815 16.7437 5.2237L17.8418 5.70766ZM17.4052 6.33324C17.5787 6.12117 17.7458 5.92557 17.8418 5.70766L16.7437 5.2237C16.73 5.25494 16.699 5.30137 16.4765 5.57336L17.4052 6.33324ZM16.8971 7.00334C16.8956 7.00832 16.9065 6.9705 16.9977 6.84517C17.086 6.72374 17.2134 6.56763 17.4052 6.33324L16.4765 5.57336C16.2939 5.79655 16.1405 5.98363 16.0273 6.13916C15.917 6.2908 15.8056 6.46371 15.7469 6.66137L16.8971 7.00334ZM17.09 7.46905C16.9237 7.37895 16.8432 7.18466 16.8971 7.00334L15.7469 6.66137C15.5312 7.38665 15.8531 8.16383 16.5185 8.5242L17.09 7.46905ZM17.9231 7.58359C17.6218 7.55346 17.4213 7.53317 17.273 7.50978C17.1199 7.48564 17.0854 7.46657 17.09 7.46905L16.5185 8.5242C16.6998 8.62242 16.9008 8.66593 17.0861 8.69514C17.2761 8.7251 17.5168 8.74894 17.8037 8.77763L17.9231 7.58359ZM18.6743 7.71722C18.4522 7.63104 18.1958 7.61086 17.9231 7.58359L17.8037 8.77763C18.1534 8.8126 18.2082 8.82354 18.24 8.83589L18.6743 7.71722ZM19.637 8.78106C19.502 8.29436 19.1451 7.9 18.6742 7.71722L18.24 8.83589C18.3577 8.88159 18.4469 8.98018 18.4807 9.10185L19.637 8.78106ZM19.6952 9.54173C19.6952 9.2677 19.7007 9.01053 19.637 8.78106L18.4807 9.10185C18.4898 9.13475 18.4952 9.1903 18.4952 9.54173H19.6952ZM19.6952 10.685V9.54173H18.4952V10.685H19.6952ZM19.6371 11.4454C19.7007 11.216 19.6952 10.959 19.6952 10.685H18.4952C18.4952 11.0363 18.4898 11.0919 18.4807 11.1247L19.6371 11.4454ZM18.6741 12.5095C19.1451 12.3267 19.5021 11.9322 19.6371 11.4454L18.4807 11.1247C18.4469 11.2464 18.3577 11.3451 18.24 11.3908L18.6741 12.5095ZM17.9232 12.643C18.1958 12.6158 18.4522 12.5956 18.6741 12.5095L18.24 11.3908C18.2081 11.4031 18.1534 11.414 17.8038 11.449L17.9232 12.643ZM17.0905 12.7575C17.0859 12.76 17.1203 12.7409 17.2733 12.7168C17.4216 12.6934 17.622 12.6732 17.9232 12.643L17.8038 11.449C17.517 11.4777 17.2764 11.5015 17.0865 11.5314C16.9013 11.5606 16.7004 11.6041 16.5191 11.7022L17.0905 12.7575ZM16.8975 13.2233C16.8435 13.042 16.9241 12.8476 17.0905 12.7575L16.5191 11.7022C15.8535 12.0626 15.5315 12.8401 15.7473 13.5655L16.8975 13.2233ZM17.4054 13.8931C17.2137 13.6588 17.0863 13.5028 16.998 13.3814C16.9069 13.2562 16.896 13.2184 16.8975 13.2233L15.7473 13.5655C15.8061 13.7631 15.9174 13.9359 16.0277 14.0875C16.1408 14.2429 16.2941 14.4299 16.4766 14.653L17.4054 13.8931ZM17.4402 13.9402L17.4402 13.9402L16.4418 14.6058L16.4418 14.6058L17.4402 13.9402ZM17.8418 14.5183C17.7458 14.3005 17.5788 14.105 17.4054 13.8931L16.4766 14.653C16.699 14.9248 16.73 14.9712 16.7438 15.0024L17.8418 14.5183ZM17.7703 15.9518C18.0191 15.512 18.0456 14.9806 17.8418 14.5183L16.7438 15.0024C16.7947 15.118 16.7881 15.2509 16.7259 15.3608L17.7703 15.9518ZM17.2738 16.5305C17.4675 16.3368 17.6531 16.1589 17.7703 15.9518L16.7259 15.3608C16.7091 15.3905 16.6737 15.4336 16.4253 15.6819L17.2738 16.5305ZM16.4653 17.339L17.2738 16.5305L16.4253 15.6819L15.6168 16.4904L16.4653 17.339ZM16.4653 17.339L16.4653 17.339L15.6168 16.4904L15.6168 16.4905L16.4653 17.339ZM15.8863 17.8356C16.0936 17.7184 16.2716 17.5327 16.4653 17.339L15.6168 16.4905C15.3683 16.7389 15.3252 16.7744 15.2955 16.7912L15.8863 17.8356ZM14.4533 17.9071C14.9155 18.1108 15.4467 18.0843 15.8863 17.8356L15.2955 16.7912C15.1856 16.8533 15.0528 16.86 14.9372 16.809L14.4533 17.9071ZM13.8277 17.4705C14.0398 17.644 14.2354 17.8111 14.4533 17.9071L14.9372 16.809C14.906 16.7953 14.8596 16.7643 14.5876 16.5418L13.8277 17.4705ZM13.8172 17.4617L13.8172 17.4617L14.5981 16.5506L14.5981 16.5506L13.8172 17.4617ZM13.1576 16.9624C13.1526 16.9609 13.1905 16.9718 13.3158 17.063C13.4372 17.1513 13.5933 17.2788 13.8277 17.4705L14.5876 16.5418C14.3644 16.3592 14.1773 16.2058 14.0218 16.0926C13.8702 15.9823 13.6973 15.8709 13.4996 15.8122L13.1576 16.9624ZM12.6919 17.1553C12.782 16.989 12.9763 16.9085 13.1576 16.9624L13.4996 15.8122C12.7743 15.5965 11.9971 15.9185 11.6368 16.5838L12.6919 17.1553ZM12.5774 17.9886C12.6075 17.6872 12.6278 17.4867 12.6512 17.3383C12.6753 17.1852 12.6944 17.1507 12.6919 17.1553L11.6368 16.5838C11.5385 16.7651 11.495 16.9662 11.4658 17.1514C11.4359 17.3414 11.412 17.5822 11.3833 17.8692L12.5774 17.9886ZM12.5774 17.9886L12.5774 17.9886L11.3833 17.8692L11.3833 17.8692L12.5774 17.9886ZM12.4437 18.7401C12.5299 18.518 12.5501 18.2614 12.5774 17.9886L11.3833 17.8692C11.3483 18.2191 11.3374 18.2739 11.325 18.3057L12.4437 18.7401ZM11.38 19.7026C11.8666 19.5676 12.2609 19.2108 12.4437 18.7401L11.325 18.3057C11.2793 18.4234 11.1808 18.5126 11.0591 18.5463L11.38 19.7026ZM10.6191 19.7609C10.8932 19.7609 11.1505 19.7663 11.38 19.7026L11.0591 18.5463C11.0262 18.5555 10.9706 18.5609 10.6191 18.5609V19.7609ZM9.47602 19.7609H10.6191V18.5609H9.47602V19.7609ZM8.71536 19.7027C8.94483 19.7663 9.202 19.7609 9.47602 19.7609V18.5609C9.1246 18.5609 9.06905 18.5555 9.03615 18.5464L8.71536 19.7027ZM7.65152 18.7399C7.83429 19.2108 8.22866 19.5677 8.71536 19.7027L9.03615 18.5464C8.91447 18.5126 8.81588 18.4234 8.77019 18.3057L7.65152 18.7399ZM7.51789 17.9888C7.54516 18.2615 7.56534 18.5179 7.65152 18.7399L8.77019 18.3057C8.75783 18.2738 8.7469 18.2191 8.71193 17.8694L7.51789 17.9888ZM7.40335 17.1557C7.40087 17.1511 7.41994 17.1856 7.44408 17.3387C7.46747 17.487 7.48775 17.6875 7.51789 17.9888L8.71193 17.8694C8.68324 17.5825 8.6594 17.3418 8.62944 17.1518C8.60023 16.9665 8.55672 16.7655 8.4585 16.5842L7.40335 17.1557ZM6.93764 16.9628C7.11896 16.9089 7.31326 16.9894 7.40335 17.1557L8.4585 16.5842C8.09812 15.9188 7.32095 15.5969 6.59567 15.8126L6.93764 16.9628ZM6.26754 17.4709C6.50192 17.2792 6.65804 17.1517 6.77947 17.0634C6.9048 16.9722 6.94263 16.9613 6.93764 16.9628L6.59567 15.8126C6.39801 15.8713 6.2251 15.9827 6.07346 16.093C5.91792 16.2062 5.73085 16.3596 5.50765 16.5422L6.26754 17.4709ZM6.27806 17.4621L6.27807 17.4621L5.49712 16.551L5.49711 16.551L6.27806 17.4621ZM5.64194 17.9075C5.85985 17.8115 6.05544 17.6445 6.26753 17.4709L5.50764 16.5422C5.23566 16.7647 5.18922 16.7957 5.15798 16.8095L5.64194 17.9075ZM4.20891 17.8361C4.64853 18.0847 5.17975 18.1112 5.64193 17.9075L5.15798 16.8095C5.04244 16.8604 4.90963 16.8538 4.79972 16.7916L4.20891 17.8361ZM3.62986 17.3394C3.82363 17.5331 4.00163 17.7188 4.20891 17.8361L4.79973 16.7916C4.77001 16.7748 4.72689 16.7393 4.47839 16.4908L3.62986 17.3394ZM2.8215 16.531L3.62986 17.3394L4.47839 16.4908L3.67003 15.6825L2.8215 16.531ZM2.32483 15.952C2.44207 16.1593 2.62775 16.3373 2.8215 16.531L3.67003 15.6825C3.42155 15.434 3.38611 15.3909 3.3693 15.3612L2.32483 15.952ZM2.25335 14.5189C2.04965 14.9811 2.07614 15.5124 2.32483 15.952L3.3693 15.3612C3.30713 15.2513 3.3005 15.1185 3.35143 15.0029L2.25335 14.5189ZM2.68996 13.8934C2.51644 14.1054 2.34939 14.301 2.25335 14.5189L3.35143 15.0029C3.3652 14.9717 3.39617 14.9252 3.6187 14.6532L2.68996 13.8934ZM3.19806 13.2233C3.19954 13.2183 3.18867 13.2561 3.09749 13.3815C3.00915 13.5029 2.88172 13.659 2.68996 13.8934L3.6187 14.6532C3.80131 14.4301 3.95467 14.243 4.06783 14.0875C4.17815 13.9358 4.28952 13.7629 4.34829 13.5653L3.19806 13.2233ZM3.00515 12.7576C3.17149 12.8477 3.25197 13.042 3.19806 13.2233L4.34829 13.5653C4.56394 12.84 4.24201 12.0628 3.57666 11.7024L3.00515 12.7576ZM2.17207 12.643C2.47339 12.6732 2.67387 12.6934 2.8222 12.7168C2.97529 12.741 3.00972 12.76 3.00515 12.7576L3.57666 11.7024C3.39535 11.6042 3.19434 11.5607 3.00911 11.5315C2.81912 11.5015 2.57841 11.4777 2.29147 11.449L2.17207 12.643ZM2.23176 12.646H2.23177V11.446H2.23176V12.646ZM1.42102 12.5094C1.643 12.5956 1.89941 12.6158 2.17205 12.643L2.29146 11.449C1.94181 11.414 1.88708 11.4031 1.85525 11.3907L1.42102 12.5094ZM0.458222 11.4455C0.593238 11.9323 0.950152 12.3266 1.42102 12.5094L1.85526 11.3907C1.73754 11.345 1.64831 11.2465 1.61456 11.1248L0.458222 11.4455ZM0.4 10.6849C0.4 10.9589 0.39457 11.2161 0.458221 11.4455L1.61456 11.1248C1.60543 11.0919 1.6 11.0363 1.6 10.6849H0.4ZM0.4 9.54183V10.6849H1.6V9.54183H0.4ZM0.458266 8.78093C0.394566 9.01047 0.4 9.26772 0.4 9.54183H1.6C1.6 9.19029 1.60543 9.13472 1.61457 9.10182L0.458266 8.78093ZM1.42087 7.71727C0.950125 7.90005 0.5933 8.29434 0.458265 8.78093L1.61457 9.10182C1.64833 8.98017 1.73753 8.8816 1.85522 8.8359L1.42087 7.71727ZM2.17219 7.58358C1.89944 7.61085 1.64293 7.63104 1.42087 7.71727L1.85522 8.8359C1.88705 8.82354 1.9418 8.8126 2.2916 8.77762L2.17219 7.58358ZM3.00558 7.46899C3.01015 7.46652 2.97572 7.4856 2.82257 7.50975C2.67419 7.53315 2.47363 7.55344 2.17219 7.58358L2.29159 8.77762C2.57864 8.74892 2.81944 8.72507 3.0095 8.6951C3.1948 8.66588 3.39588 8.62235 3.57726 8.52407L3.00558 7.46899ZM3.19845 7.00336C3.25233 7.18465 3.17187 7.3789 3.00558 7.46899L3.57725 8.52407C4.24239 8.16368 4.56423 7.3867 4.34874 6.66154L3.19845 7.00336ZM2.69013 6.33298C2.88198 6.56746 3.00947 6.72364 3.09785 6.84512C3.18908 6.9705 3.19994 7.00835 3.19845 7.00336L4.34874 6.66154C4.28998 6.4638 4.17857 6.29082 4.0682 6.13913C3.95499 5.98353 3.80157 5.79638 3.61888 5.57309L2.69013 6.33298ZM2.2533 5.70703C2.34936 5.92507 2.51651 6.12078 2.69013 6.33298L3.61888 5.57309C3.39621 5.30095 3.36522 5.25448 3.35145 5.22322L2.2533 5.70703ZM2.32476 4.27438C2.07622 4.71391 2.04973 5.24496 2.2533 5.70703L3.35145 5.22322C3.30056 5.10771 3.30718 4.97494 3.36931 4.86506L2.32476 4.27438ZM2.82167 3.69504C2.62782 3.8889 2.44203 4.06699 2.32476 4.27438L3.36931 4.86506C3.38613 4.83533 3.42158 4.79219 3.6702 4.54357L2.82167 3.69504ZM3.62991 2.8868L2.82167 3.69504L3.6702 4.54357L4.47844 3.73533L3.62991 2.8868ZM3.62991 2.8868L3.62991 2.8868L4.47844 3.73533L4.47844 3.73533L3.62991 2.8868ZM4.20896 2.39011C4.00168 2.50735 3.82367 2.69304 3.62991 2.8868L4.47844 3.73533C4.72693 3.48684 4.77005 3.4514 4.79977 3.43459L4.20896 2.39011ZM5.64198 2.31863C5.1798 2.11494 4.64857 2.14144 4.20896 2.39011L4.79977 3.43459C4.90967 3.37242 5.04248 3.3658 5.15802 3.41672L5.64198 2.31863ZM6.26765 2.75531C6.05553 2.58175 5.85989 2.41468 5.64198 2.31863L5.15803 3.41672C5.18926 3.43049 5.23572 3.46148 5.50776 3.68406L6.26765 2.75531ZM6.93762 3.26336C6.94261 3.26484 6.90479 3.25398 6.77948 3.16279C6.65808 3.07446 6.50199 2.94704 6.26765 2.75531L5.50776 3.68406C5.73092 3.86664 5.91795 4.01997 6.07344 4.13311C6.22503 4.24341 6.39788 4.35477 6.59547 4.41354L6.93762 3.26336ZM7.40342 3.07042C7.31333 3.2368 7.11898 3.31731 6.93762 3.26336L6.59547 4.41354C7.3209 4.62934 8.0983 4.30733 8.45867 3.64178L7.40342 3.07042ZM7.5179 2.23763C7.48778 2.53884 7.46751 2.73926 7.44413 2.88753C7.42 3.04056 7.40095 3.07498 7.40342 3.07042L8.45867 3.64178C8.55681 3.46052 8.6003 3.25958 8.62949 3.07441C8.65943 2.88449 8.68326 2.64387 8.71195 2.35703L7.5179 2.23763ZM7.51492 2.29733V2.29733H8.71492V2.29733H7.51492ZM7.65145 1.48683C7.56534 1.70875 7.54516 1.96508 7.5179 2.23762L8.71195 2.35703C8.7469 2.00749 8.75783 1.95278 8.77017 1.92097L7.65145 1.48683ZM8.71553 0.523855C8.2287 0.658853 7.83422 1.01585 7.65145 1.48684L8.77017 1.92096C8.81586 1.80322 8.91448 1.71397 9.03619 1.68022L8.71553 0.523855ZM9.47588 0.465674C9.20198 0.465674 8.94492 0.460247 8.71553 0.523854L9.03619 1.68022C9.06908 1.6711 9.12461 1.66567 9.47588 1.66567V0.465674ZM10.6192 0.465674H9.47588V1.66567H10.6192V0.465674ZM11.3799 0.523899C11.1504 0.460243 10.8932 0.465674 10.6192 0.465674V1.66567C10.9706 1.66567 11.0262 1.6711 11.0591 1.68023L11.3799 0.523899ZM12.4437 1.48668C12.2609 1.01582 11.8666 0.658916 11.3799 0.523899L11.0591 1.68023C11.1808 1.71398 11.2793 1.80321 11.325 1.92093L12.4437 1.48668ZM12.5773 2.23773C12.5501 1.96509 12.5299 1.70867 12.4437 1.48668L11.325 1.92093C11.3374 1.95275 11.3483 2.00748 11.3833 2.35713L12.5773 2.23773ZM13.0667 10.1133C13.0667 11.7807 11.715 13.1324 10.0476 13.1324V14.3324C12.3777 14.3324 14.2667 12.4434 14.2667 10.1133H13.0667ZM10.0476 7.09426C11.715 7.09426 13.0667 8.44593 13.0667 10.1133H14.2667C14.2667 7.78319 12.3777 5.89426 10.0476 5.89426V7.09426ZM7.02857 10.1133C7.02857 8.44593 8.38024 7.09426 10.0476 7.09426V5.89426C7.7175 5.89426 5.82857 7.78319 5.82857 10.1133H7.02857ZM10.0476 13.1324C8.38024 13.1324 7.02857 11.7807 7.02857 10.1133H5.82857C5.82857 12.4434 7.7175 14.3324 10.0476 14.3324V13.1324Z" fill="#596E7C"/>
</svg>
