<svg width="144" height="53" viewBox="0 0 144 53" fill="none" xmlns="http://www.w3.org/2000/svg">
<path fill-rule="evenodd" clip-rule="evenodd" d="M21.2792 49.4507L19.3378 51.7379L5.52185 40.0107C3.76634 38.5206 2.64874 36.4143 2.39904 34.1252L0.0237212 12.3503C-0.165992 10.6111 0.796486 8.95047 2.39983 8.25055L20.326 0.425195L21.5262 3.17464L3.60006 11C3.19922 11.175 2.9586 11.5901 3.00603 12.0249L5.38134 33.7999C5.54781 35.3259 6.29288 36.7301 7.46322 37.7235L21.2792 49.4507ZM22.3264 3.17464C22.0713 3.06329 21.7813 3.06329 21.5262 3.17464L20.326 0.425193C21.3464 -0.0202295 22.5062 -0.020231 23.5266 0.425193L22.3264 3.17464ZM22.3264 3.17464L40.2526 11C40.6534 11.175 40.894 11.5901 40.8466 12.0249L38.4713 33.7999C38.3048 35.3259 37.5597 36.7301 36.3894 37.7235L22.5734 49.4507C22.2002 49.7675 21.6524 49.7675 21.2792 49.4507L19.3378 51.7379C20.8308 53.0051 23.0218 53.0051 24.5148 51.7379L38.3308 40.0107C40.0863 38.5206 41.2039 36.4143 41.4536 34.1252L43.8289 12.3502C44.0186 10.6111 43.0561 8.95045 41.4528 8.25055L23.5266 0.425195L22.3264 3.17464Z" fill="#E17A38"/>
<path d="M63.5586 9.89972V31.5237H80.3206V34.8217H59.8526V9.89972H63.5586Z" fill="white"/>
<path d="M92.125 35.2637C89.8584 35.2637 88.0677 34.7537 86.753 33.7337C85.4384 32.6911 84.5317 31.4671 84.033 30.0617C83.5344 28.6337 83.285 27.2511 83.285 25.9137C83.285 24.5764 83.5344 23.2051 84.033 21.7997C84.5317 20.3717 85.4384 19.1477 86.753 18.1277C88.0677 17.0851 89.8584 16.5637 92.125 16.5637C94.369 16.5637 96.1484 17.0851 97.463 18.1277C98.7777 19.1477 99.6844 20.3717 100.183 21.7997C100.704 23.2051 100.965 24.5764 100.965 25.9137C100.965 27.2511 100.704 28.6337 100.183 30.0617C99.6844 31.4671 98.7777 32.6911 97.463 33.7337C96.1484 34.7537 94.369 35.2637 92.125 35.2637ZM92.125 32.1357C93.961 32.1357 95.321 31.5351 96.205 30.3337C97.089 29.1324 97.531 27.6591 97.531 25.9137C97.531 24.1684 97.089 22.6951 96.205 21.4937C95.321 20.2924 93.961 19.6917 92.125 19.6917C90.289 19.6917 88.929 20.2924 88.045 21.4937C87.161 22.6951 86.719 24.1684 86.719 25.9137C86.719 27.6591 87.161 29.1324 88.045 30.3337C88.929 31.5351 90.289 32.1357 92.125 32.1357Z" fill="white"/>
<path d="M121.015 17.3457C120.063 17.3457 119.292 17.7424 118.703 18.5357C119.881 19.6011 120.471 21.0404 120.471 22.8537C120.471 24.4631 120.04 25.7324 119.179 26.6617C118.34 27.5911 117.343 28.2371 116.187 28.5997C115.031 28.9624 113.909 29.1437 112.821 29.1437C111.891 29.1437 111.019 29.0417 110.203 28.8377C109.681 29.0191 109.262 29.2457 108.945 29.5177C108.627 29.7671 108.469 30.0164 108.469 30.2657C108.469 30.4471 108.537 30.6057 108.673 30.7417C108.854 30.9457 109.262 31.1044 109.897 31.2177C110.554 31.3084 111.472 31.4104 112.651 31.5237C114.872 31.7051 116.493 31.9091 117.513 32.1357C119.099 32.4757 120.346 33.0537 121.253 33.8697C122.159 34.6857 122.613 35.8871 122.613 37.4737C122.613 39.1964 121.842 40.5224 120.301 41.4517C118.759 42.4037 116.549 42.8797 113.671 42.8797C110.656 42.8797 108.378 42.4944 106.837 41.7237C105.295 40.9757 104.525 39.7404 104.525 38.0177C104.525 36.2724 105.522 34.9011 107.517 33.9037C106.678 33.6091 106.077 33.2351 105.715 32.7817C105.375 32.3284 105.205 31.7957 105.205 31.1837C105.205 30.5717 105.443 29.9937 105.919 29.4497C106.417 28.8831 107.086 28.3731 107.925 27.9197C106.066 26.8317 105.137 25.1431 105.137 22.8537C105.137 21.2444 105.556 19.9751 106.395 19.0457C107.256 18.1164 108.265 17.4704 109.421 17.1077C110.599 16.7451 111.733 16.5637 112.821 16.5637C113.977 16.5637 115.087 16.7451 116.153 17.1077C117.354 15.1584 118.929 14.1837 120.879 14.1837C121.559 14.1837 122.273 14.3197 123.021 14.5917V17.9917C122.817 17.8104 122.522 17.6631 122.137 17.5497C121.774 17.4137 121.4 17.3457 121.015 17.3457ZM112.821 26.3217C113.977 26.3217 114.951 26.0384 115.745 25.4717C116.561 24.9051 116.969 24.0324 116.969 22.8537C116.969 21.6751 116.561 20.8024 115.745 20.2357C114.951 19.6464 113.977 19.3517 112.821 19.3517C111.665 19.3517 110.69 19.6464 109.897 20.2357C109.103 20.8024 108.707 21.6751 108.707 22.8537C108.707 24.0324 109.103 24.9051 109.897 25.4717C110.69 26.0384 111.665 26.3217 112.821 26.3217ZM114.249 34.8557C114.09 34.8331 113.739 34.7991 113.195 34.7537C112.673 34.7084 111.993 34.6517 111.155 34.5837C109.976 34.7877 109.137 35.1617 108.639 35.7057C108.163 36.2497 107.925 36.8164 107.925 37.4057C107.925 37.8364 108.129 38.2444 108.537 38.6297C108.967 39.0377 109.613 39.3664 110.475 39.6157C111.359 39.8877 112.435 40.0237 113.705 40.0237C115.359 40.0237 116.651 39.7744 117.581 39.2757C118.51 38.7997 118.975 38.1424 118.975 37.3037C118.975 36.5104 118.589 35.9437 117.819 35.6037C117.048 35.2637 115.858 35.0144 114.249 34.8557Z" fill="white"/>
<path d="M134.34 35.2637C132.074 35.2637 130.283 34.7537 128.968 33.7337C127.654 32.6911 126.747 31.4671 126.248 30.0617C125.75 28.6337 125.5 27.2511 125.5 25.9137C125.5 24.5764 125.75 23.2051 126.248 21.7997C126.747 20.3717 127.654 19.1477 128.968 18.1277C130.283 17.0851 132.074 16.5637 134.34 16.5637C136.584 16.5637 138.364 17.0851 139.678 18.1277C140.993 19.1477 141.9 20.3717 142.398 21.7997C142.92 23.2051 143.18 24.5764 143.18 25.9137C143.18 27.2511 142.92 28.6337 142.398 30.0617C141.9 31.4671 140.993 32.6911 139.678 33.7337C138.364 34.7537 136.584 35.2637 134.34 35.2637ZM134.34 32.1357C136.176 32.1357 137.536 31.5351 138.42 30.3337C139.304 29.1324 139.746 27.6591 139.746 25.9137C139.746 24.1684 139.304 22.6951 138.42 21.4937C137.536 20.2924 136.176 19.6917 134.34 19.6917C132.504 19.6917 131.144 20.2924 130.26 21.4937C129.376 22.6951 128.934 24.1684 128.934 25.9137C128.934 27.6591 129.376 29.1324 130.26 30.3337C131.144 31.5351 132.504 32.1357 134.34 32.1357Z" fill="white"/>
</svg>
